G04 #@! TF.GenerationSoftware,KiCad,Pcbnew,(5.1.9)-1*
G04 #@! TF.CreationDate,2021-01-29T19:09:00+08:00*
G04 #@! TF.ProjectId,board,626f6172-642e-46b6-9963-61645f706362,rev?*
G04 #@! TF.SameCoordinates,Original*
G04 #@! TF.FileFunction,Copper,L1,Top*
G04 #@! TF.FilePolarity,Positive*
%FSLAX46Y46*%
G04 Gerber Fmt 4.6, Leading zero omitted, Abs format (unit mm)*
G04 Created by KiCad (PCBNEW (5.1.9)-1) date 2021-01-29 19:09:00*
%MOMM*%
%LPD*%
G01*
G04 APERTURE LIST*
G04 #@! TA.AperFunction,ComponentPad*
%ADD10C,1.524000*%
G04 #@! TD*
G04 #@! TA.AperFunction,ComponentPad*
%ADD11C,2.250000*%
G04 #@! TD*
G04 #@! TA.AperFunction,ComponentPad*
%ADD12O,1.600000X1.600000*%
G04 #@! TD*
G04 #@! TA.AperFunction,ComponentPad*
%ADD13C,1.600000*%
G04 #@! TD*
G04 #@! TA.AperFunction,Conductor*
%ADD14C,0.400000*%
G04 #@! TD*
G04 #@! TA.AperFunction,NonConductor*
%ADD15C,0.254000*%
G04 #@! TD*
G04 #@! TA.AperFunction,NonConductor*
%ADD16C,0.100000*%
G04 #@! TD*
G04 APERTURE END LIST*
D10*
X139700000Y-119380000D03*
X142240000Y-119380000D03*
X144780000Y-119380000D03*
X147320000Y-119380000D03*
X149860000Y-119380000D03*
X152400000Y-119380000D03*
X154940000Y-119380000D03*
X157480000Y-119380000D03*
X160020000Y-119380000D03*
X162560000Y-119380000D03*
X165100000Y-119380000D03*
X167640000Y-119380000D03*
X139700000Y-96520000D03*
X142240000Y-96520000D03*
X144780000Y-96520000D03*
X147320000Y-96520000D03*
X149860000Y-96520000D03*
X152400000Y-96520000D03*
X154940000Y-96520000D03*
X157480000Y-96520000D03*
X160020000Y-96520000D03*
X162560000Y-96520000D03*
X165100000Y-96520000D03*
X167640000Y-96520000D03*
G04 #@! TA.AperFunction,ComponentPad*
G36*
G01*
X128151524Y-111327740D02*
X128151524Y-111327740D01*
G75*
G02*
X129352260Y-112371524I78476J-1122260D01*
G01*
X129392814Y-112951486D01*
G75*
G02*
X128349030Y-114152222I-1122260J-78476D01*
G01*
X128349030Y-114152222D01*
G75*
G02*
X127148294Y-113108438I-78476J1122260D01*
G01*
X127107740Y-112528476D01*
G75*
G02*
X128151524Y-111327740I1122260J78476D01*
G01*
G37*
G04 #@! TD.AperFunction*
D11*
X128270000Y-113030000D03*
G04 #@! TA.AperFunction,ComponentPad*
G36*
G01*
X121167228Y-109653962D02*
X121167228Y-109653962D01*
G75*
G02*
X122756038Y-109737228I752772J-836038D01*
G01*
X124068576Y-111194948D01*
G75*
G02*
X123985310Y-112783758I-836038J-752772D01*
G01*
X123985310Y-112783758D01*
G75*
G02*
X122396500Y-112700492I-752772J836038D01*
G01*
X121083962Y-111242772D01*
G75*
G02*
X121167228Y-109653962I836038J752772D01*
G01*
G37*
G04 #@! TD.AperFunction*
X123230000Y-111950000D03*
G04 #@! TA.AperFunction,ComponentPad*
G36*
G01*
X168791524Y-111327740D02*
X168791524Y-111327740D01*
G75*
G02*
X169992260Y-112371524I78476J-1122260D01*
G01*
X170032814Y-112951486D01*
G75*
G02*
X168989030Y-114152222I-1122260J-78476D01*
G01*
X168989030Y-114152222D01*
G75*
G02*
X167788294Y-113108438I-78476J1122260D01*
G01*
X167747740Y-112528476D01*
G75*
G02*
X168791524Y-111327740I1122260J78476D01*
G01*
G37*
G04 #@! TD.AperFunction*
X168910000Y-113030000D03*
G04 #@! TA.AperFunction,ComponentPad*
G36*
G01*
X161807228Y-109653962D02*
X161807228Y-109653962D01*
G75*
G02*
X163396038Y-109737228I752772J-836038D01*
G01*
X164708576Y-111194948D01*
G75*
G02*
X164625310Y-112783758I-836038J-752772D01*
G01*
X164625310Y-112783758D01*
G75*
G02*
X163036500Y-112700492I-752772J836038D01*
G01*
X161723962Y-111242772D01*
G75*
G02*
X161807228Y-109653962I836038J752772D01*
G01*
G37*
G04 #@! TD.AperFunction*
X163870000Y-111950000D03*
X143550000Y-111950000D03*
G04 #@! TA.AperFunction,ComponentPad*
G36*
G01*
X141487228Y-109653962D02*
X141487228Y-109653962D01*
G75*
G02*
X143076038Y-109737228I752772J-836038D01*
G01*
X144388576Y-111194948D01*
G75*
G02*
X144305310Y-112783758I-836038J-752772D01*
G01*
X144305310Y-112783758D01*
G75*
G02*
X142716500Y-112700492I-752772J836038D01*
G01*
X141403962Y-111242772D01*
G75*
G02*
X141487228Y-109653962I836038J752772D01*
G01*
G37*
G04 #@! TD.AperFunction*
X148590000Y-113030000D03*
G04 #@! TA.AperFunction,ComponentPad*
G36*
G01*
X148471524Y-111327740D02*
X148471524Y-111327740D01*
G75*
G02*
X149672260Y-112371524I78476J-1122260D01*
G01*
X149712814Y-112951486D01*
G75*
G02*
X148669030Y-114152222I-1122260J-78476D01*
G01*
X148669030Y-114152222D01*
G75*
G02*
X147468294Y-113108438I-78476J1122260D01*
G01*
X147427740Y-112528476D01*
G75*
G02*
X148471524Y-111327740I1122260J78476D01*
G01*
G37*
G04 #@! TD.AperFunction*
D12*
X147320000Y-101600000D03*
D13*
X137160000Y-101600000D03*
X165100000Y-115570000D03*
D12*
X154940000Y-115570000D03*
X154940000Y-101600000D03*
D13*
X165100000Y-101600000D03*
D14*
X142240000Y-100330000D02*
X142240000Y-96520000D01*
X138430000Y-104140000D02*
X142240000Y-100330000D01*
X130120000Y-112450000D02*
X138430000Y-104140000D01*
X128230000Y-112450000D02*
X130120000Y-112450000D01*
X139700000Y-105410000D02*
X143510000Y-101600000D01*
X143510000Y-101600000D02*
X147320000Y-101600000D01*
X147320000Y-101600000D02*
X149860000Y-101600000D01*
X149860000Y-101600000D02*
X149860000Y-96520000D01*
X121920000Y-110640000D02*
X123230000Y-111950000D01*
X121920000Y-110490000D02*
X121920000Y-110640000D01*
X121920000Y-110490000D02*
X121920000Y-115570000D01*
X129540000Y-115570000D02*
X139700000Y-105410000D01*
X121920000Y-115570000D02*
X129540000Y-115570000D01*
X154940000Y-119380000D02*
X154940000Y-115570000D01*
X156190001Y-114319999D02*
X166350001Y-114319999D01*
X154940000Y-115570000D02*
X156190001Y-114319999D01*
X166350001Y-114319999D02*
X167640000Y-113030000D01*
X168870000Y-112990000D02*
X168910000Y-113030000D01*
X168870000Y-112450000D02*
X168870000Y-112990000D01*
X142240000Y-113260000D02*
X143550000Y-111950000D01*
X142240000Y-119380000D02*
X142240000Y-113260000D01*
X142240000Y-110640000D02*
X143550000Y-111950000D01*
X142240000Y-110490000D02*
X142240000Y-110640000D01*
X161868998Y-110490000D02*
X162560000Y-110490000D01*
X145860000Y-111950000D02*
X143550000Y-111950000D01*
X147320000Y-110490000D02*
X145860000Y-111950000D01*
X151130000Y-110490000D02*
X147320000Y-110490000D01*
X153670000Y-107950000D02*
X151130000Y-110490000D01*
X152400000Y-102870000D02*
X153670000Y-104140000D01*
X157480000Y-99060000D02*
X152400000Y-99060000D01*
X153670000Y-104140000D02*
X153670000Y-107950000D01*
X157480000Y-107950000D02*
X157480000Y-99060000D01*
X152400000Y-99060000D02*
X152400000Y-102870000D01*
X160020000Y-110490000D02*
X157480000Y-107950000D01*
X162560000Y-110490000D02*
X160020000Y-110490000D01*
X152400000Y-116300000D02*
X148550000Y-112450000D01*
X152400000Y-119380000D02*
X152400000Y-116300000D01*
X148550000Y-112450000D02*
X151710000Y-112450000D01*
X154940000Y-109220000D02*
X154940000Y-101600000D01*
X151710000Y-112450000D02*
X154940000Y-109220000D01*
X137160000Y-99060000D02*
X139700000Y-96520000D01*
X137160000Y-101600000D02*
X137160000Y-99060000D01*
X165100000Y-116840000D02*
X167640000Y-119380000D01*
X165100000Y-115570000D02*
X165100000Y-116840000D01*
X169545000Y-106045000D02*
X165100000Y-101600000D01*
X173990000Y-106045000D02*
X169545000Y-106045000D01*
X173990000Y-115570000D02*
X173990000Y-106045000D01*
X165100000Y-115570000D02*
X173990000Y-115570000D01*
D15*
X161300569Y-119990000D02*
X161279431Y-119990000D01*
X161290000Y-119964485D01*
X161300569Y-119990000D01*
G04 #@! TA.AperFunction,NonConductor*
D16*
G36*
X161300569Y-119990000D02*
G01*
X161279431Y-119990000D01*
X161290000Y-119964485D01*
X161300569Y-119990000D01*
G37*
G04 #@! TD.AperFunction*
D15*
X156220569Y-119990000D02*
X156199431Y-119990000D01*
X156210000Y-119964485D01*
X156220569Y-119990000D01*
G04 #@! TA.AperFunction,NonConductor*
D16*
G36*
X156220569Y-119990000D02*
G01*
X156199431Y-119990000D01*
X156210000Y-119964485D01*
X156220569Y-119990000D01*
G37*
G04 #@! TD.AperFunction*
D15*
X166380569Y-119990000D02*
X166359431Y-119990000D01*
X166370000Y-119964485D01*
X166380569Y-119990000D01*
G04 #@! TA.AperFunction,NonConductor*
D16*
G36*
X166380569Y-119990000D02*
G01*
X166359431Y-119990000D01*
X166370000Y-119964485D01*
X166380569Y-119990000D01*
G37*
G04 #@! TD.AperFunction*
D15*
X163840569Y-119990000D02*
X163819431Y-119990000D01*
X163830000Y-119964485D01*
X163840569Y-119990000D01*
G04 #@! TA.AperFunction,NonConductor*
D16*
G36*
X163840569Y-119990000D02*
G01*
X163819431Y-119990000D01*
X163830000Y-119964485D01*
X163840569Y-119990000D01*
G37*
G04 #@! TD.AperFunction*
D15*
X140980569Y-119990000D02*
X140959431Y-119990000D01*
X140970000Y-119964485D01*
X140980569Y-119990000D01*
G04 #@! TA.AperFunction,NonConductor*
D16*
G36*
X140980569Y-119990000D02*
G01*
X140959431Y-119990000D01*
X140970000Y-119964485D01*
X140980569Y-119990000D01*
G37*
G04 #@! TD.AperFunction*
D15*
X143520569Y-119990000D02*
X143499431Y-119990000D01*
X143510000Y-119964485D01*
X143520569Y-119990000D01*
G04 #@! TA.AperFunction,NonConductor*
D16*
G36*
X143520569Y-119990000D02*
G01*
X143499431Y-119990000D01*
X143510000Y-119964485D01*
X143520569Y-119990000D01*
G37*
G04 #@! TD.AperFunction*
D15*
X146060569Y-119990000D02*
X146039431Y-119990000D01*
X146050000Y-119964485D01*
X146060569Y-119990000D01*
G04 #@! TA.AperFunction,NonConductor*
D16*
G36*
X146060569Y-119990000D02*
G01*
X146039431Y-119990000D01*
X146050000Y-119964485D01*
X146060569Y-119990000D01*
G37*
G04 #@! TD.AperFunction*
D15*
X148600569Y-119990000D02*
X148579431Y-119990000D01*
X148590000Y-119964485D01*
X148600569Y-119990000D01*
G04 #@! TA.AperFunction,NonConductor*
D16*
G36*
X148600569Y-119990000D02*
G01*
X148579431Y-119990000D01*
X148590000Y-119964485D01*
X148600569Y-119990000D01*
G37*
G04 #@! TD.AperFunction*
D15*
X151140569Y-119990000D02*
X151119431Y-119990000D01*
X151130000Y-119964485D01*
X151140569Y-119990000D01*
G04 #@! TA.AperFunction,NonConductor*
D16*
G36*
X151140569Y-119990000D02*
G01*
X151119431Y-119990000D01*
X151130000Y-119964485D01*
X151140569Y-119990000D01*
G37*
G04 #@! TD.AperFunction*
D15*
X153680569Y-119990000D02*
X153659431Y-119990000D01*
X153670000Y-119964485D01*
X153680569Y-119990000D01*
G04 #@! TA.AperFunction,NonConductor*
D16*
G36*
X153680569Y-119990000D02*
G01*
X153659431Y-119990000D01*
X153670000Y-119964485D01*
X153680569Y-119990000D01*
G37*
G04 #@! TD.AperFunction*
D15*
X158760569Y-119990000D02*
X158739431Y-119990000D01*
X158750000Y-119964485D01*
X158760569Y-119990000D01*
G04 #@! TA.AperFunction,NonConductor*
D16*
G36*
X158760569Y-119990000D02*
G01*
X158739431Y-119990000D01*
X158750000Y-119964485D01*
X158760569Y-119990000D01*
G37*
G04 #@! TD.AperFunction*
D15*
X169274545Y-95948909D02*
X169625208Y-96054780D01*
X169948625Y-96226744D01*
X170232484Y-96458254D01*
X170465965Y-96740486D01*
X170640183Y-97062695D01*
X170748502Y-97412614D01*
X170790000Y-97807443D01*
X170790000Y-98392581D01*
X170786807Y-98425000D01*
X170799550Y-98554383D01*
X170837290Y-98678793D01*
X170898575Y-98793450D01*
X170981052Y-98893948D01*
X171081550Y-98976425D01*
X171196207Y-99037710D01*
X171320617Y-99075450D01*
X171417581Y-99085000D01*
X171450000Y-99088193D01*
X171482419Y-99085000D01*
X173957723Y-99085000D01*
X174231204Y-99111815D01*
X174463226Y-99181867D01*
X174677222Y-99295650D01*
X174865041Y-99448832D01*
X175019530Y-99635577D01*
X175134801Y-99848769D01*
X175206472Y-100080300D01*
X175235001Y-100351734D01*
X175235000Y-115537722D01*
X175208185Y-115811205D01*
X175138133Y-116043226D01*
X175024350Y-116257222D01*
X174871169Y-116445039D01*
X174684424Y-116599529D01*
X174471231Y-116714802D01*
X174239701Y-116786472D01*
X173968276Y-116815000D01*
X171482419Y-116815000D01*
X171450000Y-116811807D01*
X171368886Y-116819796D01*
X171320617Y-116824550D01*
X171196207Y-116862290D01*
X171081550Y-116923575D01*
X170981052Y-117006052D01*
X170898575Y-117106550D01*
X170837290Y-117221207D01*
X170799550Y-117345617D01*
X170786807Y-117475000D01*
X170790000Y-117507419D01*
X170790000Y-118077721D01*
X170751091Y-118474545D01*
X170645220Y-118825206D01*
X170473257Y-119148623D01*
X170241748Y-119432482D01*
X169959514Y-119665965D01*
X169637304Y-119840184D01*
X169287385Y-119948502D01*
X168899744Y-119989245D01*
X168983314Y-119787490D01*
X169037000Y-119517592D01*
X169037000Y-119242408D01*
X168983314Y-118972510D01*
X168878005Y-118718273D01*
X168725120Y-118489465D01*
X168530535Y-118294880D01*
X168301727Y-118141995D01*
X168047490Y-118036686D01*
X167777592Y-117983000D01*
X167502408Y-117983000D01*
X167436898Y-117996031D01*
X166070132Y-116629264D01*
X166214637Y-116484759D01*
X166267930Y-116405000D01*
X173948981Y-116405000D01*
X173990000Y-116409040D01*
X174031018Y-116405000D01*
X174031019Y-116405000D01*
X174153689Y-116392918D01*
X174311087Y-116345172D01*
X174456146Y-116267636D01*
X174583291Y-116163291D01*
X174687636Y-116036146D01*
X174765172Y-115891087D01*
X174812918Y-115733689D01*
X174814722Y-115715371D01*
X174825000Y-115611019D01*
X174825000Y-115611018D01*
X174829040Y-115570000D01*
X174825000Y-115528981D01*
X174825000Y-106086019D01*
X174829040Y-106045000D01*
X174812918Y-105881311D01*
X174765172Y-105723913D01*
X174687636Y-105578854D01*
X174583291Y-105451709D01*
X174456146Y-105347364D01*
X174311087Y-105269828D01*
X174153689Y-105222082D01*
X174031019Y-105210000D01*
X173990000Y-105205960D01*
X173948982Y-105210000D01*
X169890868Y-105210000D01*
X166516285Y-101835418D01*
X166535000Y-101741335D01*
X166535000Y-101458665D01*
X166479853Y-101181426D01*
X166371680Y-100920273D01*
X166214637Y-100685241D01*
X166014759Y-100485363D01*
X165779727Y-100328320D01*
X165518574Y-100220147D01*
X165241335Y-100165000D01*
X164958665Y-100165000D01*
X164681426Y-100220147D01*
X164420273Y-100328320D01*
X164185241Y-100485363D01*
X163985363Y-100685241D01*
X163828320Y-100920273D01*
X163720147Y-101181426D01*
X163665000Y-101458665D01*
X163665000Y-101741335D01*
X163720147Y-102018574D01*
X163828320Y-102279727D01*
X163985363Y-102514759D01*
X164185241Y-102714637D01*
X164420273Y-102871680D01*
X164681426Y-102979853D01*
X164958665Y-103035000D01*
X165241335Y-103035000D01*
X165335418Y-103016285D01*
X168925559Y-106606427D01*
X168951709Y-106638291D01*
X169078854Y-106742636D01*
X169223913Y-106820172D01*
X169381311Y-106867918D01*
X169503981Y-106880000D01*
X169503991Y-106880000D01*
X169544999Y-106884039D01*
X169586007Y-106880000D01*
X170384538Y-106880000D01*
X170277107Y-106987431D01*
X170111856Y-107234747D01*
X169998029Y-107509549D01*
X169940000Y-107801278D01*
X169940000Y-108098722D01*
X169998029Y-108390451D01*
X170111856Y-108665253D01*
X170277107Y-108912569D01*
X170487431Y-109122893D01*
X170734747Y-109288144D01*
X171009549Y-109401971D01*
X171301278Y-109460000D01*
X171598722Y-109460000D01*
X171890451Y-109401971D01*
X172165253Y-109288144D01*
X172412569Y-109122893D01*
X172622893Y-108912569D01*
X172788144Y-108665253D01*
X172901971Y-108390451D01*
X172960000Y-108098722D01*
X172960000Y-107801278D01*
X172901971Y-107509549D01*
X172788144Y-107234747D01*
X172622893Y-106987431D01*
X172515462Y-106880000D01*
X173155001Y-106880000D01*
X173155000Y-114735000D01*
X169378877Y-114735000D01*
X169399624Y-114727088D01*
X169423373Y-114722364D01*
X169555252Y-114667738D01*
X169699658Y-114612668D01*
X169721860Y-114598727D01*
X169743673Y-114589692D01*
X169859422Y-114512351D01*
X169993266Y-114428309D01*
X170012750Y-114409900D01*
X170031935Y-114397081D01*
X170128110Y-114300906D01*
X170245267Y-114190214D01*
X170261095Y-114167921D01*
X170277081Y-114151935D01*
X170351141Y-114041097D01*
X170445974Y-113907530D01*
X170457329Y-113882176D01*
X170469692Y-113863673D01*
X170519893Y-113742478D01*
X170587677Y-113591122D01*
X170593946Y-113563697D01*
X170602364Y-113543373D01*
X170627668Y-113416160D01*
X170664928Y-113253149D01*
X170665732Y-113224800D01*
X170670000Y-113203345D01*
X170670000Y-113074391D01*
X170672297Y-112993435D01*
X170670000Y-112960586D01*
X170670000Y-112856655D01*
X170658793Y-112800313D01*
X170619682Y-112240989D01*
X170576241Y-111984829D01*
X170452706Y-111660896D01*
X170268347Y-111367288D01*
X170030252Y-111115287D01*
X169747568Y-110914580D01*
X169431160Y-110772877D01*
X169093187Y-110695626D01*
X168746638Y-110685793D01*
X168404829Y-110743759D01*
X168080896Y-110867294D01*
X167787288Y-111051653D01*
X167535287Y-111289748D01*
X167334580Y-111572432D01*
X167192877Y-111888840D01*
X167115626Y-112226813D01*
X167111172Y-112383806D01*
X167078570Y-112410562D01*
X166004134Y-113484999D01*
X164740629Y-113484999D01*
X164742934Y-113483458D01*
X164776767Y-113467592D01*
X164875292Y-113395020D01*
X164991935Y-113317081D01*
X165022228Y-113286788D01*
X165055905Y-113261982D01*
X165148211Y-113160805D01*
X165237081Y-113071935D01*
X165258407Y-113040019D01*
X165289567Y-113005864D01*
X165367819Y-112876273D01*
X165429692Y-112783673D01*
X165442708Y-112752251D01*
X165468773Y-112709084D01*
X165524907Y-112553803D01*
X165562364Y-112463373D01*
X165568196Y-112434054D01*
X165586636Y-112383044D01*
X165613273Y-112207437D01*
X165630000Y-112123345D01*
X165630000Y-112097163D01*
X165638629Y-112040275D01*
X165630000Y-111852074D01*
X165630000Y-111776655D01*
X165625506Y-111754063D01*
X165622750Y-111693950D01*
X165575498Y-111502657D01*
X165562364Y-111436627D01*
X165554496Y-111417632D01*
X165539612Y-111357376D01*
X165453322Y-111173374D01*
X165429692Y-111116327D01*
X165419215Y-111100648D01*
X165392410Y-111043489D01*
X165269807Y-110877043D01*
X165237081Y-110828065D01*
X165193189Y-110784173D01*
X163810086Y-109248083D01*
X163618145Y-109072971D01*
X163321365Y-108893765D01*
X162995324Y-108775901D01*
X162652556Y-108723909D01*
X162586941Y-108726917D01*
X162628144Y-108665253D01*
X162741971Y-108390451D01*
X162800000Y-108098722D01*
X162800000Y-107801278D01*
X162778080Y-107691076D01*
X163741100Y-107691076D01*
X163741100Y-108208924D01*
X163842127Y-108716822D01*
X164040299Y-109195251D01*
X164328000Y-109625826D01*
X164694174Y-109992000D01*
X165124749Y-110279701D01*
X165603178Y-110477873D01*
X166111076Y-110578900D01*
X166628924Y-110578900D01*
X167136822Y-110477873D01*
X167615251Y-110279701D01*
X168045826Y-109992000D01*
X168412000Y-109625826D01*
X168699701Y-109195251D01*
X168897873Y-108716822D01*
X168998900Y-108208924D01*
X168998900Y-107691076D01*
X168897873Y-107183178D01*
X168699701Y-106704749D01*
X168412000Y-106274174D01*
X168045826Y-105908000D01*
X167615251Y-105620299D01*
X167136822Y-105422127D01*
X166628924Y-105321100D01*
X166111076Y-105321100D01*
X165603178Y-105422127D01*
X165124749Y-105620299D01*
X164694174Y-105908000D01*
X164328000Y-106274174D01*
X164040299Y-106704749D01*
X163842127Y-107183178D01*
X163741100Y-107691076D01*
X162778080Y-107691076D01*
X162741971Y-107509549D01*
X162628144Y-107234747D01*
X162462893Y-106987431D01*
X162252569Y-106777107D01*
X162005253Y-106611856D01*
X161730451Y-106498029D01*
X161438722Y-106440000D01*
X161141278Y-106440000D01*
X160849549Y-106498029D01*
X160574747Y-106611856D01*
X160327431Y-106777107D01*
X160117107Y-106987431D01*
X159951856Y-107234747D01*
X159838029Y-107509549D01*
X159780000Y-107801278D01*
X159780000Y-108098722D01*
X159838029Y-108390451D01*
X159951856Y-108665253D01*
X160117107Y-108912569D01*
X160327431Y-109122893D01*
X160574747Y-109288144D01*
X160849549Y-109401971D01*
X161127617Y-109457283D01*
X161008228Y-109655000D01*
X160365868Y-109655000D01*
X158315000Y-107604133D01*
X158315000Y-99101019D01*
X158319040Y-99060000D01*
X158302918Y-98896311D01*
X158255172Y-98738913D01*
X158177636Y-98593854D01*
X158073291Y-98466709D01*
X157946146Y-98362364D01*
X157801087Y-98284828D01*
X157643689Y-98237082D01*
X157521019Y-98225000D01*
X157480000Y-98220960D01*
X157438982Y-98225000D01*
X152441018Y-98225000D01*
X152400000Y-98220960D01*
X152358981Y-98225000D01*
X152236311Y-98237082D01*
X152078913Y-98284828D01*
X151933854Y-98362364D01*
X151806709Y-98466709D01*
X151702364Y-98593854D01*
X151624828Y-98738913D01*
X151577082Y-98896311D01*
X151560960Y-99060000D01*
X151565000Y-99101019D01*
X151565001Y-102828972D01*
X151560960Y-102870000D01*
X151577082Y-103033688D01*
X151624828Y-103191086D01*
X151692175Y-103317082D01*
X151702365Y-103336146D01*
X151806710Y-103463291D01*
X151838574Y-103489441D01*
X152835000Y-104485868D01*
X152835001Y-107604131D01*
X152639644Y-107799488D01*
X152581971Y-107509549D01*
X152468144Y-107234747D01*
X152302893Y-106987431D01*
X152092569Y-106777107D01*
X151845253Y-106611856D01*
X151570451Y-106498029D01*
X151278722Y-106440000D01*
X150981278Y-106440000D01*
X150689549Y-106498029D01*
X150414747Y-106611856D01*
X150167431Y-106777107D01*
X149957107Y-106987431D01*
X149791856Y-107234747D01*
X149678029Y-107509549D01*
X149620000Y-107801278D01*
X149620000Y-108098722D01*
X149678029Y-108390451D01*
X149791856Y-108665253D01*
X149957107Y-108912569D01*
X150167431Y-109122893D01*
X150414747Y-109288144D01*
X150689549Y-109401971D01*
X150979489Y-109459644D01*
X150784133Y-109655000D01*
X148062826Y-109655000D01*
X148092000Y-109625826D01*
X148379701Y-109195251D01*
X148577873Y-108716822D01*
X148678900Y-108208924D01*
X148678900Y-107691076D01*
X148577873Y-107183178D01*
X148379701Y-106704749D01*
X148092000Y-106274174D01*
X147725826Y-105908000D01*
X147295251Y-105620299D01*
X146816822Y-105422127D01*
X146308924Y-105321100D01*
X145791076Y-105321100D01*
X145283178Y-105422127D01*
X144804749Y-105620299D01*
X144374174Y-105908000D01*
X144008000Y-106274174D01*
X143720299Y-106704749D01*
X143522127Y-107183178D01*
X143421100Y-107691076D01*
X143421100Y-108208924D01*
X143522127Y-108716822D01*
X143720299Y-109195251D01*
X144008000Y-109625826D01*
X144374174Y-109992000D01*
X144804749Y-110279701D01*
X145283178Y-110477873D01*
X145791076Y-110578900D01*
X146050232Y-110578900D01*
X145514133Y-111115000D01*
X145108805Y-111115000D01*
X145099215Y-111100648D01*
X145072410Y-111043489D01*
X144949807Y-110877043D01*
X144917081Y-110828065D01*
X144873189Y-110784173D01*
X143490086Y-109248083D01*
X143298145Y-109072971D01*
X143001365Y-108893765D01*
X142675324Y-108775901D01*
X142332556Y-108723909D01*
X142266941Y-108726917D01*
X142308144Y-108665253D01*
X142421971Y-108390451D01*
X142480000Y-108098722D01*
X142480000Y-107801278D01*
X142421971Y-107509549D01*
X142308144Y-107234747D01*
X142142893Y-106987431D01*
X141932569Y-106777107D01*
X141685253Y-106611856D01*
X141410451Y-106498029D01*
X141118722Y-106440000D01*
X140821278Y-106440000D01*
X140529549Y-106498029D01*
X140254747Y-106611856D01*
X140007431Y-106777107D01*
X139797107Y-106987431D01*
X139631856Y-107234747D01*
X139518029Y-107509549D01*
X139460000Y-107801278D01*
X139460000Y-108098722D01*
X139518029Y-108390451D01*
X139631856Y-108665253D01*
X139797107Y-108912569D01*
X140007431Y-109122893D01*
X140254747Y-109288144D01*
X140529549Y-109401971D01*
X140807617Y-109457283D01*
X140643765Y-109728635D01*
X140525901Y-110054676D01*
X140473909Y-110397444D01*
X140489788Y-110743769D01*
X140572925Y-111080343D01*
X140720128Y-111394229D01*
X140874218Y-111603423D01*
X141746709Y-112572423D01*
X141678574Y-112640559D01*
X141646710Y-112666709D01*
X141611934Y-112709084D01*
X141542364Y-112793855D01*
X141464828Y-112938914D01*
X141417082Y-113096312D01*
X141400960Y-113260000D01*
X141405001Y-113301028D01*
X141405000Y-118257772D01*
X141349465Y-118294880D01*
X141154880Y-118489465D01*
X141001995Y-118718273D01*
X140970000Y-118795515D01*
X140938005Y-118718273D01*
X140785120Y-118489465D01*
X140590535Y-118294880D01*
X140361727Y-118141995D01*
X140107490Y-118036686D01*
X139837592Y-117983000D01*
X139562408Y-117983000D01*
X139292510Y-118036686D01*
X139038273Y-118141995D01*
X138809465Y-118294880D01*
X138614880Y-118489465D01*
X138461995Y-118718273D01*
X138356686Y-118972510D01*
X138303000Y-119242408D01*
X138303000Y-119517592D01*
X138356686Y-119787490D01*
X138439650Y-119987781D01*
X138065455Y-119951091D01*
X137714794Y-119845220D01*
X137391377Y-119673257D01*
X137107518Y-119441748D01*
X136874035Y-119159514D01*
X136699816Y-118837304D01*
X136591498Y-118487385D01*
X136550000Y-118092557D01*
X136550000Y-117507419D01*
X136553193Y-117475000D01*
X136540450Y-117345617D01*
X136502710Y-117221207D01*
X136441425Y-117106550D01*
X136358948Y-117006052D01*
X136258450Y-116923575D01*
X136143793Y-116862290D01*
X136019383Y-116824550D01*
X135971114Y-116819796D01*
X135890000Y-116811807D01*
X135857581Y-116815000D01*
X118142277Y-116815000D01*
X117868795Y-116788185D01*
X117636774Y-116718133D01*
X117422778Y-116604350D01*
X117234961Y-116451169D01*
X117080471Y-116264424D01*
X116965198Y-116051231D01*
X116893528Y-115819701D01*
X116865000Y-115548276D01*
X116865000Y-101293421D01*
X116890169Y-101331089D01*
X117108911Y-101549831D01*
X117366124Y-101721695D01*
X117651923Y-101840077D01*
X117955326Y-101900427D01*
X118264674Y-101900427D01*
X118568077Y-101840077D01*
X118853876Y-101721695D01*
X119111089Y-101549831D01*
X119329831Y-101331089D01*
X119501695Y-101073876D01*
X119620077Y-100788077D01*
X119680427Y-100484674D01*
X119680427Y-100175326D01*
X119620077Y-99871923D01*
X119501695Y-99586124D01*
X119329831Y-99328911D01*
X119111089Y-99110169D01*
X119073421Y-99085000D01*
X135857581Y-99085000D01*
X135890000Y-99088193D01*
X135922419Y-99085000D01*
X136019383Y-99075450D01*
X136143793Y-99037710D01*
X136258450Y-98976425D01*
X136335412Y-98913263D01*
X136320960Y-99060000D01*
X136325001Y-99101028D01*
X136325000Y-100432070D01*
X136245241Y-100485363D01*
X136045363Y-100685241D01*
X135888320Y-100920273D01*
X135780147Y-101181426D01*
X135725000Y-101458665D01*
X135725000Y-101741335D01*
X135780147Y-102018574D01*
X135888320Y-102279727D01*
X136045363Y-102514759D01*
X136245241Y-102714637D01*
X136480273Y-102871680D01*
X136741426Y-102979853D01*
X137018665Y-103035000D01*
X137301335Y-103035000D01*
X137578574Y-102979853D01*
X137839727Y-102871680D01*
X138074759Y-102714637D01*
X138274637Y-102514759D01*
X138431680Y-102279727D01*
X138539853Y-102018574D01*
X138595000Y-101741335D01*
X138595000Y-101458665D01*
X138539853Y-101181426D01*
X138431680Y-100920273D01*
X138274637Y-100685241D01*
X138074759Y-100485363D01*
X137995000Y-100432070D01*
X137995000Y-99405867D01*
X139496898Y-97903969D01*
X139562408Y-97917000D01*
X139837592Y-97917000D01*
X140107490Y-97863314D01*
X140361727Y-97758005D01*
X140590535Y-97605120D01*
X140785120Y-97410535D01*
X140938005Y-97181727D01*
X140970000Y-97104485D01*
X141001995Y-97181727D01*
X141154880Y-97410535D01*
X141349465Y-97605120D01*
X141405001Y-97642228D01*
X141405000Y-99984131D01*
X137868581Y-103520552D01*
X137868570Y-103520561D01*
X129780125Y-111609008D01*
X129628347Y-111367288D01*
X129390252Y-111115287D01*
X129107568Y-110914580D01*
X128791160Y-110772877D01*
X128453187Y-110695626D01*
X128106638Y-110685793D01*
X127764829Y-110743759D01*
X127440896Y-110867294D01*
X127147288Y-111051653D01*
X126895287Y-111289748D01*
X126694580Y-111572432D01*
X126552877Y-111888840D01*
X126475626Y-112226813D01*
X126468257Y-112486526D01*
X126510000Y-113083492D01*
X126510000Y-113203345D01*
X126542760Y-113368039D01*
X126564313Y-113495133D01*
X126572104Y-113515563D01*
X126577636Y-113543373D01*
X126641609Y-113697817D01*
X126687848Y-113819066D01*
X126699552Y-113837706D01*
X126710308Y-113863673D01*
X126802378Y-114001465D01*
X126872207Y-114112674D01*
X126887503Y-114128863D01*
X126902919Y-114151935D01*
X127018581Y-114267597D01*
X127110302Y-114364675D01*
X127128775Y-114377791D01*
X127148065Y-114397081D01*
X127281817Y-114486451D01*
X127392986Y-114565382D01*
X127414089Y-114574833D01*
X127436327Y-114589692D01*
X127581992Y-114650028D01*
X127709394Y-114707085D01*
X127732479Y-114712362D01*
X127756627Y-114722364D01*
X127820152Y-114735000D01*
X122755000Y-114735000D01*
X122755000Y-113649997D01*
X122776149Y-113654204D01*
X122797212Y-113661818D01*
X122869724Y-113672817D01*
X123056655Y-113710000D01*
X123114857Y-113710000D01*
X123139981Y-113713811D01*
X123223100Y-113710000D01*
X123403345Y-113710000D01*
X123457337Y-113699260D01*
X123486307Y-113697932D01*
X123578496Y-113675160D01*
X123743373Y-113642364D01*
X123790805Y-113622717D01*
X123822881Y-113614794D01*
X123920829Y-113568859D01*
X124063673Y-113509692D01*
X124102934Y-113483458D01*
X124136767Y-113467592D01*
X124235292Y-113395020D01*
X124351935Y-113317081D01*
X124382228Y-113286788D01*
X124415905Y-113261982D01*
X124508211Y-113160805D01*
X124597081Y-113071935D01*
X124618407Y-113040019D01*
X124649567Y-113005864D01*
X124727819Y-112876273D01*
X124789692Y-112783673D01*
X124802708Y-112752251D01*
X124828773Y-112709084D01*
X124884907Y-112553803D01*
X124922364Y-112463373D01*
X124928196Y-112434054D01*
X124946636Y-112383044D01*
X124973273Y-112207437D01*
X124990000Y-112123345D01*
X124990000Y-112097163D01*
X124998629Y-112040275D01*
X124990000Y-111852074D01*
X124990000Y-111776655D01*
X124985506Y-111754063D01*
X124982750Y-111693950D01*
X124935498Y-111502657D01*
X124922364Y-111436627D01*
X124914496Y-111417632D01*
X124899612Y-111357376D01*
X124813322Y-111173374D01*
X124789692Y-111116327D01*
X124779215Y-111100648D01*
X124752410Y-111043489D01*
X124629807Y-110877043D01*
X124597081Y-110828065D01*
X124553189Y-110784173D01*
X123170086Y-109248083D01*
X122978145Y-109072971D01*
X122681365Y-108893765D01*
X122355324Y-108775901D01*
X122012556Y-108723909D01*
X121946941Y-108726917D01*
X121988144Y-108665253D01*
X122101971Y-108390451D01*
X122160000Y-108098722D01*
X122160000Y-107801278D01*
X122138080Y-107691076D01*
X123101100Y-107691076D01*
X123101100Y-108208924D01*
X123202127Y-108716822D01*
X123400299Y-109195251D01*
X123688000Y-109625826D01*
X124054174Y-109992000D01*
X124484749Y-110279701D01*
X124963178Y-110477873D01*
X125471076Y-110578900D01*
X125988924Y-110578900D01*
X126496822Y-110477873D01*
X126975251Y-110279701D01*
X127405826Y-109992000D01*
X127772000Y-109625826D01*
X128059701Y-109195251D01*
X128257873Y-108716822D01*
X128358900Y-108208924D01*
X128358900Y-107801278D01*
X129300000Y-107801278D01*
X129300000Y-108098722D01*
X129358029Y-108390451D01*
X129471856Y-108665253D01*
X129637107Y-108912569D01*
X129847431Y-109122893D01*
X130094747Y-109288144D01*
X130369549Y-109401971D01*
X130661278Y-109460000D01*
X130958722Y-109460000D01*
X131250451Y-109401971D01*
X131525253Y-109288144D01*
X131772569Y-109122893D01*
X131982893Y-108912569D01*
X132148144Y-108665253D01*
X132261971Y-108390451D01*
X132320000Y-108098722D01*
X132320000Y-107801278D01*
X132261971Y-107509549D01*
X132148144Y-107234747D01*
X131982893Y-106987431D01*
X131772569Y-106777107D01*
X131525253Y-106611856D01*
X131250451Y-106498029D01*
X130958722Y-106440000D01*
X130661278Y-106440000D01*
X130369549Y-106498029D01*
X130094747Y-106611856D01*
X129847431Y-106777107D01*
X129637107Y-106987431D01*
X129471856Y-107234747D01*
X129358029Y-107509549D01*
X129300000Y-107801278D01*
X128358900Y-107801278D01*
X128358900Y-107691076D01*
X128257873Y-107183178D01*
X128059701Y-106704749D01*
X127772000Y-106274174D01*
X127405826Y-105908000D01*
X126975251Y-105620299D01*
X126496822Y-105422127D01*
X125988924Y-105321100D01*
X125471076Y-105321100D01*
X124963178Y-105422127D01*
X124484749Y-105620299D01*
X124054174Y-105908000D01*
X123688000Y-106274174D01*
X123400299Y-106704749D01*
X123202127Y-107183178D01*
X123101100Y-107691076D01*
X122138080Y-107691076D01*
X122101971Y-107509549D01*
X121988144Y-107234747D01*
X121822893Y-106987431D01*
X121612569Y-106777107D01*
X121365253Y-106611856D01*
X121090451Y-106498029D01*
X120798722Y-106440000D01*
X120501278Y-106440000D01*
X120209549Y-106498029D01*
X119934747Y-106611856D01*
X119687431Y-106777107D01*
X119477107Y-106987431D01*
X119311856Y-107234747D01*
X119198029Y-107509549D01*
X119140000Y-107801278D01*
X119140000Y-108098722D01*
X119198029Y-108390451D01*
X119311856Y-108665253D01*
X119477107Y-108912569D01*
X119687431Y-109122893D01*
X119934747Y-109288144D01*
X120209549Y-109401971D01*
X120487617Y-109457283D01*
X120323765Y-109728635D01*
X120205901Y-110054676D01*
X120153909Y-110397444D01*
X120169788Y-110743769D01*
X120252925Y-111080343D01*
X120400128Y-111394229D01*
X120554218Y-111603423D01*
X121085000Y-112192917D01*
X121085001Y-115528971D01*
X121080960Y-115570000D01*
X121097082Y-115733689D01*
X121144828Y-115891087D01*
X121222364Y-116036146D01*
X121326709Y-116163291D01*
X121453854Y-116267636D01*
X121598913Y-116345172D01*
X121756311Y-116392918D01*
X121878981Y-116405000D01*
X121878982Y-116405000D01*
X121920000Y-116409040D01*
X121961019Y-116405000D01*
X129498982Y-116405000D01*
X129540000Y-116409040D01*
X129581018Y-116405000D01*
X129581019Y-116405000D01*
X129703689Y-116392918D01*
X129861087Y-116345172D01*
X130006146Y-116267636D01*
X130133291Y-116163291D01*
X130159446Y-116131421D01*
X140319439Y-105971430D01*
X140319448Y-105971419D01*
X143855869Y-102435000D01*
X146152070Y-102435000D01*
X146205363Y-102514759D01*
X146405241Y-102714637D01*
X146640273Y-102871680D01*
X146901426Y-102979853D01*
X147178665Y-103035000D01*
X147461335Y-103035000D01*
X147738574Y-102979853D01*
X147999727Y-102871680D01*
X148234759Y-102714637D01*
X148434637Y-102514759D01*
X148487930Y-102435000D01*
X149818981Y-102435000D01*
X149860000Y-102439040D01*
X149901018Y-102435000D01*
X149901019Y-102435000D01*
X150023689Y-102422918D01*
X150181087Y-102375172D01*
X150326146Y-102297636D01*
X150453291Y-102193291D01*
X150557636Y-102066146D01*
X150635172Y-101921087D01*
X150682918Y-101763689D01*
X150699040Y-101600000D01*
X150695000Y-101558981D01*
X150695000Y-97642227D01*
X150750535Y-97605120D01*
X150945120Y-97410535D01*
X151098005Y-97181727D01*
X151130000Y-97104485D01*
X151161995Y-97181727D01*
X151314880Y-97410535D01*
X151509465Y-97605120D01*
X151738273Y-97758005D01*
X151992510Y-97863314D01*
X152262408Y-97917000D01*
X152537592Y-97917000D01*
X152807490Y-97863314D01*
X153061727Y-97758005D01*
X153290535Y-97605120D01*
X153485120Y-97410535D01*
X153638005Y-97181727D01*
X153670000Y-97104485D01*
X153701995Y-97181727D01*
X153854880Y-97410535D01*
X154049465Y-97605120D01*
X154278273Y-97758005D01*
X154532510Y-97863314D01*
X154802408Y-97917000D01*
X155077592Y-97917000D01*
X155347490Y-97863314D01*
X155601727Y-97758005D01*
X155830535Y-97605120D01*
X156025120Y-97410535D01*
X156178005Y-97181727D01*
X156210000Y-97104485D01*
X156241995Y-97181727D01*
X156394880Y-97410535D01*
X156589465Y-97605120D01*
X156818273Y-97758005D01*
X157072510Y-97863314D01*
X157342408Y-97917000D01*
X157617592Y-97917000D01*
X157887490Y-97863314D01*
X158141727Y-97758005D01*
X158370535Y-97605120D01*
X158565120Y-97410535D01*
X158718005Y-97181727D01*
X158750000Y-97104485D01*
X158781995Y-97181727D01*
X158934880Y-97410535D01*
X159129465Y-97605120D01*
X159358273Y-97758005D01*
X159612510Y-97863314D01*
X159882408Y-97917000D01*
X160157592Y-97917000D01*
X160427490Y-97863314D01*
X160681727Y-97758005D01*
X160910535Y-97605120D01*
X161105120Y-97410535D01*
X161258005Y-97181727D01*
X161290000Y-97104485D01*
X161321995Y-97181727D01*
X161474880Y-97410535D01*
X161669465Y-97605120D01*
X161898273Y-97758005D01*
X162152510Y-97863314D01*
X162422408Y-97917000D01*
X162697592Y-97917000D01*
X162967490Y-97863314D01*
X163221727Y-97758005D01*
X163450535Y-97605120D01*
X163645120Y-97410535D01*
X163798005Y-97181727D01*
X163830000Y-97104485D01*
X163861995Y-97181727D01*
X164014880Y-97410535D01*
X164209465Y-97605120D01*
X164438273Y-97758005D01*
X164692510Y-97863314D01*
X164962408Y-97917000D01*
X165237592Y-97917000D01*
X165507490Y-97863314D01*
X165761727Y-97758005D01*
X165990535Y-97605120D01*
X166185120Y-97410535D01*
X166338005Y-97181727D01*
X166370000Y-97104485D01*
X166401995Y-97181727D01*
X166554880Y-97410535D01*
X166749465Y-97605120D01*
X166978273Y-97758005D01*
X167232510Y-97863314D01*
X167502408Y-97917000D01*
X167777592Y-97917000D01*
X168047490Y-97863314D01*
X168301727Y-97758005D01*
X168530535Y-97605120D01*
X168725120Y-97410535D01*
X168878005Y-97181727D01*
X168983314Y-96927490D01*
X169037000Y-96657592D01*
X169037000Y-96382408D01*
X168983314Y-96112510D01*
X168900350Y-95912219D01*
X169274545Y-95948909D01*
G04 #@! TA.AperFunction,NonConductor*
D16*
G36*
X169274545Y-95948909D02*
G01*
X169625208Y-96054780D01*
X169948625Y-96226744D01*
X170232484Y-96458254D01*
X170465965Y-96740486D01*
X170640183Y-97062695D01*
X170748502Y-97412614D01*
X170790000Y-97807443D01*
X170790000Y-98392581D01*
X170786807Y-98425000D01*
X170799550Y-98554383D01*
X170837290Y-98678793D01*
X170898575Y-98793450D01*
X170981052Y-98893948D01*
X171081550Y-98976425D01*
X171196207Y-99037710D01*
X171320617Y-99075450D01*
X171417581Y-99085000D01*
X171450000Y-99088193D01*
X171482419Y-99085000D01*
X173957723Y-99085000D01*
X174231204Y-99111815D01*
X174463226Y-99181867D01*
X174677222Y-99295650D01*
X174865041Y-99448832D01*
X175019530Y-99635577D01*
X175134801Y-99848769D01*
X175206472Y-100080300D01*
X175235001Y-100351734D01*
X175235000Y-115537722D01*
X175208185Y-115811205D01*
X175138133Y-116043226D01*
X175024350Y-116257222D01*
X174871169Y-116445039D01*
X174684424Y-116599529D01*
X174471231Y-116714802D01*
X174239701Y-116786472D01*
X173968276Y-116815000D01*
X171482419Y-116815000D01*
X171450000Y-116811807D01*
X171368886Y-116819796D01*
X171320617Y-116824550D01*
X171196207Y-116862290D01*
X171081550Y-116923575D01*
X170981052Y-117006052D01*
X170898575Y-117106550D01*
X170837290Y-117221207D01*
X170799550Y-117345617D01*
X170786807Y-117475000D01*
X170790000Y-117507419D01*
X170790000Y-118077721D01*
X170751091Y-118474545D01*
X170645220Y-118825206D01*
X170473257Y-119148623D01*
X170241748Y-119432482D01*
X169959514Y-119665965D01*
X169637304Y-119840184D01*
X169287385Y-119948502D01*
X168899744Y-119989245D01*
X168983314Y-119787490D01*
X169037000Y-119517592D01*
X169037000Y-119242408D01*
X168983314Y-118972510D01*
X168878005Y-118718273D01*
X168725120Y-118489465D01*
X168530535Y-118294880D01*
X168301727Y-118141995D01*
X168047490Y-118036686D01*
X167777592Y-117983000D01*
X167502408Y-117983000D01*
X167436898Y-117996031D01*
X166070132Y-116629264D01*
X166214637Y-116484759D01*
X166267930Y-116405000D01*
X173948981Y-116405000D01*
X173990000Y-116409040D01*
X174031018Y-116405000D01*
X174031019Y-116405000D01*
X174153689Y-116392918D01*
X174311087Y-116345172D01*
X174456146Y-116267636D01*
X174583291Y-116163291D01*
X174687636Y-116036146D01*
X174765172Y-115891087D01*
X174812918Y-115733689D01*
X174814722Y-115715371D01*
X174825000Y-115611019D01*
X174825000Y-115611018D01*
X174829040Y-115570000D01*
X174825000Y-115528981D01*
X174825000Y-106086019D01*
X174829040Y-106045000D01*
X174812918Y-105881311D01*
X174765172Y-105723913D01*
X174687636Y-105578854D01*
X174583291Y-105451709D01*
X174456146Y-105347364D01*
X174311087Y-105269828D01*
X174153689Y-105222082D01*
X174031019Y-105210000D01*
X173990000Y-105205960D01*
X173948982Y-105210000D01*
X169890868Y-105210000D01*
X166516285Y-101835418D01*
X166535000Y-101741335D01*
X166535000Y-101458665D01*
X166479853Y-101181426D01*
X166371680Y-100920273D01*
X166214637Y-100685241D01*
X166014759Y-100485363D01*
X165779727Y-100328320D01*
X165518574Y-100220147D01*
X165241335Y-100165000D01*
X164958665Y-100165000D01*
X164681426Y-100220147D01*
X164420273Y-100328320D01*
X164185241Y-100485363D01*
X163985363Y-100685241D01*
X163828320Y-100920273D01*
X163720147Y-101181426D01*
X163665000Y-101458665D01*
X163665000Y-101741335D01*
X163720147Y-102018574D01*
X163828320Y-102279727D01*
X163985363Y-102514759D01*
X164185241Y-102714637D01*
X164420273Y-102871680D01*
X164681426Y-102979853D01*
X164958665Y-103035000D01*
X165241335Y-103035000D01*
X165335418Y-103016285D01*
X168925559Y-106606427D01*
X168951709Y-106638291D01*
X169078854Y-106742636D01*
X169223913Y-106820172D01*
X169381311Y-106867918D01*
X169503981Y-106880000D01*
X169503991Y-106880000D01*
X169544999Y-106884039D01*
X169586007Y-106880000D01*
X170384538Y-106880000D01*
X170277107Y-106987431D01*
X170111856Y-107234747D01*
X169998029Y-107509549D01*
X169940000Y-107801278D01*
X169940000Y-108098722D01*
X169998029Y-108390451D01*
X170111856Y-108665253D01*
X170277107Y-108912569D01*
X170487431Y-109122893D01*
X170734747Y-109288144D01*
X171009549Y-109401971D01*
X171301278Y-109460000D01*
X171598722Y-109460000D01*
X171890451Y-109401971D01*
X172165253Y-109288144D01*
X172412569Y-109122893D01*
X172622893Y-108912569D01*
X172788144Y-108665253D01*
X172901971Y-108390451D01*
X172960000Y-108098722D01*
X172960000Y-107801278D01*
X172901971Y-107509549D01*
X172788144Y-107234747D01*
X172622893Y-106987431D01*
X172515462Y-106880000D01*
X173155001Y-106880000D01*
X173155000Y-114735000D01*
X169378877Y-114735000D01*
X169399624Y-114727088D01*
X169423373Y-114722364D01*
X169555252Y-114667738D01*
X169699658Y-114612668D01*
X169721860Y-114598727D01*
X169743673Y-114589692D01*
X169859422Y-114512351D01*
X169993266Y-114428309D01*
X170012750Y-114409900D01*
X170031935Y-114397081D01*
X170128110Y-114300906D01*
X170245267Y-114190214D01*
X170261095Y-114167921D01*
X170277081Y-114151935D01*
X170351141Y-114041097D01*
X170445974Y-113907530D01*
X170457329Y-113882176D01*
X170469692Y-113863673D01*
X170519893Y-113742478D01*
X170587677Y-113591122D01*
X170593946Y-113563697D01*
X170602364Y-113543373D01*
X170627668Y-113416160D01*
X170664928Y-113253149D01*
X170665732Y-113224800D01*
X170670000Y-113203345D01*
X170670000Y-113074391D01*
X170672297Y-112993435D01*
X170670000Y-112960586D01*
X170670000Y-112856655D01*
X170658793Y-112800313D01*
X170619682Y-112240989D01*
X170576241Y-111984829D01*
X170452706Y-111660896D01*
X170268347Y-111367288D01*
X170030252Y-111115287D01*
X169747568Y-110914580D01*
X169431160Y-110772877D01*
X169093187Y-110695626D01*
X168746638Y-110685793D01*
X168404829Y-110743759D01*
X168080896Y-110867294D01*
X167787288Y-111051653D01*
X167535287Y-111289748D01*
X167334580Y-111572432D01*
X167192877Y-111888840D01*
X167115626Y-112226813D01*
X167111172Y-112383806D01*
X167078570Y-112410562D01*
X166004134Y-113484999D01*
X164740629Y-113484999D01*
X164742934Y-113483458D01*
X164776767Y-113467592D01*
X164875292Y-113395020D01*
X164991935Y-113317081D01*
X165022228Y-113286788D01*
X165055905Y-113261982D01*
X165148211Y-113160805D01*
X165237081Y-113071935D01*
X165258407Y-113040019D01*
X165289567Y-113005864D01*
X165367819Y-112876273D01*
X165429692Y-112783673D01*
X165442708Y-112752251D01*
X165468773Y-112709084D01*
X165524907Y-112553803D01*
X165562364Y-112463373D01*
X165568196Y-112434054D01*
X165586636Y-112383044D01*
X165613273Y-112207437D01*
X165630000Y-112123345D01*
X165630000Y-112097163D01*
X165638629Y-112040275D01*
X165630000Y-111852074D01*
X165630000Y-111776655D01*
X165625506Y-111754063D01*
X165622750Y-111693950D01*
X165575498Y-111502657D01*
X165562364Y-111436627D01*
X165554496Y-111417632D01*
X165539612Y-111357376D01*
X165453322Y-111173374D01*
X165429692Y-111116327D01*
X165419215Y-111100648D01*
X165392410Y-111043489D01*
X165269807Y-110877043D01*
X165237081Y-110828065D01*
X165193189Y-110784173D01*
X163810086Y-109248083D01*
X163618145Y-109072971D01*
X163321365Y-108893765D01*
X162995324Y-108775901D01*
X162652556Y-108723909D01*
X162586941Y-108726917D01*
X162628144Y-108665253D01*
X162741971Y-108390451D01*
X162800000Y-108098722D01*
X162800000Y-107801278D01*
X162778080Y-107691076D01*
X163741100Y-107691076D01*
X163741100Y-108208924D01*
X163842127Y-108716822D01*
X164040299Y-109195251D01*
X164328000Y-109625826D01*
X164694174Y-109992000D01*
X165124749Y-110279701D01*
X165603178Y-110477873D01*
X166111076Y-110578900D01*
X166628924Y-110578900D01*
X167136822Y-110477873D01*
X167615251Y-110279701D01*
X168045826Y-109992000D01*
X168412000Y-109625826D01*
X168699701Y-109195251D01*
X168897873Y-108716822D01*
X168998900Y-108208924D01*
X168998900Y-107691076D01*
X168897873Y-107183178D01*
X168699701Y-106704749D01*
X168412000Y-106274174D01*
X168045826Y-105908000D01*
X167615251Y-105620299D01*
X167136822Y-105422127D01*
X166628924Y-105321100D01*
X166111076Y-105321100D01*
X165603178Y-105422127D01*
X165124749Y-105620299D01*
X164694174Y-105908000D01*
X164328000Y-106274174D01*
X164040299Y-106704749D01*
X163842127Y-107183178D01*
X163741100Y-107691076D01*
X162778080Y-107691076D01*
X162741971Y-107509549D01*
X162628144Y-107234747D01*
X162462893Y-106987431D01*
X162252569Y-106777107D01*
X162005253Y-106611856D01*
X161730451Y-106498029D01*
X161438722Y-106440000D01*
X161141278Y-106440000D01*
X160849549Y-106498029D01*
X160574747Y-106611856D01*
X160327431Y-106777107D01*
X160117107Y-106987431D01*
X159951856Y-107234747D01*
X159838029Y-107509549D01*
X159780000Y-107801278D01*
X159780000Y-108098722D01*
X159838029Y-108390451D01*
X159951856Y-108665253D01*
X160117107Y-108912569D01*
X160327431Y-109122893D01*
X160574747Y-109288144D01*
X160849549Y-109401971D01*
X161127617Y-109457283D01*
X161008228Y-109655000D01*
X160365868Y-109655000D01*
X158315000Y-107604133D01*
X158315000Y-99101019D01*
X158319040Y-99060000D01*
X158302918Y-98896311D01*
X158255172Y-98738913D01*
X158177636Y-98593854D01*
X158073291Y-98466709D01*
X157946146Y-98362364D01*
X157801087Y-98284828D01*
X157643689Y-98237082D01*
X157521019Y-98225000D01*
X157480000Y-98220960D01*
X157438982Y-98225000D01*
X152441018Y-98225000D01*
X152400000Y-98220960D01*
X152358981Y-98225000D01*
X152236311Y-98237082D01*
X152078913Y-98284828D01*
X151933854Y-98362364D01*
X151806709Y-98466709D01*
X151702364Y-98593854D01*
X151624828Y-98738913D01*
X151577082Y-98896311D01*
X151560960Y-99060000D01*
X151565000Y-99101019D01*
X151565001Y-102828972D01*
X151560960Y-102870000D01*
X151577082Y-103033688D01*
X151624828Y-103191086D01*
X151692175Y-103317082D01*
X151702365Y-103336146D01*
X151806710Y-103463291D01*
X151838574Y-103489441D01*
X152835000Y-104485868D01*
X152835001Y-107604131D01*
X152639644Y-107799488D01*
X152581971Y-107509549D01*
X152468144Y-107234747D01*
X152302893Y-106987431D01*
X152092569Y-106777107D01*
X151845253Y-106611856D01*
X151570451Y-106498029D01*
X151278722Y-106440000D01*
X150981278Y-106440000D01*
X150689549Y-106498029D01*
X150414747Y-106611856D01*
X150167431Y-106777107D01*
X149957107Y-106987431D01*
X149791856Y-107234747D01*
X149678029Y-107509549D01*
X149620000Y-107801278D01*
X149620000Y-108098722D01*
X149678029Y-108390451D01*
X149791856Y-108665253D01*
X149957107Y-108912569D01*
X150167431Y-109122893D01*
X150414747Y-109288144D01*
X150689549Y-109401971D01*
X150979489Y-109459644D01*
X150784133Y-109655000D01*
X148062826Y-109655000D01*
X148092000Y-109625826D01*
X148379701Y-109195251D01*
X148577873Y-108716822D01*
X148678900Y-108208924D01*
X148678900Y-107691076D01*
X148577873Y-107183178D01*
X148379701Y-106704749D01*
X148092000Y-106274174D01*
X147725826Y-105908000D01*
X147295251Y-105620299D01*
X146816822Y-105422127D01*
X146308924Y-105321100D01*
X145791076Y-105321100D01*
X145283178Y-105422127D01*
X144804749Y-105620299D01*
X144374174Y-105908000D01*
X144008000Y-106274174D01*
X143720299Y-106704749D01*
X143522127Y-107183178D01*
X143421100Y-107691076D01*
X143421100Y-108208924D01*
X143522127Y-108716822D01*
X143720299Y-109195251D01*
X144008000Y-109625826D01*
X144374174Y-109992000D01*
X144804749Y-110279701D01*
X145283178Y-110477873D01*
X145791076Y-110578900D01*
X146050232Y-110578900D01*
X145514133Y-111115000D01*
X145108805Y-111115000D01*
X145099215Y-111100648D01*
X145072410Y-111043489D01*
X144949807Y-110877043D01*
X144917081Y-110828065D01*
X144873189Y-110784173D01*
X143490086Y-109248083D01*
X143298145Y-109072971D01*
X143001365Y-108893765D01*
X142675324Y-108775901D01*
X142332556Y-108723909D01*
X142266941Y-108726917D01*
X142308144Y-108665253D01*
X142421971Y-108390451D01*
X142480000Y-108098722D01*
X142480000Y-107801278D01*
X142421971Y-107509549D01*
X142308144Y-107234747D01*
X142142893Y-106987431D01*
X141932569Y-106777107D01*
X141685253Y-106611856D01*
X141410451Y-106498029D01*
X141118722Y-106440000D01*
X140821278Y-106440000D01*
X140529549Y-106498029D01*
X140254747Y-106611856D01*
X140007431Y-106777107D01*
X139797107Y-106987431D01*
X139631856Y-107234747D01*
X139518029Y-107509549D01*
X139460000Y-107801278D01*
X139460000Y-108098722D01*
X139518029Y-108390451D01*
X139631856Y-108665253D01*
X139797107Y-108912569D01*
X140007431Y-109122893D01*
X140254747Y-109288144D01*
X140529549Y-109401971D01*
X140807617Y-109457283D01*
X140643765Y-109728635D01*
X140525901Y-110054676D01*
X140473909Y-110397444D01*
X140489788Y-110743769D01*
X140572925Y-111080343D01*
X140720128Y-111394229D01*
X140874218Y-111603423D01*
X141746709Y-112572423D01*
X141678574Y-112640559D01*
X141646710Y-112666709D01*
X141611934Y-112709084D01*
X141542364Y-112793855D01*
X141464828Y-112938914D01*
X141417082Y-113096312D01*
X141400960Y-113260000D01*
X141405001Y-113301028D01*
X141405000Y-118257772D01*
X141349465Y-118294880D01*
X141154880Y-118489465D01*
X141001995Y-118718273D01*
X140970000Y-118795515D01*
X140938005Y-118718273D01*
X140785120Y-118489465D01*
X140590535Y-118294880D01*
X140361727Y-118141995D01*
X140107490Y-118036686D01*
X139837592Y-117983000D01*
X139562408Y-117983000D01*
X139292510Y-118036686D01*
X139038273Y-118141995D01*
X138809465Y-118294880D01*
X138614880Y-118489465D01*
X138461995Y-118718273D01*
X138356686Y-118972510D01*
X138303000Y-119242408D01*
X138303000Y-119517592D01*
X138356686Y-119787490D01*
X138439650Y-119987781D01*
X138065455Y-119951091D01*
X137714794Y-119845220D01*
X137391377Y-119673257D01*
X137107518Y-119441748D01*
X136874035Y-119159514D01*
X136699816Y-118837304D01*
X136591498Y-118487385D01*
X136550000Y-118092557D01*
X136550000Y-117507419D01*
X136553193Y-117475000D01*
X136540450Y-117345617D01*
X136502710Y-117221207D01*
X136441425Y-117106550D01*
X136358948Y-117006052D01*
X136258450Y-116923575D01*
X136143793Y-116862290D01*
X136019383Y-116824550D01*
X135971114Y-116819796D01*
X135890000Y-116811807D01*
X135857581Y-116815000D01*
X118142277Y-116815000D01*
X117868795Y-116788185D01*
X117636774Y-116718133D01*
X117422778Y-116604350D01*
X117234961Y-116451169D01*
X117080471Y-116264424D01*
X116965198Y-116051231D01*
X116893528Y-115819701D01*
X116865000Y-115548276D01*
X116865000Y-101293421D01*
X116890169Y-101331089D01*
X117108911Y-101549831D01*
X117366124Y-101721695D01*
X117651923Y-101840077D01*
X117955326Y-101900427D01*
X118264674Y-101900427D01*
X118568077Y-101840077D01*
X118853876Y-101721695D01*
X119111089Y-101549831D01*
X119329831Y-101331089D01*
X119501695Y-101073876D01*
X119620077Y-100788077D01*
X119680427Y-100484674D01*
X119680427Y-100175326D01*
X119620077Y-99871923D01*
X119501695Y-99586124D01*
X119329831Y-99328911D01*
X119111089Y-99110169D01*
X119073421Y-99085000D01*
X135857581Y-99085000D01*
X135890000Y-99088193D01*
X135922419Y-99085000D01*
X136019383Y-99075450D01*
X136143793Y-99037710D01*
X136258450Y-98976425D01*
X136335412Y-98913263D01*
X136320960Y-99060000D01*
X136325001Y-99101028D01*
X136325000Y-100432070D01*
X136245241Y-100485363D01*
X136045363Y-100685241D01*
X135888320Y-100920273D01*
X135780147Y-101181426D01*
X135725000Y-101458665D01*
X135725000Y-101741335D01*
X135780147Y-102018574D01*
X135888320Y-102279727D01*
X136045363Y-102514759D01*
X136245241Y-102714637D01*
X136480273Y-102871680D01*
X136741426Y-102979853D01*
X137018665Y-103035000D01*
X137301335Y-103035000D01*
X137578574Y-102979853D01*
X137839727Y-102871680D01*
X138074759Y-102714637D01*
X138274637Y-102514759D01*
X138431680Y-102279727D01*
X138539853Y-102018574D01*
X138595000Y-101741335D01*
X138595000Y-101458665D01*
X138539853Y-101181426D01*
X138431680Y-100920273D01*
X138274637Y-100685241D01*
X138074759Y-100485363D01*
X137995000Y-100432070D01*
X137995000Y-99405867D01*
X139496898Y-97903969D01*
X139562408Y-97917000D01*
X139837592Y-97917000D01*
X140107490Y-97863314D01*
X140361727Y-97758005D01*
X140590535Y-97605120D01*
X140785120Y-97410535D01*
X140938005Y-97181727D01*
X140970000Y-97104485D01*
X141001995Y-97181727D01*
X141154880Y-97410535D01*
X141349465Y-97605120D01*
X141405001Y-97642228D01*
X141405000Y-99984131D01*
X137868581Y-103520552D01*
X137868570Y-103520561D01*
X129780125Y-111609008D01*
X129628347Y-111367288D01*
X129390252Y-111115287D01*
X129107568Y-110914580D01*
X128791160Y-110772877D01*
X128453187Y-110695626D01*
X128106638Y-110685793D01*
X127764829Y-110743759D01*
X127440896Y-110867294D01*
X127147288Y-111051653D01*
X126895287Y-111289748D01*
X126694580Y-111572432D01*
X126552877Y-111888840D01*
X126475626Y-112226813D01*
X126468257Y-112486526D01*
X126510000Y-113083492D01*
X126510000Y-113203345D01*
X126542760Y-113368039D01*
X126564313Y-113495133D01*
X126572104Y-113515563D01*
X126577636Y-113543373D01*
X126641609Y-113697817D01*
X126687848Y-113819066D01*
X126699552Y-113837706D01*
X126710308Y-113863673D01*
X126802378Y-114001465D01*
X126872207Y-114112674D01*
X126887503Y-114128863D01*
X126902919Y-114151935D01*
X127018581Y-114267597D01*
X127110302Y-114364675D01*
X127128775Y-114377791D01*
X127148065Y-114397081D01*
X127281817Y-114486451D01*
X127392986Y-114565382D01*
X127414089Y-114574833D01*
X127436327Y-114589692D01*
X127581992Y-114650028D01*
X127709394Y-114707085D01*
X127732479Y-114712362D01*
X127756627Y-114722364D01*
X127820152Y-114735000D01*
X122755000Y-114735000D01*
X122755000Y-113649997D01*
X122776149Y-113654204D01*
X122797212Y-113661818D01*
X122869724Y-113672817D01*
X123056655Y-113710000D01*
X123114857Y-113710000D01*
X123139981Y-113713811D01*
X123223100Y-113710000D01*
X123403345Y-113710000D01*
X123457337Y-113699260D01*
X123486307Y-113697932D01*
X123578496Y-113675160D01*
X123743373Y-113642364D01*
X123790805Y-113622717D01*
X123822881Y-113614794D01*
X123920829Y-113568859D01*
X124063673Y-113509692D01*
X124102934Y-113483458D01*
X124136767Y-113467592D01*
X124235292Y-113395020D01*
X124351935Y-113317081D01*
X124382228Y-113286788D01*
X124415905Y-113261982D01*
X124508211Y-113160805D01*
X124597081Y-113071935D01*
X124618407Y-113040019D01*
X124649567Y-113005864D01*
X124727819Y-112876273D01*
X124789692Y-112783673D01*
X124802708Y-112752251D01*
X124828773Y-112709084D01*
X124884907Y-112553803D01*
X124922364Y-112463373D01*
X124928196Y-112434054D01*
X124946636Y-112383044D01*
X124973273Y-112207437D01*
X124990000Y-112123345D01*
X124990000Y-112097163D01*
X124998629Y-112040275D01*
X124990000Y-111852074D01*
X124990000Y-111776655D01*
X124985506Y-111754063D01*
X124982750Y-111693950D01*
X124935498Y-111502657D01*
X124922364Y-111436627D01*
X124914496Y-111417632D01*
X124899612Y-111357376D01*
X124813322Y-111173374D01*
X124789692Y-111116327D01*
X124779215Y-111100648D01*
X124752410Y-111043489D01*
X124629807Y-110877043D01*
X124597081Y-110828065D01*
X124553189Y-110784173D01*
X123170086Y-109248083D01*
X122978145Y-109072971D01*
X122681365Y-108893765D01*
X122355324Y-108775901D01*
X122012556Y-108723909D01*
X121946941Y-108726917D01*
X121988144Y-108665253D01*
X122101971Y-108390451D01*
X122160000Y-108098722D01*
X122160000Y-107801278D01*
X122138080Y-107691076D01*
X123101100Y-107691076D01*
X123101100Y-108208924D01*
X123202127Y-108716822D01*
X123400299Y-109195251D01*
X123688000Y-109625826D01*
X124054174Y-109992000D01*
X124484749Y-110279701D01*
X124963178Y-110477873D01*
X125471076Y-110578900D01*
X125988924Y-110578900D01*
X126496822Y-110477873D01*
X126975251Y-110279701D01*
X127405826Y-109992000D01*
X127772000Y-109625826D01*
X128059701Y-109195251D01*
X128257873Y-108716822D01*
X128358900Y-108208924D01*
X128358900Y-107801278D01*
X129300000Y-107801278D01*
X129300000Y-108098722D01*
X129358029Y-108390451D01*
X129471856Y-108665253D01*
X129637107Y-108912569D01*
X129847431Y-109122893D01*
X130094747Y-109288144D01*
X130369549Y-109401971D01*
X130661278Y-109460000D01*
X130958722Y-109460000D01*
X131250451Y-109401971D01*
X131525253Y-109288144D01*
X131772569Y-109122893D01*
X131982893Y-108912569D01*
X132148144Y-108665253D01*
X132261971Y-108390451D01*
X132320000Y-108098722D01*
X132320000Y-107801278D01*
X132261971Y-107509549D01*
X132148144Y-107234747D01*
X131982893Y-106987431D01*
X131772569Y-106777107D01*
X131525253Y-106611856D01*
X131250451Y-106498029D01*
X130958722Y-106440000D01*
X130661278Y-106440000D01*
X130369549Y-106498029D01*
X130094747Y-106611856D01*
X129847431Y-106777107D01*
X129637107Y-106987431D01*
X129471856Y-107234747D01*
X129358029Y-107509549D01*
X129300000Y-107801278D01*
X128358900Y-107801278D01*
X128358900Y-107691076D01*
X128257873Y-107183178D01*
X128059701Y-106704749D01*
X127772000Y-106274174D01*
X127405826Y-105908000D01*
X126975251Y-105620299D01*
X126496822Y-105422127D01*
X125988924Y-105321100D01*
X125471076Y-105321100D01*
X124963178Y-105422127D01*
X124484749Y-105620299D01*
X124054174Y-105908000D01*
X123688000Y-106274174D01*
X123400299Y-106704749D01*
X123202127Y-107183178D01*
X123101100Y-107691076D01*
X122138080Y-107691076D01*
X122101971Y-107509549D01*
X121988144Y-107234747D01*
X121822893Y-106987431D01*
X121612569Y-106777107D01*
X121365253Y-106611856D01*
X121090451Y-106498029D01*
X120798722Y-106440000D01*
X120501278Y-106440000D01*
X120209549Y-106498029D01*
X119934747Y-106611856D01*
X119687431Y-106777107D01*
X119477107Y-106987431D01*
X119311856Y-107234747D01*
X119198029Y-107509549D01*
X119140000Y-107801278D01*
X119140000Y-108098722D01*
X119198029Y-108390451D01*
X119311856Y-108665253D01*
X119477107Y-108912569D01*
X119687431Y-109122893D01*
X119934747Y-109288144D01*
X120209549Y-109401971D01*
X120487617Y-109457283D01*
X120323765Y-109728635D01*
X120205901Y-110054676D01*
X120153909Y-110397444D01*
X120169788Y-110743769D01*
X120252925Y-111080343D01*
X120400128Y-111394229D01*
X120554218Y-111603423D01*
X121085000Y-112192917D01*
X121085001Y-115528971D01*
X121080960Y-115570000D01*
X121097082Y-115733689D01*
X121144828Y-115891087D01*
X121222364Y-116036146D01*
X121326709Y-116163291D01*
X121453854Y-116267636D01*
X121598913Y-116345172D01*
X121756311Y-116392918D01*
X121878981Y-116405000D01*
X121878982Y-116405000D01*
X121920000Y-116409040D01*
X121961019Y-116405000D01*
X129498982Y-116405000D01*
X129540000Y-116409040D01*
X129581018Y-116405000D01*
X129581019Y-116405000D01*
X129703689Y-116392918D01*
X129861087Y-116345172D01*
X130006146Y-116267636D01*
X130133291Y-116163291D01*
X130159446Y-116131421D01*
X140319439Y-105971430D01*
X140319448Y-105971419D01*
X143855869Y-102435000D01*
X146152070Y-102435000D01*
X146205363Y-102514759D01*
X146405241Y-102714637D01*
X146640273Y-102871680D01*
X146901426Y-102979853D01*
X147178665Y-103035000D01*
X147461335Y-103035000D01*
X147738574Y-102979853D01*
X147999727Y-102871680D01*
X148234759Y-102714637D01*
X148434637Y-102514759D01*
X148487930Y-102435000D01*
X149818981Y-102435000D01*
X149860000Y-102439040D01*
X149901018Y-102435000D01*
X149901019Y-102435000D01*
X150023689Y-102422918D01*
X150181087Y-102375172D01*
X150326146Y-102297636D01*
X150453291Y-102193291D01*
X150557636Y-102066146D01*
X150635172Y-101921087D01*
X150682918Y-101763689D01*
X150699040Y-101600000D01*
X150695000Y-101558981D01*
X150695000Y-97642227D01*
X150750535Y-97605120D01*
X150945120Y-97410535D01*
X151098005Y-97181727D01*
X151130000Y-97104485D01*
X151161995Y-97181727D01*
X151314880Y-97410535D01*
X151509465Y-97605120D01*
X151738273Y-97758005D01*
X151992510Y-97863314D01*
X152262408Y-97917000D01*
X152537592Y-97917000D01*
X152807490Y-97863314D01*
X153061727Y-97758005D01*
X153290535Y-97605120D01*
X153485120Y-97410535D01*
X153638005Y-97181727D01*
X153670000Y-97104485D01*
X153701995Y-97181727D01*
X153854880Y-97410535D01*
X154049465Y-97605120D01*
X154278273Y-97758005D01*
X154532510Y-97863314D01*
X154802408Y-97917000D01*
X155077592Y-97917000D01*
X155347490Y-97863314D01*
X155601727Y-97758005D01*
X155830535Y-97605120D01*
X156025120Y-97410535D01*
X156178005Y-97181727D01*
X156210000Y-97104485D01*
X156241995Y-97181727D01*
X156394880Y-97410535D01*
X156589465Y-97605120D01*
X156818273Y-97758005D01*
X157072510Y-97863314D01*
X157342408Y-97917000D01*
X157617592Y-97917000D01*
X157887490Y-97863314D01*
X158141727Y-97758005D01*
X158370535Y-97605120D01*
X158565120Y-97410535D01*
X158718005Y-97181727D01*
X158750000Y-97104485D01*
X158781995Y-97181727D01*
X158934880Y-97410535D01*
X159129465Y-97605120D01*
X159358273Y-97758005D01*
X159612510Y-97863314D01*
X159882408Y-97917000D01*
X160157592Y-97917000D01*
X160427490Y-97863314D01*
X160681727Y-97758005D01*
X160910535Y-97605120D01*
X161105120Y-97410535D01*
X161258005Y-97181727D01*
X161290000Y-97104485D01*
X161321995Y-97181727D01*
X161474880Y-97410535D01*
X161669465Y-97605120D01*
X161898273Y-97758005D01*
X162152510Y-97863314D01*
X162422408Y-97917000D01*
X162697592Y-97917000D01*
X162967490Y-97863314D01*
X163221727Y-97758005D01*
X163450535Y-97605120D01*
X163645120Y-97410535D01*
X163798005Y-97181727D01*
X163830000Y-97104485D01*
X163861995Y-97181727D01*
X164014880Y-97410535D01*
X164209465Y-97605120D01*
X164438273Y-97758005D01*
X164692510Y-97863314D01*
X164962408Y-97917000D01*
X165237592Y-97917000D01*
X165507490Y-97863314D01*
X165761727Y-97758005D01*
X165990535Y-97605120D01*
X166185120Y-97410535D01*
X166338005Y-97181727D01*
X166370000Y-97104485D01*
X166401995Y-97181727D01*
X166554880Y-97410535D01*
X166749465Y-97605120D01*
X166978273Y-97758005D01*
X167232510Y-97863314D01*
X167502408Y-97917000D01*
X167777592Y-97917000D01*
X168047490Y-97863314D01*
X168301727Y-97758005D01*
X168530535Y-97605120D01*
X168725120Y-97410535D01*
X168878005Y-97181727D01*
X168983314Y-96927490D01*
X169037000Y-96657592D01*
X169037000Y-96382408D01*
X168983314Y-96112510D01*
X168900350Y-95912219D01*
X169274545Y-95948909D01*
G37*
G04 #@! TD.AperFunction*
D15*
X146795626Y-112226813D02*
X146788257Y-112486526D01*
X146830000Y-113083492D01*
X146830000Y-113203345D01*
X146862760Y-113368039D01*
X146884313Y-113495133D01*
X146892104Y-113515563D01*
X146897636Y-113543373D01*
X146961609Y-113697817D01*
X147007848Y-113819066D01*
X147019552Y-113837706D01*
X147030308Y-113863673D01*
X147122378Y-114001465D01*
X147192207Y-114112674D01*
X147207503Y-114128863D01*
X147222919Y-114151935D01*
X147338581Y-114267597D01*
X147430302Y-114364675D01*
X147448775Y-114377791D01*
X147468065Y-114397081D01*
X147601817Y-114486451D01*
X147712986Y-114565382D01*
X147734089Y-114574833D01*
X147756327Y-114589692D01*
X147901992Y-114650028D01*
X148029394Y-114707085D01*
X148052479Y-114712362D01*
X148076627Y-114722364D01*
X148227777Y-114752430D01*
X148367367Y-114784336D01*
X148391643Y-114785025D01*
X148416655Y-114790000D01*
X148566986Y-114790000D01*
X148713916Y-114794169D01*
X148738499Y-114790000D01*
X148763345Y-114790000D01*
X148907036Y-114761418D01*
X149055725Y-114736202D01*
X149079624Y-114727088D01*
X149103373Y-114722364D01*
X149235252Y-114667738D01*
X149379658Y-114612668D01*
X149401860Y-114598727D01*
X149423673Y-114589692D01*
X149474718Y-114555585D01*
X151565001Y-116645869D01*
X151565000Y-118257772D01*
X151509465Y-118294880D01*
X151314880Y-118489465D01*
X151161995Y-118718273D01*
X151130000Y-118795515D01*
X151098005Y-118718273D01*
X150945120Y-118489465D01*
X150750535Y-118294880D01*
X150521727Y-118141995D01*
X150267490Y-118036686D01*
X149997592Y-117983000D01*
X149722408Y-117983000D01*
X149452510Y-118036686D01*
X149198273Y-118141995D01*
X148969465Y-118294880D01*
X148774880Y-118489465D01*
X148621995Y-118718273D01*
X148590000Y-118795515D01*
X148558005Y-118718273D01*
X148405120Y-118489465D01*
X148210535Y-118294880D01*
X147981727Y-118141995D01*
X147727490Y-118036686D01*
X147457592Y-117983000D01*
X147182408Y-117983000D01*
X146912510Y-118036686D01*
X146658273Y-118141995D01*
X146429465Y-118294880D01*
X146234880Y-118489465D01*
X146081995Y-118718273D01*
X146050000Y-118795515D01*
X146018005Y-118718273D01*
X145865120Y-118489465D01*
X145670535Y-118294880D01*
X145441727Y-118141995D01*
X145187490Y-118036686D01*
X144917592Y-117983000D01*
X144642408Y-117983000D01*
X144372510Y-118036686D01*
X144118273Y-118141995D01*
X143889465Y-118294880D01*
X143694880Y-118489465D01*
X143541995Y-118718273D01*
X143510000Y-118795515D01*
X143478005Y-118718273D01*
X143325120Y-118489465D01*
X143130535Y-118294880D01*
X143075000Y-118257773D01*
X143075000Y-113649997D01*
X143096149Y-113654204D01*
X143117212Y-113661818D01*
X143189724Y-113672817D01*
X143376655Y-113710000D01*
X143434857Y-113710000D01*
X143459981Y-113713811D01*
X143543100Y-113710000D01*
X143723345Y-113710000D01*
X143777337Y-113699260D01*
X143806307Y-113697932D01*
X143898496Y-113675160D01*
X144063373Y-113642364D01*
X144110805Y-113622717D01*
X144142881Y-113614794D01*
X144240829Y-113568859D01*
X144383673Y-113509692D01*
X144422934Y-113483458D01*
X144456767Y-113467592D01*
X144555292Y-113395020D01*
X144671935Y-113317081D01*
X144702228Y-113286788D01*
X144735905Y-113261982D01*
X144828211Y-113160805D01*
X144917081Y-113071935D01*
X144938407Y-113040019D01*
X144969567Y-113005864D01*
X145047819Y-112876273D01*
X145108805Y-112785000D01*
X145818982Y-112785000D01*
X145860000Y-112789040D01*
X145901018Y-112785000D01*
X145901019Y-112785000D01*
X146023689Y-112772918D01*
X146181087Y-112725172D01*
X146326146Y-112647636D01*
X146453291Y-112543291D01*
X146479446Y-112511422D01*
X146804981Y-112185887D01*
X146795626Y-112226813D01*
G04 #@! TA.AperFunction,NonConductor*
D16*
G36*
X146795626Y-112226813D02*
G01*
X146788257Y-112486526D01*
X146830000Y-113083492D01*
X146830000Y-113203345D01*
X146862760Y-113368039D01*
X146884313Y-113495133D01*
X146892104Y-113515563D01*
X146897636Y-113543373D01*
X146961609Y-113697817D01*
X147007848Y-113819066D01*
X147019552Y-113837706D01*
X147030308Y-113863673D01*
X147122378Y-114001465D01*
X147192207Y-114112674D01*
X147207503Y-114128863D01*
X147222919Y-114151935D01*
X147338581Y-114267597D01*
X147430302Y-114364675D01*
X147448775Y-114377791D01*
X147468065Y-114397081D01*
X147601817Y-114486451D01*
X147712986Y-114565382D01*
X147734089Y-114574833D01*
X147756327Y-114589692D01*
X147901992Y-114650028D01*
X148029394Y-114707085D01*
X148052479Y-114712362D01*
X148076627Y-114722364D01*
X148227777Y-114752430D01*
X148367367Y-114784336D01*
X148391643Y-114785025D01*
X148416655Y-114790000D01*
X148566986Y-114790000D01*
X148713916Y-114794169D01*
X148738499Y-114790000D01*
X148763345Y-114790000D01*
X148907036Y-114761418D01*
X149055725Y-114736202D01*
X149079624Y-114727088D01*
X149103373Y-114722364D01*
X149235252Y-114667738D01*
X149379658Y-114612668D01*
X149401860Y-114598727D01*
X149423673Y-114589692D01*
X149474718Y-114555585D01*
X151565001Y-116645869D01*
X151565000Y-118257772D01*
X151509465Y-118294880D01*
X151314880Y-118489465D01*
X151161995Y-118718273D01*
X151130000Y-118795515D01*
X151098005Y-118718273D01*
X150945120Y-118489465D01*
X150750535Y-118294880D01*
X150521727Y-118141995D01*
X150267490Y-118036686D01*
X149997592Y-117983000D01*
X149722408Y-117983000D01*
X149452510Y-118036686D01*
X149198273Y-118141995D01*
X148969465Y-118294880D01*
X148774880Y-118489465D01*
X148621995Y-118718273D01*
X148590000Y-118795515D01*
X148558005Y-118718273D01*
X148405120Y-118489465D01*
X148210535Y-118294880D01*
X147981727Y-118141995D01*
X147727490Y-118036686D01*
X147457592Y-117983000D01*
X147182408Y-117983000D01*
X146912510Y-118036686D01*
X146658273Y-118141995D01*
X146429465Y-118294880D01*
X146234880Y-118489465D01*
X146081995Y-118718273D01*
X146050000Y-118795515D01*
X146018005Y-118718273D01*
X145865120Y-118489465D01*
X145670535Y-118294880D01*
X145441727Y-118141995D01*
X145187490Y-118036686D01*
X144917592Y-117983000D01*
X144642408Y-117983000D01*
X144372510Y-118036686D01*
X144118273Y-118141995D01*
X143889465Y-118294880D01*
X143694880Y-118489465D01*
X143541995Y-118718273D01*
X143510000Y-118795515D01*
X143478005Y-118718273D01*
X143325120Y-118489465D01*
X143130535Y-118294880D01*
X143075000Y-118257773D01*
X143075000Y-113649997D01*
X143096149Y-113654204D01*
X143117212Y-113661818D01*
X143189724Y-113672817D01*
X143376655Y-113710000D01*
X143434857Y-113710000D01*
X143459981Y-113713811D01*
X143543100Y-113710000D01*
X143723345Y-113710000D01*
X143777337Y-113699260D01*
X143806307Y-113697932D01*
X143898496Y-113675160D01*
X144063373Y-113642364D01*
X144110805Y-113622717D01*
X144142881Y-113614794D01*
X144240829Y-113568859D01*
X144383673Y-113509692D01*
X144422934Y-113483458D01*
X144456767Y-113467592D01*
X144555292Y-113395020D01*
X144671935Y-113317081D01*
X144702228Y-113286788D01*
X144735905Y-113261982D01*
X144828211Y-113160805D01*
X144917081Y-113071935D01*
X144938407Y-113040019D01*
X144969567Y-113005864D01*
X145047819Y-112876273D01*
X145108805Y-112785000D01*
X145818982Y-112785000D01*
X145860000Y-112789040D01*
X145901018Y-112785000D01*
X145901019Y-112785000D01*
X146023689Y-112772918D01*
X146181087Y-112725172D01*
X146326146Y-112647636D01*
X146453291Y-112543291D01*
X146479446Y-112511422D01*
X146804981Y-112185887D01*
X146795626Y-112226813D01*
G37*
G04 #@! TD.AperFunction*
D15*
X163665000Y-115428665D02*
X163665000Y-115711335D01*
X163720147Y-115988574D01*
X163828320Y-116249727D01*
X163985363Y-116484759D01*
X164185241Y-116684637D01*
X164265001Y-116737931D01*
X164265001Y-116798972D01*
X164260960Y-116840000D01*
X164277082Y-117003688D01*
X164324828Y-117161086D01*
X164402364Y-117306145D01*
X164402365Y-117306146D01*
X164506710Y-117433291D01*
X164538574Y-117459441D01*
X165062133Y-117983000D01*
X164962408Y-117983000D01*
X164692510Y-118036686D01*
X164438273Y-118141995D01*
X164209465Y-118294880D01*
X164014880Y-118489465D01*
X163861995Y-118718273D01*
X163830000Y-118795515D01*
X163798005Y-118718273D01*
X163645120Y-118489465D01*
X163450535Y-118294880D01*
X163221727Y-118141995D01*
X162967490Y-118036686D01*
X162697592Y-117983000D01*
X162422408Y-117983000D01*
X162152510Y-118036686D01*
X161898273Y-118141995D01*
X161669465Y-118294880D01*
X161474880Y-118489465D01*
X161321995Y-118718273D01*
X161290000Y-118795515D01*
X161258005Y-118718273D01*
X161105120Y-118489465D01*
X160910535Y-118294880D01*
X160681727Y-118141995D01*
X160427490Y-118036686D01*
X160157592Y-117983000D01*
X159882408Y-117983000D01*
X159612510Y-118036686D01*
X159358273Y-118141995D01*
X159129465Y-118294880D01*
X158934880Y-118489465D01*
X158781995Y-118718273D01*
X158750000Y-118795515D01*
X158718005Y-118718273D01*
X158565120Y-118489465D01*
X158370535Y-118294880D01*
X158141727Y-118141995D01*
X157887490Y-118036686D01*
X157617592Y-117983000D01*
X157342408Y-117983000D01*
X157072510Y-118036686D01*
X156818273Y-118141995D01*
X156589465Y-118294880D01*
X156394880Y-118489465D01*
X156241995Y-118718273D01*
X156210000Y-118795515D01*
X156178005Y-118718273D01*
X156025120Y-118489465D01*
X155830535Y-118294880D01*
X155775000Y-118257773D01*
X155775000Y-116737930D01*
X155854759Y-116684637D01*
X156054637Y-116484759D01*
X156211680Y-116249727D01*
X156319853Y-115988574D01*
X156375000Y-115711335D01*
X156375000Y-115428665D01*
X156356286Y-115334582D01*
X156535869Y-115154999D01*
X163719436Y-115154999D01*
X163665000Y-115428665D01*
G04 #@! TA.AperFunction,NonConductor*
D16*
G36*
X163665000Y-115428665D02*
G01*
X163665000Y-115711335D01*
X163720147Y-115988574D01*
X163828320Y-116249727D01*
X163985363Y-116484759D01*
X164185241Y-116684637D01*
X164265001Y-116737931D01*
X164265001Y-116798972D01*
X164260960Y-116840000D01*
X164277082Y-117003688D01*
X164324828Y-117161086D01*
X164402364Y-117306145D01*
X164402365Y-117306146D01*
X164506710Y-117433291D01*
X164538574Y-117459441D01*
X165062133Y-117983000D01*
X164962408Y-117983000D01*
X164692510Y-118036686D01*
X164438273Y-118141995D01*
X164209465Y-118294880D01*
X164014880Y-118489465D01*
X163861995Y-118718273D01*
X163830000Y-118795515D01*
X163798005Y-118718273D01*
X163645120Y-118489465D01*
X163450535Y-118294880D01*
X163221727Y-118141995D01*
X162967490Y-118036686D01*
X162697592Y-117983000D01*
X162422408Y-117983000D01*
X162152510Y-118036686D01*
X161898273Y-118141995D01*
X161669465Y-118294880D01*
X161474880Y-118489465D01*
X161321995Y-118718273D01*
X161290000Y-118795515D01*
X161258005Y-118718273D01*
X161105120Y-118489465D01*
X160910535Y-118294880D01*
X160681727Y-118141995D01*
X160427490Y-118036686D01*
X160157592Y-117983000D01*
X159882408Y-117983000D01*
X159612510Y-118036686D01*
X159358273Y-118141995D01*
X159129465Y-118294880D01*
X158934880Y-118489465D01*
X158781995Y-118718273D01*
X158750000Y-118795515D01*
X158718005Y-118718273D01*
X158565120Y-118489465D01*
X158370535Y-118294880D01*
X158141727Y-118141995D01*
X157887490Y-118036686D01*
X157617592Y-117983000D01*
X157342408Y-117983000D01*
X157072510Y-118036686D01*
X156818273Y-118141995D01*
X156589465Y-118294880D01*
X156394880Y-118489465D01*
X156241995Y-118718273D01*
X156210000Y-118795515D01*
X156178005Y-118718273D01*
X156025120Y-118489465D01*
X155830535Y-118294880D01*
X155775000Y-118257773D01*
X155775000Y-116737930D01*
X155854759Y-116684637D01*
X156054637Y-116484759D01*
X156211680Y-116249727D01*
X156319853Y-115988574D01*
X156375000Y-115711335D01*
X156375000Y-115428665D01*
X156356286Y-115334582D01*
X156535869Y-115154999D01*
X163719436Y-115154999D01*
X163665000Y-115428665D01*
G37*
G04 #@! TD.AperFunction*
D15*
X156645000Y-107908981D02*
X156640960Y-107950000D01*
X156645000Y-107991018D01*
X156657082Y-108113688D01*
X156704828Y-108271086D01*
X156782364Y-108416145D01*
X156886709Y-108543291D01*
X156918579Y-108569446D01*
X159400559Y-111051427D01*
X159426709Y-111083291D01*
X159553854Y-111187636D01*
X159698913Y-111265172D01*
X159856311Y-111312918D01*
X159978981Y-111325000D01*
X159978991Y-111325000D01*
X160019999Y-111329039D01*
X160061007Y-111325000D01*
X161007662Y-111325000D01*
X161040128Y-111394229D01*
X161194218Y-111603423D01*
X162463924Y-113013574D01*
X162502919Y-113071935D01*
X162748065Y-113317081D01*
X162800672Y-113352232D01*
X162814392Y-113364749D01*
X162866448Y-113396182D01*
X162999371Y-113484999D01*
X156231008Y-113484999D01*
X156190000Y-113480960D01*
X156148992Y-113484999D01*
X156148982Y-113484999D01*
X156026312Y-113497081D01*
X155868914Y-113544827D01*
X155723855Y-113622363D01*
X155596710Y-113726708D01*
X155570562Y-113758570D01*
X155175418Y-114153714D01*
X155081335Y-114135000D01*
X154798665Y-114135000D01*
X154521426Y-114190147D01*
X154260273Y-114298320D01*
X154025241Y-114455363D01*
X153825363Y-114655241D01*
X153668320Y-114890273D01*
X153560147Y-115151426D01*
X153505000Y-115428665D01*
X153505000Y-115711335D01*
X153560147Y-115988574D01*
X153668320Y-116249727D01*
X153825363Y-116484759D01*
X154025241Y-116684637D01*
X154105001Y-116737931D01*
X154105000Y-118257772D01*
X154049465Y-118294880D01*
X153854880Y-118489465D01*
X153701995Y-118718273D01*
X153670000Y-118795515D01*
X153638005Y-118718273D01*
X153485120Y-118489465D01*
X153290535Y-118294880D01*
X153235000Y-118257773D01*
X153235000Y-116341015D01*
X153239040Y-116299999D01*
X153234102Y-116249867D01*
X153222918Y-116136311D01*
X153175172Y-115978913D01*
X153097636Y-115833854D01*
X152993291Y-115706709D01*
X152961427Y-115680559D01*
X150565867Y-113285000D01*
X151668982Y-113285000D01*
X151710000Y-113289040D01*
X151751018Y-113285000D01*
X151751019Y-113285000D01*
X151873689Y-113272918D01*
X152031087Y-113225172D01*
X152176146Y-113147636D01*
X152303291Y-113043291D01*
X152329446Y-113011421D01*
X155501433Y-109839436D01*
X155533291Y-109813291D01*
X155637636Y-109686146D01*
X155715172Y-109541087D01*
X155762918Y-109383689D01*
X155775000Y-109261019D01*
X155775000Y-109261018D01*
X155779040Y-109220000D01*
X155775000Y-109178982D01*
X155775000Y-102767930D01*
X155854759Y-102714637D01*
X156054637Y-102514759D01*
X156211680Y-102279727D01*
X156319853Y-102018574D01*
X156375000Y-101741335D01*
X156375000Y-101458665D01*
X156319853Y-101181426D01*
X156211680Y-100920273D01*
X156054637Y-100685241D01*
X155854759Y-100485363D01*
X155619727Y-100328320D01*
X155358574Y-100220147D01*
X155081335Y-100165000D01*
X154798665Y-100165000D01*
X154521426Y-100220147D01*
X154260273Y-100328320D01*
X154025241Y-100485363D01*
X153825363Y-100685241D01*
X153668320Y-100920273D01*
X153560147Y-101181426D01*
X153505000Y-101458665D01*
X153505000Y-101741335D01*
X153560147Y-102018574D01*
X153668320Y-102279727D01*
X153825363Y-102514759D01*
X154025241Y-102714637D01*
X154105001Y-102767931D01*
X154105001Y-103394133D01*
X153235000Y-102524133D01*
X153235000Y-99895000D01*
X156645001Y-99895000D01*
X156645000Y-107908981D01*
G04 #@! TA.AperFunction,NonConductor*
D16*
G36*
X156645000Y-107908981D02*
G01*
X156640960Y-107950000D01*
X156645000Y-107991018D01*
X156657082Y-108113688D01*
X156704828Y-108271086D01*
X156782364Y-108416145D01*
X156886709Y-108543291D01*
X156918579Y-108569446D01*
X159400559Y-111051427D01*
X159426709Y-111083291D01*
X159553854Y-111187636D01*
X159698913Y-111265172D01*
X159856311Y-111312918D01*
X159978981Y-111325000D01*
X159978991Y-111325000D01*
X160019999Y-111329039D01*
X160061007Y-111325000D01*
X161007662Y-111325000D01*
X161040128Y-111394229D01*
X161194218Y-111603423D01*
X162463924Y-113013574D01*
X162502919Y-113071935D01*
X162748065Y-113317081D01*
X162800672Y-113352232D01*
X162814392Y-113364749D01*
X162866448Y-113396182D01*
X162999371Y-113484999D01*
X156231008Y-113484999D01*
X156190000Y-113480960D01*
X156148992Y-113484999D01*
X156148982Y-113484999D01*
X156026312Y-113497081D01*
X155868914Y-113544827D01*
X155723855Y-113622363D01*
X155596710Y-113726708D01*
X155570562Y-113758570D01*
X155175418Y-114153714D01*
X155081335Y-114135000D01*
X154798665Y-114135000D01*
X154521426Y-114190147D01*
X154260273Y-114298320D01*
X154025241Y-114455363D01*
X153825363Y-114655241D01*
X153668320Y-114890273D01*
X153560147Y-115151426D01*
X153505000Y-115428665D01*
X153505000Y-115711335D01*
X153560147Y-115988574D01*
X153668320Y-116249727D01*
X153825363Y-116484759D01*
X154025241Y-116684637D01*
X154105001Y-116737931D01*
X154105000Y-118257772D01*
X154049465Y-118294880D01*
X153854880Y-118489465D01*
X153701995Y-118718273D01*
X153670000Y-118795515D01*
X153638005Y-118718273D01*
X153485120Y-118489465D01*
X153290535Y-118294880D01*
X153235000Y-118257773D01*
X153235000Y-116341015D01*
X153239040Y-116299999D01*
X153234102Y-116249867D01*
X153222918Y-116136311D01*
X153175172Y-115978913D01*
X153097636Y-115833854D01*
X152993291Y-115706709D01*
X152961427Y-115680559D01*
X150565867Y-113285000D01*
X151668982Y-113285000D01*
X151710000Y-113289040D01*
X151751018Y-113285000D01*
X151751019Y-113285000D01*
X151873689Y-113272918D01*
X152031087Y-113225172D01*
X152176146Y-113147636D01*
X152303291Y-113043291D01*
X152329446Y-113011421D01*
X155501433Y-109839436D01*
X155533291Y-109813291D01*
X155637636Y-109686146D01*
X155715172Y-109541087D01*
X155762918Y-109383689D01*
X155775000Y-109261019D01*
X155775000Y-109261018D01*
X155779040Y-109220000D01*
X155775000Y-109178982D01*
X155775000Y-102767930D01*
X155854759Y-102714637D01*
X156054637Y-102514759D01*
X156211680Y-102279727D01*
X156319853Y-102018574D01*
X156375000Y-101741335D01*
X156375000Y-101458665D01*
X156319853Y-101181426D01*
X156211680Y-100920273D01*
X156054637Y-100685241D01*
X155854759Y-100485363D01*
X155619727Y-100328320D01*
X155358574Y-100220147D01*
X155081335Y-100165000D01*
X154798665Y-100165000D01*
X154521426Y-100220147D01*
X154260273Y-100328320D01*
X154025241Y-100485363D01*
X153825363Y-100685241D01*
X153668320Y-100920273D01*
X153560147Y-101181426D01*
X153505000Y-101458665D01*
X153505000Y-101741335D01*
X153560147Y-102018574D01*
X153668320Y-102279727D01*
X153825363Y-102514759D01*
X154025241Y-102714637D01*
X154105001Y-102767931D01*
X154105001Y-103394133D01*
X153235000Y-102524133D01*
X153235000Y-99895000D01*
X156645001Y-99895000D01*
X156645000Y-107908981D01*
G37*
G04 #@! TD.AperFunction*
D15*
X148621995Y-97181727D02*
X148774880Y-97410535D01*
X148969465Y-97605120D01*
X149025001Y-97642228D01*
X149025000Y-100765000D01*
X148487930Y-100765000D01*
X148434637Y-100685241D01*
X148234759Y-100485363D01*
X147999727Y-100328320D01*
X147738574Y-100220147D01*
X147461335Y-100165000D01*
X147178665Y-100165000D01*
X146901426Y-100220147D01*
X146640273Y-100328320D01*
X146405241Y-100485363D01*
X146205363Y-100685241D01*
X146152070Y-100765000D01*
X143551018Y-100765000D01*
X143510000Y-100760960D01*
X143468982Y-100765000D01*
X143468981Y-100765000D01*
X143346311Y-100777082D01*
X143188913Y-100824828D01*
X143043854Y-100902364D01*
X142951840Y-100977878D01*
X142916709Y-101006709D01*
X142890563Y-101038568D01*
X139138581Y-104790552D01*
X139138570Y-104790561D01*
X129194133Y-114735000D01*
X128738877Y-114735000D01*
X128759624Y-114727088D01*
X128783373Y-114722364D01*
X128915252Y-114667738D01*
X129059658Y-114612668D01*
X129081860Y-114598727D01*
X129103673Y-114589692D01*
X129219422Y-114512351D01*
X129353266Y-114428309D01*
X129372750Y-114409900D01*
X129391935Y-114397081D01*
X129488110Y-114300906D01*
X129605267Y-114190214D01*
X129621095Y-114167921D01*
X129637081Y-114151935D01*
X129711141Y-114041097D01*
X129805974Y-113907530D01*
X129817329Y-113882176D01*
X129829692Y-113863673D01*
X129879893Y-113742478D01*
X129947677Y-113591122D01*
X129953946Y-113563697D01*
X129962364Y-113543373D01*
X129987668Y-113416160D01*
X130017648Y-113285000D01*
X130078982Y-113285000D01*
X130120000Y-113289040D01*
X130161018Y-113285000D01*
X130161019Y-113285000D01*
X130283689Y-113272918D01*
X130441087Y-113225172D01*
X130586146Y-113147636D01*
X130713291Y-113043291D01*
X130739446Y-113011421D01*
X139049439Y-104701430D01*
X139049448Y-104701419D01*
X142801433Y-100949436D01*
X142833291Y-100923291D01*
X142867990Y-100881011D01*
X142937636Y-100796146D01*
X143015172Y-100651087D01*
X143025431Y-100617267D01*
X143062918Y-100493689D01*
X143075000Y-100371019D01*
X143075000Y-100371018D01*
X143079040Y-100330000D01*
X143075000Y-100288982D01*
X143075000Y-97642227D01*
X143130535Y-97605120D01*
X143325120Y-97410535D01*
X143478005Y-97181727D01*
X143510000Y-97104485D01*
X143541995Y-97181727D01*
X143694880Y-97410535D01*
X143889465Y-97605120D01*
X144118273Y-97758005D01*
X144372510Y-97863314D01*
X144642408Y-97917000D01*
X144917592Y-97917000D01*
X145187490Y-97863314D01*
X145441727Y-97758005D01*
X145670535Y-97605120D01*
X145865120Y-97410535D01*
X146018005Y-97181727D01*
X146050000Y-97104485D01*
X146081995Y-97181727D01*
X146234880Y-97410535D01*
X146429465Y-97605120D01*
X146658273Y-97758005D01*
X146912510Y-97863314D01*
X147182408Y-97917000D01*
X147457592Y-97917000D01*
X147727490Y-97863314D01*
X147981727Y-97758005D01*
X148210535Y-97605120D01*
X148405120Y-97410535D01*
X148558005Y-97181727D01*
X148590000Y-97104485D01*
X148621995Y-97181727D01*
G04 #@! TA.AperFunction,NonConductor*
D16*
G36*
X148621995Y-97181727D02*
G01*
X148774880Y-97410535D01*
X148969465Y-97605120D01*
X149025001Y-97642228D01*
X149025000Y-100765000D01*
X148487930Y-100765000D01*
X148434637Y-100685241D01*
X148234759Y-100485363D01*
X147999727Y-100328320D01*
X147738574Y-100220147D01*
X147461335Y-100165000D01*
X147178665Y-100165000D01*
X146901426Y-100220147D01*
X146640273Y-100328320D01*
X146405241Y-100485363D01*
X146205363Y-100685241D01*
X146152070Y-100765000D01*
X143551018Y-100765000D01*
X143510000Y-100760960D01*
X143468982Y-100765000D01*
X143468981Y-100765000D01*
X143346311Y-100777082D01*
X143188913Y-100824828D01*
X143043854Y-100902364D01*
X142951840Y-100977878D01*
X142916709Y-101006709D01*
X142890563Y-101038568D01*
X139138581Y-104790552D01*
X139138570Y-104790561D01*
X129194133Y-114735000D01*
X128738877Y-114735000D01*
X128759624Y-114727088D01*
X128783373Y-114722364D01*
X128915252Y-114667738D01*
X129059658Y-114612668D01*
X129081860Y-114598727D01*
X129103673Y-114589692D01*
X129219422Y-114512351D01*
X129353266Y-114428309D01*
X129372750Y-114409900D01*
X129391935Y-114397081D01*
X129488110Y-114300906D01*
X129605267Y-114190214D01*
X129621095Y-114167921D01*
X129637081Y-114151935D01*
X129711141Y-114041097D01*
X129805974Y-113907530D01*
X129817329Y-113882176D01*
X129829692Y-113863673D01*
X129879893Y-113742478D01*
X129947677Y-113591122D01*
X129953946Y-113563697D01*
X129962364Y-113543373D01*
X129987668Y-113416160D01*
X130017648Y-113285000D01*
X130078982Y-113285000D01*
X130120000Y-113289040D01*
X130161018Y-113285000D01*
X130161019Y-113285000D01*
X130283689Y-113272918D01*
X130441087Y-113225172D01*
X130586146Y-113147636D01*
X130713291Y-113043291D01*
X130739446Y-113011421D01*
X139049439Y-104701430D01*
X139049448Y-104701419D01*
X142801433Y-100949436D01*
X142833291Y-100923291D01*
X142867990Y-100881011D01*
X142937636Y-100796146D01*
X143015172Y-100651087D01*
X143025431Y-100617267D01*
X143062918Y-100493689D01*
X143075000Y-100371019D01*
X143075000Y-100371018D01*
X143079040Y-100330000D01*
X143075000Y-100288982D01*
X143075000Y-97642227D01*
X143130535Y-97605120D01*
X143325120Y-97410535D01*
X143478005Y-97181727D01*
X143510000Y-97104485D01*
X143541995Y-97181727D01*
X143694880Y-97410535D01*
X143889465Y-97605120D01*
X144118273Y-97758005D01*
X144372510Y-97863314D01*
X144642408Y-97917000D01*
X144917592Y-97917000D01*
X145187490Y-97863314D01*
X145441727Y-97758005D01*
X145670535Y-97605120D01*
X145865120Y-97410535D01*
X146018005Y-97181727D01*
X146050000Y-97104485D01*
X146081995Y-97181727D01*
X146234880Y-97410535D01*
X146429465Y-97605120D01*
X146658273Y-97758005D01*
X146912510Y-97863314D01*
X147182408Y-97917000D01*
X147457592Y-97917000D01*
X147727490Y-97863314D01*
X147981727Y-97758005D01*
X148210535Y-97605120D01*
X148405120Y-97410535D01*
X148558005Y-97181727D01*
X148590000Y-97104485D01*
X148621995Y-97181727D01*
G37*
G04 #@! TD.AperFunction*
D15*
X167658581Y-114267597D02*
X167750302Y-114364675D01*
X167768775Y-114377791D01*
X167788065Y-114397081D01*
X167921817Y-114486451D01*
X168032986Y-114565382D01*
X168054089Y-114574833D01*
X168076327Y-114589692D01*
X168221992Y-114650028D01*
X168349394Y-114707085D01*
X168372479Y-114712362D01*
X168396627Y-114722364D01*
X168460152Y-114735000D01*
X167115867Y-114735000D01*
X167620926Y-114229942D01*
X167658581Y-114267597D01*
G04 #@! TA.AperFunction,NonConductor*
D16*
G36*
X167658581Y-114267597D02*
G01*
X167750302Y-114364675D01*
X167768775Y-114377791D01*
X167788065Y-114397081D01*
X167921817Y-114486451D01*
X168032986Y-114565382D01*
X168054089Y-114574833D01*
X168076327Y-114589692D01*
X168221992Y-114650028D01*
X168349394Y-114707085D01*
X168372479Y-114712362D01*
X168396627Y-114722364D01*
X168460152Y-114735000D01*
X167115867Y-114735000D01*
X167620926Y-114229942D01*
X167658581Y-114267597D01*
G37*
G04 #@! TD.AperFunction*
D15*
X154105000Y-108874131D02*
X151364133Y-111615000D01*
X150103888Y-111615000D01*
X149948347Y-111367288D01*
X149908393Y-111325000D01*
X151088982Y-111325000D01*
X151130000Y-111329040D01*
X151171018Y-111325000D01*
X151171019Y-111325000D01*
X151293689Y-111312918D01*
X151451087Y-111265172D01*
X151596146Y-111187636D01*
X151723291Y-111083291D01*
X151749446Y-111051421D01*
X154105000Y-108695868D01*
X154105000Y-108874131D01*
G04 #@! TA.AperFunction,NonConductor*
D16*
G36*
X154105000Y-108874131D02*
G01*
X151364133Y-111615000D01*
X150103888Y-111615000D01*
X149948347Y-111367288D01*
X149908393Y-111325000D01*
X151088982Y-111325000D01*
X151130000Y-111329040D01*
X151171018Y-111325000D01*
X151171019Y-111325000D01*
X151293689Y-111312918D01*
X151451087Y-111265172D01*
X151596146Y-111187636D01*
X151723291Y-111083291D01*
X151749446Y-111051421D01*
X154105000Y-108695868D01*
X154105000Y-108874131D01*
G37*
G04 #@! TD.AperFunction*
D15*
X138356686Y-96112510D02*
X138303000Y-96382408D01*
X138303000Y-96657592D01*
X138316031Y-96723102D01*
X136598574Y-98440559D01*
X136566710Y-98466709D01*
X136546681Y-98491114D01*
X136553193Y-98425000D01*
X136550000Y-98392581D01*
X136550000Y-97822279D01*
X136588909Y-97425455D01*
X136694780Y-97074792D01*
X136866744Y-96751375D01*
X137098254Y-96467516D01*
X137380486Y-96234035D01*
X137702695Y-96059817D01*
X138052614Y-95951498D01*
X138440256Y-95910755D01*
X138356686Y-96112510D01*
G04 #@! TA.AperFunction,NonConductor*
D16*
G36*
X138356686Y-96112510D02*
G01*
X138303000Y-96382408D01*
X138303000Y-96657592D01*
X138316031Y-96723102D01*
X136598574Y-98440559D01*
X136566710Y-98466709D01*
X136546681Y-98491114D01*
X136553193Y-98425000D01*
X136550000Y-98392581D01*
X136550000Y-97822279D01*
X136588909Y-97425455D01*
X136694780Y-97074792D01*
X136866744Y-96751375D01*
X137098254Y-96467516D01*
X137380486Y-96234035D01*
X137702695Y-96059817D01*
X138052614Y-95951498D01*
X138440256Y-95910755D01*
X138356686Y-96112510D01*
G37*
G04 #@! TD.AperFunction*
D15*
X163830000Y-95935515D02*
X163819431Y-95910000D01*
X163840569Y-95910000D01*
X163830000Y-95935515D01*
G04 #@! TA.AperFunction,NonConductor*
D16*
G36*
X163830000Y-95935515D02*
G01*
X163819431Y-95910000D01*
X163840569Y-95910000D01*
X163830000Y-95935515D01*
G37*
G04 #@! TD.AperFunction*
D15*
X140970000Y-95935515D02*
X140959431Y-95910000D01*
X140980569Y-95910000D01*
X140970000Y-95935515D01*
G04 #@! TA.AperFunction,NonConductor*
D16*
G36*
X140970000Y-95935515D02*
G01*
X140959431Y-95910000D01*
X140980569Y-95910000D01*
X140970000Y-95935515D01*
G37*
G04 #@! TD.AperFunction*
D15*
X143510000Y-95935515D02*
X143499431Y-95910000D01*
X143520569Y-95910000D01*
X143510000Y-95935515D01*
G04 #@! TA.AperFunction,NonConductor*
D16*
G36*
X143510000Y-95935515D02*
G01*
X143499431Y-95910000D01*
X143520569Y-95910000D01*
X143510000Y-95935515D01*
G37*
G04 #@! TD.AperFunction*
D15*
X166370000Y-95935515D02*
X166359431Y-95910000D01*
X166380569Y-95910000D01*
X166370000Y-95935515D01*
G04 #@! TA.AperFunction,NonConductor*
D16*
G36*
X166370000Y-95935515D02*
G01*
X166359431Y-95910000D01*
X166380569Y-95910000D01*
X166370000Y-95935515D01*
G37*
G04 #@! TD.AperFunction*
D15*
X148590000Y-95935515D02*
X148579431Y-95910000D01*
X148600569Y-95910000D01*
X148590000Y-95935515D01*
G04 #@! TA.AperFunction,NonConductor*
D16*
G36*
X148590000Y-95935515D02*
G01*
X148579431Y-95910000D01*
X148600569Y-95910000D01*
X148590000Y-95935515D01*
G37*
G04 #@! TD.AperFunction*
D15*
X161290000Y-95935515D02*
X161279431Y-95910000D01*
X161300569Y-95910000D01*
X161290000Y-95935515D01*
G04 #@! TA.AperFunction,NonConductor*
D16*
G36*
X161290000Y-95935515D02*
G01*
X161279431Y-95910000D01*
X161300569Y-95910000D01*
X161290000Y-95935515D01*
G37*
G04 #@! TD.AperFunction*
D15*
X158750000Y-95935515D02*
X158739431Y-95910000D01*
X158760569Y-95910000D01*
X158750000Y-95935515D01*
G04 #@! TA.AperFunction,NonConductor*
D16*
G36*
X158750000Y-95935515D02*
G01*
X158739431Y-95910000D01*
X158760569Y-95910000D01*
X158750000Y-95935515D01*
G37*
G04 #@! TD.AperFunction*
D15*
X156210000Y-95935515D02*
X156199431Y-95910000D01*
X156220569Y-95910000D01*
X156210000Y-95935515D01*
G04 #@! TA.AperFunction,NonConductor*
D16*
G36*
X156210000Y-95935515D02*
G01*
X156199431Y-95910000D01*
X156220569Y-95910000D01*
X156210000Y-95935515D01*
G37*
G04 #@! TD.AperFunction*
D15*
X153670000Y-95935515D02*
X153659431Y-95910000D01*
X153680569Y-95910000D01*
X153670000Y-95935515D01*
G04 #@! TA.AperFunction,NonConductor*
D16*
G36*
X153670000Y-95935515D02*
G01*
X153659431Y-95910000D01*
X153680569Y-95910000D01*
X153670000Y-95935515D01*
G37*
G04 #@! TD.AperFunction*
D15*
X151130000Y-95935515D02*
X151119431Y-95910000D01*
X151140569Y-95910000D01*
X151130000Y-95935515D01*
G04 #@! TA.AperFunction,NonConductor*
D16*
G36*
X151130000Y-95935515D02*
G01*
X151119431Y-95910000D01*
X151140569Y-95910000D01*
X151130000Y-95935515D01*
G37*
G04 #@! TD.AperFunction*
D15*
X146050000Y-95935515D02*
X146039431Y-95910000D01*
X146060569Y-95910000D01*
X146050000Y-95935515D01*
G04 #@! TA.AperFunction,NonConductor*
D16*
G36*
X146050000Y-95935515D02*
G01*
X146039431Y-95910000D01*
X146060569Y-95910000D01*
X146050000Y-95935515D01*
G37*
G04 #@! TD.AperFunction*
M02*
