G04 #@! TF.GenerationSoftware,KiCad,Pcbnew,(5.1.9)-1*
G04 #@! TF.CreationDate,2021-01-29T19:09:00+08:00*
G04 #@! TF.ProjectId,board,626f6172-642e-46b6-9963-61645f706362,rev?*
G04 #@! TF.SameCoordinates,Original*
G04 #@! TF.FileFunction,Legend,Top*
G04 #@! TF.FilePolarity,Positive*
%FSLAX46Y46*%
G04 Gerber Fmt 4.6, Leading zero omitted, Abs format (unit mm)*
G04 Created by KiCad (PCBNEW (5.1.9)-1) date 2021-01-29 19:09:00*
%MOMM*%
%LPD*%
G01*
G04 APERTURE LIST*
%ADD10C,0.150000*%
%ADD11C,0.010000*%
%ADD12C,0.120000*%
G04 APERTURE END LIST*
D10*
X118937142Y-104592380D02*
X118937142Y-103592380D01*
X119270476Y-104306666D01*
X119603809Y-103592380D01*
X119603809Y-104592380D01*
X120460952Y-104544761D02*
X120365714Y-104592380D01*
X120175238Y-104592380D01*
X120080000Y-104544761D01*
X120032380Y-104449523D01*
X120032380Y-104068571D01*
X120080000Y-103973333D01*
X120175238Y-103925714D01*
X120365714Y-103925714D01*
X120460952Y-103973333D01*
X120508571Y-104068571D01*
X120508571Y-104163809D01*
X120032380Y-104259047D01*
X121365714Y-104544761D02*
X121270476Y-104592380D01*
X121080000Y-104592380D01*
X120984761Y-104544761D01*
X120937142Y-104497142D01*
X120889523Y-104401904D01*
X120889523Y-104116190D01*
X120937142Y-104020952D01*
X120984761Y-103973333D01*
X121080000Y-103925714D01*
X121270476Y-103925714D01*
X121365714Y-103973333D01*
X121794285Y-104592380D02*
X121794285Y-103592380D01*
X122222857Y-104592380D02*
X122222857Y-104068571D01*
X122175238Y-103973333D01*
X122080000Y-103925714D01*
X121937142Y-103925714D01*
X121841904Y-103973333D01*
X121794285Y-104020952D01*
X123127619Y-104592380D02*
X123127619Y-104068571D01*
X123080000Y-103973333D01*
X122984761Y-103925714D01*
X122794285Y-103925714D01*
X122699047Y-103973333D01*
X123127619Y-104544761D02*
X123032380Y-104592380D01*
X122794285Y-104592380D01*
X122699047Y-104544761D01*
X122651428Y-104449523D01*
X122651428Y-104354285D01*
X122699047Y-104259047D01*
X122794285Y-104211428D01*
X123032380Y-104211428D01*
X123127619Y-104163809D01*
X123603809Y-103925714D02*
X123603809Y-104592380D01*
X123603809Y-104020952D02*
X123651428Y-103973333D01*
X123746666Y-103925714D01*
X123889523Y-103925714D01*
X123984761Y-103973333D01*
X124032380Y-104068571D01*
X124032380Y-104592380D01*
X124508571Y-104592380D02*
X124508571Y-103925714D01*
X124508571Y-103592380D02*
X124460952Y-103640000D01*
X124508571Y-103687619D01*
X124556190Y-103640000D01*
X124508571Y-103592380D01*
X124508571Y-103687619D01*
X125413333Y-104544761D02*
X125318095Y-104592380D01*
X125127619Y-104592380D01*
X125032380Y-104544761D01*
X124984761Y-104497142D01*
X124937142Y-104401904D01*
X124937142Y-104116190D01*
X124984761Y-104020952D01*
X125032380Y-103973333D01*
X125127619Y-103925714D01*
X125318095Y-103925714D01*
X125413333Y-103973333D01*
X126270476Y-104592380D02*
X126270476Y-104068571D01*
X126222857Y-103973333D01*
X126127619Y-103925714D01*
X125937142Y-103925714D01*
X125841904Y-103973333D01*
X126270476Y-104544761D02*
X126175238Y-104592380D01*
X125937142Y-104592380D01*
X125841904Y-104544761D01*
X125794285Y-104449523D01*
X125794285Y-104354285D01*
X125841904Y-104259047D01*
X125937142Y-104211428D01*
X126175238Y-104211428D01*
X126270476Y-104163809D01*
X126889523Y-104592380D02*
X126794285Y-104544761D01*
X126746666Y-104449523D01*
X126746666Y-103592380D01*
X128032380Y-104592380D02*
X128032380Y-103592380D01*
X128603809Y-104592380D02*
X128175238Y-104020952D01*
X128603809Y-103592380D02*
X128032380Y-104163809D01*
X129413333Y-104544761D02*
X129318095Y-104592380D01*
X129127619Y-104592380D01*
X129032380Y-104544761D01*
X128984761Y-104449523D01*
X128984761Y-104068571D01*
X129032380Y-103973333D01*
X129127619Y-103925714D01*
X129318095Y-103925714D01*
X129413333Y-103973333D01*
X129460952Y-104068571D01*
X129460952Y-104163809D01*
X128984761Y-104259047D01*
X129794285Y-103925714D02*
X130032380Y-104592380D01*
X130270476Y-103925714D02*
X130032380Y-104592380D01*
X129937142Y-104830476D01*
X129889523Y-104878095D01*
X129794285Y-104925714D01*
X130651428Y-104592380D02*
X130651428Y-103592380D01*
X130651428Y-103973333D02*
X130746666Y-103925714D01*
X130937142Y-103925714D01*
X131032380Y-103973333D01*
X131079999Y-104020952D01*
X131127619Y-104116190D01*
X131127619Y-104401904D01*
X131079999Y-104497142D01*
X131032380Y-104544761D01*
X130937142Y-104592380D01*
X130746666Y-104592380D01*
X130651428Y-104544761D01*
X131699047Y-104592380D02*
X131603809Y-104544761D01*
X131556190Y-104497142D01*
X131508571Y-104401904D01*
X131508571Y-104116190D01*
X131556190Y-104020952D01*
X131603809Y-103973333D01*
X131699047Y-103925714D01*
X131841904Y-103925714D01*
X131937142Y-103973333D01*
X131984761Y-104020952D01*
X132032380Y-104116190D01*
X132032380Y-104401904D01*
X131984761Y-104497142D01*
X131937142Y-104544761D01*
X131841904Y-104592380D01*
X131699047Y-104592380D01*
X132889523Y-104592380D02*
X132889523Y-104068571D01*
X132841904Y-103973333D01*
X132746666Y-103925714D01*
X132556190Y-103925714D01*
X132460952Y-103973333D01*
X132889523Y-104544761D02*
X132794285Y-104592380D01*
X132556190Y-104592380D01*
X132460952Y-104544761D01*
X132413333Y-104449523D01*
X132413333Y-104354285D01*
X132460952Y-104259047D01*
X132556190Y-104211428D01*
X132794285Y-104211428D01*
X132889523Y-104163809D01*
X133365714Y-104592380D02*
X133365714Y-103925714D01*
X133365714Y-104116190D02*
X133413333Y-104020952D01*
X133460952Y-103973333D01*
X133556190Y-103925714D01*
X133651428Y-103925714D01*
X134413333Y-104592380D02*
X134413333Y-103592380D01*
X134413333Y-104544761D02*
X134318095Y-104592380D01*
X134127619Y-104592380D01*
X134032380Y-104544761D01*
X133984761Y-104497142D01*
X133937142Y-104401904D01*
X133937142Y-104116190D01*
X133984761Y-104020952D01*
X134032380Y-103973333D01*
X134127619Y-103925714D01*
X134318095Y-103925714D01*
X134413333Y-103973333D01*
X135651428Y-104592380D02*
X135651428Y-103592380D01*
X135651428Y-104068571D02*
X136222857Y-104068571D01*
X136222857Y-104592380D02*
X136222857Y-103592380D01*
X137127619Y-104592380D02*
X137127619Y-104068571D01*
X137080000Y-103973333D01*
X136984761Y-103925714D01*
X136794285Y-103925714D01*
X136699047Y-103973333D01*
X137127619Y-104544761D02*
X137032380Y-104592380D01*
X136794285Y-104592380D01*
X136699047Y-104544761D01*
X136651428Y-104449523D01*
X136651428Y-104354285D01*
X136699047Y-104259047D01*
X136794285Y-104211428D01*
X137032380Y-104211428D01*
X137127619Y-104163809D01*
X137460952Y-103925714D02*
X137841904Y-103925714D01*
X137603809Y-103592380D02*
X137603809Y-104449523D01*
X137651428Y-104544761D01*
X137746666Y-104592380D01*
X137841904Y-104592380D01*
X138937142Y-104211428D02*
X139699047Y-104211428D01*
X140937142Y-104592380D02*
X140937142Y-103592380D01*
X140937142Y-103973333D02*
X141032380Y-103925714D01*
X141222857Y-103925714D01*
X141318095Y-103973333D01*
X141365714Y-104020952D01*
X141413333Y-104116190D01*
X141413333Y-104401904D01*
X141365714Y-104497142D01*
X141318095Y-104544761D01*
X141222857Y-104592380D01*
X141032380Y-104592380D01*
X140937142Y-104544761D01*
X141746666Y-103925714D02*
X141984761Y-104592380D01*
X142222857Y-103925714D02*
X141984761Y-104592380D01*
X141889523Y-104830476D01*
X141841904Y-104878095D01*
X141746666Y-104925714D01*
X143270476Y-103925714D02*
X143460952Y-104592380D01*
X143651428Y-104116190D01*
X143841904Y-104592380D01*
X144032380Y-103925714D01*
X144413333Y-103925714D02*
X144413333Y-104782857D01*
X144365714Y-104878095D01*
X144270476Y-104925714D01*
X144222857Y-104925714D01*
X144413333Y-103592380D02*
X144365714Y-103640000D01*
X144413333Y-103687619D01*
X144460952Y-103640000D01*
X144413333Y-103592380D01*
X144413333Y-103687619D01*
X144889523Y-104592380D02*
X144889523Y-103592380D01*
X144984761Y-104211428D02*
X145270476Y-104592380D01*
X145270476Y-103925714D02*
X144889523Y-104306666D01*
X131341904Y-112212380D02*
X131341904Y-111212380D01*
X131913333Y-112212380D02*
X131484761Y-111640952D01*
X131913333Y-111212380D02*
X131341904Y-111783809D01*
X132294285Y-111307619D02*
X132341904Y-111260000D01*
X132437142Y-111212380D01*
X132675238Y-111212380D01*
X132770476Y-111260000D01*
X132818095Y-111307619D01*
X132865714Y-111402857D01*
X132865714Y-111498095D01*
X132818095Y-111640952D01*
X132246666Y-112212380D01*
X132865714Y-112212380D01*
X151661904Y-112212380D02*
X151661904Y-111212380D01*
X152233333Y-112212380D02*
X151804761Y-111640952D01*
X152233333Y-111212380D02*
X151661904Y-111783809D01*
X153090476Y-111545714D02*
X153090476Y-112212380D01*
X152852380Y-111164761D02*
X152614285Y-111879047D01*
X153233333Y-111879047D01*
X170711904Y-112212380D02*
X170711904Y-111212380D01*
X171283333Y-112212380D02*
X170854761Y-111640952D01*
X171283333Y-111212380D02*
X170711904Y-111783809D01*
X171616666Y-111212380D02*
X172235714Y-111212380D01*
X171902380Y-111593333D01*
X172045238Y-111593333D01*
X172140476Y-111640952D01*
X172188095Y-111688571D01*
X172235714Y-111783809D01*
X172235714Y-112021904D01*
X172188095Y-112117142D01*
X172140476Y-112164761D01*
X172045238Y-112212380D01*
X171759523Y-112212380D01*
X171664285Y-112164761D01*
X171616666Y-112117142D01*
D11*
G36*
X154444744Y-113044918D02*
G01*
X154500201Y-113072568D01*
X154549148Y-113123480D01*
X154562629Y-113142338D01*
X154577314Y-113167015D01*
X154586842Y-113193816D01*
X154592293Y-113229587D01*
X154594747Y-113281169D01*
X154595286Y-113349267D01*
X154592852Y-113442588D01*
X154584394Y-113512657D01*
X154568174Y-113564931D01*
X154542454Y-113604869D01*
X154505497Y-113637929D01*
X154502782Y-113639886D01*
X154466360Y-113659908D01*
X154422502Y-113669815D01*
X154366724Y-113672257D01*
X154276048Y-113672257D01*
X154276010Y-113760283D01*
X154275166Y-113809308D01*
X154270024Y-113838065D01*
X154256587Y-113855311D01*
X154230858Y-113869808D01*
X154224679Y-113872769D01*
X154195764Y-113886648D01*
X154173376Y-113895414D01*
X154156729Y-113896171D01*
X154145036Y-113886023D01*
X154137510Y-113862073D01*
X154133366Y-113821426D01*
X154131815Y-113761186D01*
X154132071Y-113678455D01*
X154133349Y-113570339D01*
X154133748Y-113538000D01*
X154135185Y-113426524D01*
X154136472Y-113353603D01*
X154275971Y-113353603D01*
X154276755Y-113415499D01*
X154280240Y-113455997D01*
X154288124Y-113482708D01*
X154302105Y-113503244D01*
X154311597Y-113513260D01*
X154350404Y-113542567D01*
X154384763Y-113544952D01*
X154420216Y-113520750D01*
X154421114Y-113519857D01*
X154435539Y-113501153D01*
X154444313Y-113475732D01*
X154448739Y-113436584D01*
X154450118Y-113376697D01*
X154450143Y-113363430D01*
X154446812Y-113280901D01*
X154435969Y-113223691D01*
X154416340Y-113188766D01*
X154386650Y-113173094D01*
X154369491Y-113171514D01*
X154328766Y-113178926D01*
X154300832Y-113203330D01*
X154284017Y-113247980D01*
X154276650Y-113316130D01*
X154275971Y-113353603D01*
X154136472Y-113353603D01*
X154136708Y-113340245D01*
X154138677Y-113275333D01*
X154141450Y-113227958D01*
X154145388Y-113194290D01*
X154150849Y-113170498D01*
X154158192Y-113152753D01*
X154167777Y-113137224D01*
X154171887Y-113131381D01*
X154226405Y-113076185D01*
X154295336Y-113044890D01*
X154375072Y-113036165D01*
X154444744Y-113044918D01*
G37*
X154444744Y-113044918D02*
X154500201Y-113072568D01*
X154549148Y-113123480D01*
X154562629Y-113142338D01*
X154577314Y-113167015D01*
X154586842Y-113193816D01*
X154592293Y-113229587D01*
X154594747Y-113281169D01*
X154595286Y-113349267D01*
X154592852Y-113442588D01*
X154584394Y-113512657D01*
X154568174Y-113564931D01*
X154542454Y-113604869D01*
X154505497Y-113637929D01*
X154502782Y-113639886D01*
X154466360Y-113659908D01*
X154422502Y-113669815D01*
X154366724Y-113672257D01*
X154276048Y-113672257D01*
X154276010Y-113760283D01*
X154275166Y-113809308D01*
X154270024Y-113838065D01*
X154256587Y-113855311D01*
X154230858Y-113869808D01*
X154224679Y-113872769D01*
X154195764Y-113886648D01*
X154173376Y-113895414D01*
X154156729Y-113896171D01*
X154145036Y-113886023D01*
X154137510Y-113862073D01*
X154133366Y-113821426D01*
X154131815Y-113761186D01*
X154132071Y-113678455D01*
X154133349Y-113570339D01*
X154133748Y-113538000D01*
X154135185Y-113426524D01*
X154136472Y-113353603D01*
X154275971Y-113353603D01*
X154276755Y-113415499D01*
X154280240Y-113455997D01*
X154288124Y-113482708D01*
X154302105Y-113503244D01*
X154311597Y-113513260D01*
X154350404Y-113542567D01*
X154384763Y-113544952D01*
X154420216Y-113520750D01*
X154421114Y-113519857D01*
X154435539Y-113501153D01*
X154444313Y-113475732D01*
X154448739Y-113436584D01*
X154450118Y-113376697D01*
X154450143Y-113363430D01*
X154446812Y-113280901D01*
X154435969Y-113223691D01*
X154416340Y-113188766D01*
X154386650Y-113173094D01*
X154369491Y-113171514D01*
X154328766Y-113178926D01*
X154300832Y-113203330D01*
X154284017Y-113247980D01*
X154276650Y-113316130D01*
X154275971Y-113353603D01*
X154136472Y-113353603D01*
X154136708Y-113340245D01*
X154138677Y-113275333D01*
X154141450Y-113227958D01*
X154145388Y-113194290D01*
X154150849Y-113170498D01*
X154158192Y-113152753D01*
X154167777Y-113137224D01*
X154171887Y-113131381D01*
X154226405Y-113076185D01*
X154295336Y-113044890D01*
X154375072Y-113036165D01*
X154444744Y-113044918D01*
G36*
X155561093Y-113052780D02*
G01*
X155607672Y-113079723D01*
X155640057Y-113106466D01*
X155663742Y-113134484D01*
X155680059Y-113168748D01*
X155690339Y-113214227D01*
X155695914Y-113275892D01*
X155698116Y-113358711D01*
X155698371Y-113418246D01*
X155698371Y-113637391D01*
X155636686Y-113665044D01*
X155575000Y-113692697D01*
X155567743Y-113452670D01*
X155564744Y-113363028D01*
X155561598Y-113297962D01*
X155557701Y-113253026D01*
X155552447Y-113223770D01*
X155545231Y-113205748D01*
X155535450Y-113194511D01*
X155532312Y-113192079D01*
X155484761Y-113173083D01*
X155436697Y-113180600D01*
X155408086Y-113200543D01*
X155396447Y-113214675D01*
X155388391Y-113233220D01*
X155383271Y-113261334D01*
X155380441Y-113304173D01*
X155379256Y-113366895D01*
X155379057Y-113432261D01*
X155379018Y-113514268D01*
X155377614Y-113572316D01*
X155372914Y-113611465D01*
X155362987Y-113636780D01*
X155345903Y-113653323D01*
X155319732Y-113666156D01*
X155284775Y-113679491D01*
X155246596Y-113694007D01*
X155251141Y-113436389D01*
X155252971Y-113343519D01*
X155255112Y-113274889D01*
X155258181Y-113225711D01*
X155262794Y-113191198D01*
X155269568Y-113166562D01*
X155279119Y-113147016D01*
X155290634Y-113129770D01*
X155346190Y-113074680D01*
X155413980Y-113042822D01*
X155487713Y-113035191D01*
X155561093Y-113052780D01*
G37*
X155561093Y-113052780D02*
X155607672Y-113079723D01*
X155640057Y-113106466D01*
X155663742Y-113134484D01*
X155680059Y-113168748D01*
X155690339Y-113214227D01*
X155695914Y-113275892D01*
X155698116Y-113358711D01*
X155698371Y-113418246D01*
X155698371Y-113637391D01*
X155636686Y-113665044D01*
X155575000Y-113692697D01*
X155567743Y-113452670D01*
X155564744Y-113363028D01*
X155561598Y-113297962D01*
X155557701Y-113253026D01*
X155552447Y-113223770D01*
X155545231Y-113205748D01*
X155535450Y-113194511D01*
X155532312Y-113192079D01*
X155484761Y-113173083D01*
X155436697Y-113180600D01*
X155408086Y-113200543D01*
X155396447Y-113214675D01*
X155388391Y-113233220D01*
X155383271Y-113261334D01*
X155380441Y-113304173D01*
X155379256Y-113366895D01*
X155379057Y-113432261D01*
X155379018Y-113514268D01*
X155377614Y-113572316D01*
X155372914Y-113611465D01*
X155362987Y-113636780D01*
X155345903Y-113653323D01*
X155319732Y-113666156D01*
X155284775Y-113679491D01*
X155246596Y-113694007D01*
X155251141Y-113436389D01*
X155252971Y-113343519D01*
X155255112Y-113274889D01*
X155258181Y-113225711D01*
X155262794Y-113191198D01*
X155269568Y-113166562D01*
X155279119Y-113147016D01*
X155290634Y-113129770D01*
X155346190Y-113074680D01*
X155413980Y-113042822D01*
X155487713Y-113035191D01*
X155561093Y-113052780D01*
G36*
X153886115Y-113046962D02*
G01*
X153954145Y-113082733D01*
X154004351Y-113140301D01*
X154022185Y-113177312D01*
X154036063Y-113232882D01*
X154043167Y-113303096D01*
X154043840Y-113379727D01*
X154038427Y-113454552D01*
X154027270Y-113519342D01*
X154010714Y-113565873D01*
X154005626Y-113573887D01*
X153945355Y-113633707D01*
X153873769Y-113669535D01*
X153796092Y-113680020D01*
X153717548Y-113663810D01*
X153695689Y-113654092D01*
X153653122Y-113624143D01*
X153615763Y-113584433D01*
X153612232Y-113579397D01*
X153597881Y-113555124D01*
X153588394Y-113529178D01*
X153582790Y-113495022D01*
X153580086Y-113446119D01*
X153579299Y-113375935D01*
X153579286Y-113360200D01*
X153579322Y-113355192D01*
X153724429Y-113355192D01*
X153725273Y-113421430D01*
X153728596Y-113465386D01*
X153735583Y-113493779D01*
X153747416Y-113513325D01*
X153753457Y-113519857D01*
X153788186Y-113544680D01*
X153821903Y-113543548D01*
X153855995Y-113522016D01*
X153876329Y-113499029D01*
X153888371Y-113465478D01*
X153895134Y-113412569D01*
X153895598Y-113406399D01*
X153896752Y-113310513D01*
X153884688Y-113239299D01*
X153859570Y-113193194D01*
X153821560Y-113172635D01*
X153807992Y-113171514D01*
X153772364Y-113177152D01*
X153747994Y-113196686D01*
X153733093Y-113234042D01*
X153725875Y-113293150D01*
X153724429Y-113355192D01*
X153579322Y-113355192D01*
X153579826Y-113285413D01*
X153582096Y-113233159D01*
X153587068Y-113196949D01*
X153595713Y-113170299D01*
X153609005Y-113146722D01*
X153611943Y-113142338D01*
X153661313Y-113083249D01*
X153715109Y-113048947D01*
X153780602Y-113035331D01*
X153802842Y-113034665D01*
X153886115Y-113046962D01*
G37*
X153886115Y-113046962D02*
X153954145Y-113082733D01*
X154004351Y-113140301D01*
X154022185Y-113177312D01*
X154036063Y-113232882D01*
X154043167Y-113303096D01*
X154043840Y-113379727D01*
X154038427Y-113454552D01*
X154027270Y-113519342D01*
X154010714Y-113565873D01*
X154005626Y-113573887D01*
X153945355Y-113633707D01*
X153873769Y-113669535D01*
X153796092Y-113680020D01*
X153717548Y-113663810D01*
X153695689Y-113654092D01*
X153653122Y-113624143D01*
X153615763Y-113584433D01*
X153612232Y-113579397D01*
X153597881Y-113555124D01*
X153588394Y-113529178D01*
X153582790Y-113495022D01*
X153580086Y-113446119D01*
X153579299Y-113375935D01*
X153579286Y-113360200D01*
X153579322Y-113355192D01*
X153724429Y-113355192D01*
X153725273Y-113421430D01*
X153728596Y-113465386D01*
X153735583Y-113493779D01*
X153747416Y-113513325D01*
X153753457Y-113519857D01*
X153788186Y-113544680D01*
X153821903Y-113543548D01*
X153855995Y-113522016D01*
X153876329Y-113499029D01*
X153888371Y-113465478D01*
X153895134Y-113412569D01*
X153895598Y-113406399D01*
X153896752Y-113310513D01*
X153884688Y-113239299D01*
X153859570Y-113193194D01*
X153821560Y-113172635D01*
X153807992Y-113171514D01*
X153772364Y-113177152D01*
X153747994Y-113196686D01*
X153733093Y-113234042D01*
X153725875Y-113293150D01*
X153724429Y-113355192D01*
X153579322Y-113355192D01*
X153579826Y-113285413D01*
X153582096Y-113233159D01*
X153587068Y-113196949D01*
X153595713Y-113170299D01*
X153609005Y-113146722D01*
X153611943Y-113142338D01*
X153661313Y-113083249D01*
X153715109Y-113048947D01*
X153780602Y-113035331D01*
X153802842Y-113034665D01*
X153886115Y-113046962D01*
G36*
X155013303Y-113056239D02*
G01*
X155070527Y-113094735D01*
X155114749Y-113150335D01*
X155141167Y-113221086D01*
X155146510Y-113273162D01*
X155145903Y-113294893D01*
X155140822Y-113311531D01*
X155126855Y-113326437D01*
X155099589Y-113342973D01*
X155054612Y-113364498D01*
X154987511Y-113394374D01*
X154987171Y-113394524D01*
X154925407Y-113422813D01*
X154874759Y-113447933D01*
X154840404Y-113467179D01*
X154827518Y-113477848D01*
X154827514Y-113477934D01*
X154838872Y-113501166D01*
X154865431Y-113526774D01*
X154895923Y-113545221D01*
X154911370Y-113548886D01*
X154953515Y-113536212D01*
X154989808Y-113504471D01*
X155007517Y-113469572D01*
X155024552Y-113443845D01*
X155057922Y-113414546D01*
X155097149Y-113389235D01*
X155131756Y-113375471D01*
X155138993Y-113374714D01*
X155147139Y-113387160D01*
X155147630Y-113418972D01*
X155141643Y-113461866D01*
X155130357Y-113507558D01*
X155114950Y-113547761D01*
X155114171Y-113549322D01*
X155067804Y-113614062D01*
X155007711Y-113658097D01*
X154939465Y-113679711D01*
X154868638Y-113677185D01*
X154800804Y-113648804D01*
X154797788Y-113646808D01*
X154744427Y-113598448D01*
X154709340Y-113535352D01*
X154689922Y-113452387D01*
X154687316Y-113429078D01*
X154682701Y-113319055D01*
X154688233Y-113267748D01*
X154827514Y-113267748D01*
X154829324Y-113299753D01*
X154839222Y-113309093D01*
X154863898Y-113302105D01*
X154902795Y-113285587D01*
X154946275Y-113264881D01*
X154947356Y-113264333D01*
X154984209Y-113244949D01*
X154999000Y-113232013D01*
X154995353Y-113218451D01*
X154979995Y-113200632D01*
X154940923Y-113174845D01*
X154898846Y-113172950D01*
X154861103Y-113191717D01*
X154835034Y-113227915D01*
X154827514Y-113267748D01*
X154688233Y-113267748D01*
X154692194Y-113231027D01*
X154716550Y-113161212D01*
X154750456Y-113112302D01*
X154811653Y-113062878D01*
X154879063Y-113038359D01*
X154947880Y-113036797D01*
X155013303Y-113056239D01*
G37*
X155013303Y-113056239D02*
X155070527Y-113094735D01*
X155114749Y-113150335D01*
X155141167Y-113221086D01*
X155146510Y-113273162D01*
X155145903Y-113294893D01*
X155140822Y-113311531D01*
X155126855Y-113326437D01*
X155099589Y-113342973D01*
X155054612Y-113364498D01*
X154987511Y-113394374D01*
X154987171Y-113394524D01*
X154925407Y-113422813D01*
X154874759Y-113447933D01*
X154840404Y-113467179D01*
X154827518Y-113477848D01*
X154827514Y-113477934D01*
X154838872Y-113501166D01*
X154865431Y-113526774D01*
X154895923Y-113545221D01*
X154911370Y-113548886D01*
X154953515Y-113536212D01*
X154989808Y-113504471D01*
X155007517Y-113469572D01*
X155024552Y-113443845D01*
X155057922Y-113414546D01*
X155097149Y-113389235D01*
X155131756Y-113375471D01*
X155138993Y-113374714D01*
X155147139Y-113387160D01*
X155147630Y-113418972D01*
X155141643Y-113461866D01*
X155130357Y-113507558D01*
X155114950Y-113547761D01*
X155114171Y-113549322D01*
X155067804Y-113614062D01*
X155007711Y-113658097D01*
X154939465Y-113679711D01*
X154868638Y-113677185D01*
X154800804Y-113648804D01*
X154797788Y-113646808D01*
X154744427Y-113598448D01*
X154709340Y-113535352D01*
X154689922Y-113452387D01*
X154687316Y-113429078D01*
X154682701Y-113319055D01*
X154688233Y-113267748D01*
X154827514Y-113267748D01*
X154829324Y-113299753D01*
X154839222Y-113309093D01*
X154863898Y-113302105D01*
X154902795Y-113285587D01*
X154946275Y-113264881D01*
X154947356Y-113264333D01*
X154984209Y-113244949D01*
X154999000Y-113232013D01*
X154995353Y-113218451D01*
X154979995Y-113200632D01*
X154940923Y-113174845D01*
X154898846Y-113172950D01*
X154861103Y-113191717D01*
X154835034Y-113227915D01*
X154827514Y-113267748D01*
X154688233Y-113267748D01*
X154692194Y-113231027D01*
X154716550Y-113161212D01*
X154750456Y-113112302D01*
X154811653Y-113062878D01*
X154879063Y-113038359D01*
X154947880Y-113036797D01*
X155013303Y-113056239D01*
G36*
X156220886Y-112976289D02*
G01*
X156225139Y-113035613D01*
X156230025Y-113070572D01*
X156236795Y-113085820D01*
X156246702Y-113086015D01*
X156249914Y-113084195D01*
X156292644Y-113071015D01*
X156348227Y-113071785D01*
X156404737Y-113085333D01*
X156440082Y-113102861D01*
X156476321Y-113130861D01*
X156502813Y-113162549D01*
X156520999Y-113202813D01*
X156532322Y-113256543D01*
X156538222Y-113328626D01*
X156540143Y-113423951D01*
X156540177Y-113442237D01*
X156540200Y-113647646D01*
X156494491Y-113663580D01*
X156462027Y-113674420D01*
X156444215Y-113679468D01*
X156443691Y-113679514D01*
X156441937Y-113665828D01*
X156440444Y-113628076D01*
X156439326Y-113571224D01*
X156438697Y-113500234D01*
X156438600Y-113457073D01*
X156438398Y-113371973D01*
X156437358Y-113310981D01*
X156434831Y-113269177D01*
X156430164Y-113241642D01*
X156422707Y-113223456D01*
X156411811Y-113209698D01*
X156405007Y-113203073D01*
X156358272Y-113176375D01*
X156307272Y-113174375D01*
X156261001Y-113196955D01*
X156252444Y-113205107D01*
X156239893Y-113220436D01*
X156231188Y-113238618D01*
X156225631Y-113264909D01*
X156222526Y-113304562D01*
X156221176Y-113362832D01*
X156220886Y-113443173D01*
X156220886Y-113647646D01*
X156175177Y-113663580D01*
X156142713Y-113674420D01*
X156124901Y-113679468D01*
X156124377Y-113679514D01*
X156123037Y-113665623D01*
X156121828Y-113626439D01*
X156120801Y-113565700D01*
X156120002Y-113487141D01*
X156119481Y-113394498D01*
X156119286Y-113291509D01*
X156119286Y-112894342D01*
X156166457Y-112874444D01*
X156213629Y-112854547D01*
X156220886Y-112976289D01*
G37*
X156220886Y-112976289D02*
X156225139Y-113035613D01*
X156230025Y-113070572D01*
X156236795Y-113085820D01*
X156246702Y-113086015D01*
X156249914Y-113084195D01*
X156292644Y-113071015D01*
X156348227Y-113071785D01*
X156404737Y-113085333D01*
X156440082Y-113102861D01*
X156476321Y-113130861D01*
X156502813Y-113162549D01*
X156520999Y-113202813D01*
X156532322Y-113256543D01*
X156538222Y-113328626D01*
X156540143Y-113423951D01*
X156540177Y-113442237D01*
X156540200Y-113647646D01*
X156494491Y-113663580D01*
X156462027Y-113674420D01*
X156444215Y-113679468D01*
X156443691Y-113679514D01*
X156441937Y-113665828D01*
X156440444Y-113628076D01*
X156439326Y-113571224D01*
X156438697Y-113500234D01*
X156438600Y-113457073D01*
X156438398Y-113371973D01*
X156437358Y-113310981D01*
X156434831Y-113269177D01*
X156430164Y-113241642D01*
X156422707Y-113223456D01*
X156411811Y-113209698D01*
X156405007Y-113203073D01*
X156358272Y-113176375D01*
X156307272Y-113174375D01*
X156261001Y-113196955D01*
X156252444Y-113205107D01*
X156239893Y-113220436D01*
X156231188Y-113238618D01*
X156225631Y-113264909D01*
X156222526Y-113304562D01*
X156221176Y-113362832D01*
X156220886Y-113443173D01*
X156220886Y-113647646D01*
X156175177Y-113663580D01*
X156142713Y-113674420D01*
X156124901Y-113679468D01*
X156124377Y-113679514D01*
X156123037Y-113665623D01*
X156121828Y-113626439D01*
X156120801Y-113565700D01*
X156120002Y-113487141D01*
X156119481Y-113394498D01*
X156119286Y-113291509D01*
X156119286Y-112894342D01*
X156166457Y-112874444D01*
X156213629Y-112854547D01*
X156220886Y-112976289D01*
G36*
X156884744Y-113075968D02*
G01*
X156941616Y-113097087D01*
X156942267Y-113097493D01*
X156977440Y-113123380D01*
X157003407Y-113153633D01*
X157021670Y-113193058D01*
X157033732Y-113246462D01*
X157041096Y-113318651D01*
X157045264Y-113414432D01*
X157045629Y-113428078D01*
X157050876Y-113633842D01*
X157006716Y-113656678D01*
X156974763Y-113672110D01*
X156955470Y-113679423D01*
X156954578Y-113679514D01*
X156951239Y-113666022D01*
X156948587Y-113629626D01*
X156946956Y-113576452D01*
X156946600Y-113533393D01*
X156946592Y-113463641D01*
X156943403Y-113419837D01*
X156932288Y-113398944D01*
X156908501Y-113397925D01*
X156867296Y-113413741D01*
X156805086Y-113442815D01*
X156759341Y-113466963D01*
X156735813Y-113487913D01*
X156728896Y-113510747D01*
X156728886Y-113511877D01*
X156740299Y-113551212D01*
X156774092Y-113572462D01*
X156825809Y-113575539D01*
X156863061Y-113575006D01*
X156882703Y-113585735D01*
X156894952Y-113611505D01*
X156902002Y-113644337D01*
X156891842Y-113662966D01*
X156888017Y-113665632D01*
X156852001Y-113676340D01*
X156801566Y-113677856D01*
X156749626Y-113670759D01*
X156712822Y-113657788D01*
X156661938Y-113614585D01*
X156633014Y-113554446D01*
X156627286Y-113507462D01*
X156631657Y-113465082D01*
X156647475Y-113430488D01*
X156678797Y-113399763D01*
X156729678Y-113368990D01*
X156804176Y-113334252D01*
X156808714Y-113332288D01*
X156875821Y-113301287D01*
X156917232Y-113275862D01*
X156934981Y-113253014D01*
X156931107Y-113229745D01*
X156907643Y-113203056D01*
X156900627Y-113196914D01*
X156853630Y-113173100D01*
X156804933Y-113174103D01*
X156762522Y-113197451D01*
X156734384Y-113240675D01*
X156731769Y-113249160D01*
X156706308Y-113290308D01*
X156674001Y-113310128D01*
X156627286Y-113329770D01*
X156627286Y-113278950D01*
X156641496Y-113205082D01*
X156683675Y-113137327D01*
X156705624Y-113114661D01*
X156755517Y-113085569D01*
X156818967Y-113072400D01*
X156884744Y-113075968D01*
G37*
X156884744Y-113075968D02*
X156941616Y-113097087D01*
X156942267Y-113097493D01*
X156977440Y-113123380D01*
X157003407Y-113153633D01*
X157021670Y-113193058D01*
X157033732Y-113246462D01*
X157041096Y-113318651D01*
X157045264Y-113414432D01*
X157045629Y-113428078D01*
X157050876Y-113633842D01*
X157006716Y-113656678D01*
X156974763Y-113672110D01*
X156955470Y-113679423D01*
X156954578Y-113679514D01*
X156951239Y-113666022D01*
X156948587Y-113629626D01*
X156946956Y-113576452D01*
X156946600Y-113533393D01*
X156946592Y-113463641D01*
X156943403Y-113419837D01*
X156932288Y-113398944D01*
X156908501Y-113397925D01*
X156867296Y-113413741D01*
X156805086Y-113442815D01*
X156759341Y-113466963D01*
X156735813Y-113487913D01*
X156728896Y-113510747D01*
X156728886Y-113511877D01*
X156740299Y-113551212D01*
X156774092Y-113572462D01*
X156825809Y-113575539D01*
X156863061Y-113575006D01*
X156882703Y-113585735D01*
X156894952Y-113611505D01*
X156902002Y-113644337D01*
X156891842Y-113662966D01*
X156888017Y-113665632D01*
X156852001Y-113676340D01*
X156801566Y-113677856D01*
X156749626Y-113670759D01*
X156712822Y-113657788D01*
X156661938Y-113614585D01*
X156633014Y-113554446D01*
X156627286Y-113507462D01*
X156631657Y-113465082D01*
X156647475Y-113430488D01*
X156678797Y-113399763D01*
X156729678Y-113368990D01*
X156804176Y-113334252D01*
X156808714Y-113332288D01*
X156875821Y-113301287D01*
X156917232Y-113275862D01*
X156934981Y-113253014D01*
X156931107Y-113229745D01*
X156907643Y-113203056D01*
X156900627Y-113196914D01*
X156853630Y-113173100D01*
X156804933Y-113174103D01*
X156762522Y-113197451D01*
X156734384Y-113240675D01*
X156731769Y-113249160D01*
X156706308Y-113290308D01*
X156674001Y-113310128D01*
X156627286Y-113329770D01*
X156627286Y-113278950D01*
X156641496Y-113205082D01*
X156683675Y-113137327D01*
X156705624Y-113114661D01*
X156755517Y-113085569D01*
X156818967Y-113072400D01*
X156884744Y-113075968D01*
G36*
X157374926Y-113074755D02*
G01*
X157440858Y-113099084D01*
X157494273Y-113142117D01*
X157515164Y-113172409D01*
X157537939Y-113227994D01*
X157537466Y-113268186D01*
X157513562Y-113295217D01*
X157504717Y-113299813D01*
X157466530Y-113314144D01*
X157447028Y-113310472D01*
X157440422Y-113286407D01*
X157440086Y-113273114D01*
X157427992Y-113224210D01*
X157396471Y-113189999D01*
X157352659Y-113173476D01*
X157303695Y-113177634D01*
X157263894Y-113199227D01*
X157250450Y-113211544D01*
X157240921Y-113226487D01*
X157234485Y-113249075D01*
X157230317Y-113284328D01*
X157227597Y-113337266D01*
X157225502Y-113412907D01*
X157224960Y-113436857D01*
X157222981Y-113518790D01*
X157220731Y-113576455D01*
X157217357Y-113614608D01*
X157212006Y-113638004D01*
X157203824Y-113651398D01*
X157191959Y-113659545D01*
X157184362Y-113663144D01*
X157152102Y-113675452D01*
X157133111Y-113679514D01*
X157126836Y-113665948D01*
X157123006Y-113624934D01*
X157121600Y-113555999D01*
X157122598Y-113458669D01*
X157122908Y-113443657D01*
X157125101Y-113354859D01*
X157127693Y-113290019D01*
X157131382Y-113244067D01*
X157136864Y-113211935D01*
X157144835Y-113188553D01*
X157155993Y-113168852D01*
X157161830Y-113160410D01*
X157195296Y-113123057D01*
X157232727Y-113094003D01*
X157237309Y-113091467D01*
X157304426Y-113071443D01*
X157374926Y-113074755D01*
G37*
X157374926Y-113074755D02*
X157440858Y-113099084D01*
X157494273Y-113142117D01*
X157515164Y-113172409D01*
X157537939Y-113227994D01*
X157537466Y-113268186D01*
X157513562Y-113295217D01*
X157504717Y-113299813D01*
X157466530Y-113314144D01*
X157447028Y-113310472D01*
X157440422Y-113286407D01*
X157440086Y-113273114D01*
X157427992Y-113224210D01*
X157396471Y-113189999D01*
X157352659Y-113173476D01*
X157303695Y-113177634D01*
X157263894Y-113199227D01*
X157250450Y-113211544D01*
X157240921Y-113226487D01*
X157234485Y-113249075D01*
X157230317Y-113284328D01*
X157227597Y-113337266D01*
X157225502Y-113412907D01*
X157224960Y-113436857D01*
X157222981Y-113518790D01*
X157220731Y-113576455D01*
X157217357Y-113614608D01*
X157212006Y-113638004D01*
X157203824Y-113651398D01*
X157191959Y-113659545D01*
X157184362Y-113663144D01*
X157152102Y-113675452D01*
X157133111Y-113679514D01*
X157126836Y-113665948D01*
X157123006Y-113624934D01*
X157121600Y-113555999D01*
X157122598Y-113458669D01*
X157122908Y-113443657D01*
X157125101Y-113354859D01*
X157127693Y-113290019D01*
X157131382Y-113244067D01*
X157136864Y-113211935D01*
X157144835Y-113188553D01*
X157155993Y-113168852D01*
X157161830Y-113160410D01*
X157195296Y-113123057D01*
X157232727Y-113094003D01*
X157237309Y-113091467D01*
X157304426Y-113071443D01*
X157374926Y-113074755D01*
G36*
X158035117Y-113190358D02*
G01*
X158034933Y-113298837D01*
X158034219Y-113382287D01*
X158032675Y-113444704D01*
X158030001Y-113490085D01*
X158025894Y-113522429D01*
X158020055Y-113545733D01*
X158012182Y-113563995D01*
X158006221Y-113574418D01*
X157956855Y-113630945D01*
X157894264Y-113666377D01*
X157825013Y-113679090D01*
X157755668Y-113667463D01*
X157714375Y-113646568D01*
X157671025Y-113610422D01*
X157641481Y-113566276D01*
X157623655Y-113508462D01*
X157615463Y-113431313D01*
X157614302Y-113374714D01*
X157614458Y-113370647D01*
X157715857Y-113370647D01*
X157716476Y-113435550D01*
X157719314Y-113478514D01*
X157725840Y-113506622D01*
X157737523Y-113526953D01*
X157751483Y-113542288D01*
X157798365Y-113571890D01*
X157848701Y-113574419D01*
X157896276Y-113549705D01*
X157899979Y-113546356D01*
X157915783Y-113528935D01*
X157925693Y-113508209D01*
X157931058Y-113477362D01*
X157933228Y-113429577D01*
X157933571Y-113376748D01*
X157932827Y-113310381D01*
X157929748Y-113266106D01*
X157923061Y-113237009D01*
X157911496Y-113216173D01*
X157902013Y-113205107D01*
X157857960Y-113177198D01*
X157807224Y-113173843D01*
X157758796Y-113195159D01*
X157749450Y-113203073D01*
X157733540Y-113220647D01*
X157723610Y-113241587D01*
X157718278Y-113272782D01*
X157716163Y-113321122D01*
X157715857Y-113370647D01*
X157614458Y-113370647D01*
X157617810Y-113283568D01*
X157629726Y-113215086D01*
X157652135Y-113163600D01*
X157687124Y-113123443D01*
X157714375Y-113102861D01*
X157763907Y-113080625D01*
X157821316Y-113070304D01*
X157874682Y-113073067D01*
X157904543Y-113084212D01*
X157916261Y-113087383D01*
X157924037Y-113075557D01*
X157929465Y-113043866D01*
X157933571Y-112995593D01*
X157938067Y-112941829D01*
X157944313Y-112909482D01*
X157955676Y-112890985D01*
X157975528Y-112878770D01*
X157988000Y-112873362D01*
X158035171Y-112853601D01*
X158035117Y-113190358D01*
G37*
X158035117Y-113190358D02*
X158034933Y-113298837D01*
X158034219Y-113382287D01*
X158032675Y-113444704D01*
X158030001Y-113490085D01*
X158025894Y-113522429D01*
X158020055Y-113545733D01*
X158012182Y-113563995D01*
X158006221Y-113574418D01*
X157956855Y-113630945D01*
X157894264Y-113666377D01*
X157825013Y-113679090D01*
X157755668Y-113667463D01*
X157714375Y-113646568D01*
X157671025Y-113610422D01*
X157641481Y-113566276D01*
X157623655Y-113508462D01*
X157615463Y-113431313D01*
X157614302Y-113374714D01*
X157614458Y-113370647D01*
X157715857Y-113370647D01*
X157716476Y-113435550D01*
X157719314Y-113478514D01*
X157725840Y-113506622D01*
X157737523Y-113526953D01*
X157751483Y-113542288D01*
X157798365Y-113571890D01*
X157848701Y-113574419D01*
X157896276Y-113549705D01*
X157899979Y-113546356D01*
X157915783Y-113528935D01*
X157925693Y-113508209D01*
X157931058Y-113477362D01*
X157933228Y-113429577D01*
X157933571Y-113376748D01*
X157932827Y-113310381D01*
X157929748Y-113266106D01*
X157923061Y-113237009D01*
X157911496Y-113216173D01*
X157902013Y-113205107D01*
X157857960Y-113177198D01*
X157807224Y-113173843D01*
X157758796Y-113195159D01*
X157749450Y-113203073D01*
X157733540Y-113220647D01*
X157723610Y-113241587D01*
X157718278Y-113272782D01*
X157716163Y-113321122D01*
X157715857Y-113370647D01*
X157614458Y-113370647D01*
X157617810Y-113283568D01*
X157629726Y-113215086D01*
X157652135Y-113163600D01*
X157687124Y-113123443D01*
X157714375Y-113102861D01*
X157763907Y-113080625D01*
X157821316Y-113070304D01*
X157874682Y-113073067D01*
X157904543Y-113084212D01*
X157916261Y-113087383D01*
X157924037Y-113075557D01*
X157929465Y-113043866D01*
X157933571Y-112995593D01*
X157938067Y-112941829D01*
X157944313Y-112909482D01*
X157955676Y-112890985D01*
X157975528Y-112878770D01*
X157988000Y-112873362D01*
X158035171Y-112853601D01*
X158035117Y-113190358D01*
G36*
X158624833Y-113083663D02*
G01*
X158627048Y-113121850D01*
X158628784Y-113179886D01*
X158629899Y-113253180D01*
X158630257Y-113330055D01*
X158630257Y-113590196D01*
X158584326Y-113636127D01*
X158552675Y-113664429D01*
X158524890Y-113675893D01*
X158486915Y-113675168D01*
X158471840Y-113673321D01*
X158424726Y-113667948D01*
X158385756Y-113664869D01*
X158376257Y-113664585D01*
X158344233Y-113666445D01*
X158298432Y-113671114D01*
X158280674Y-113673321D01*
X158237057Y-113676735D01*
X158207745Y-113669320D01*
X158178680Y-113646427D01*
X158168188Y-113636127D01*
X158122257Y-113590196D01*
X158122257Y-113103602D01*
X158159226Y-113086758D01*
X158191059Y-113074282D01*
X158209683Y-113069914D01*
X158214458Y-113083718D01*
X158218921Y-113122286D01*
X158222775Y-113181356D01*
X158225722Y-113256663D01*
X158227143Y-113320286D01*
X158231114Y-113570657D01*
X158265759Y-113575556D01*
X158297268Y-113572131D01*
X158312708Y-113561041D01*
X158317023Y-113540308D01*
X158320708Y-113496145D01*
X158323469Y-113434146D01*
X158325012Y-113359909D01*
X158325235Y-113321706D01*
X158325457Y-113101783D01*
X158371166Y-113085849D01*
X158403518Y-113075015D01*
X158421115Y-113069962D01*
X158421623Y-113069914D01*
X158423388Y-113083648D01*
X158425329Y-113121730D01*
X158427282Y-113179482D01*
X158429084Y-113252227D01*
X158430343Y-113320286D01*
X158434314Y-113570657D01*
X158521400Y-113570657D01*
X158525396Y-113342240D01*
X158529392Y-113113822D01*
X158571847Y-113091868D01*
X158603192Y-113076793D01*
X158621744Y-113069951D01*
X158622279Y-113069914D01*
X158624833Y-113083663D01*
G37*
X158624833Y-113083663D02*
X158627048Y-113121850D01*
X158628784Y-113179886D01*
X158629899Y-113253180D01*
X158630257Y-113330055D01*
X158630257Y-113590196D01*
X158584326Y-113636127D01*
X158552675Y-113664429D01*
X158524890Y-113675893D01*
X158486915Y-113675168D01*
X158471840Y-113673321D01*
X158424726Y-113667948D01*
X158385756Y-113664869D01*
X158376257Y-113664585D01*
X158344233Y-113666445D01*
X158298432Y-113671114D01*
X158280674Y-113673321D01*
X158237057Y-113676735D01*
X158207745Y-113669320D01*
X158178680Y-113646427D01*
X158168188Y-113636127D01*
X158122257Y-113590196D01*
X158122257Y-113103602D01*
X158159226Y-113086758D01*
X158191059Y-113074282D01*
X158209683Y-113069914D01*
X158214458Y-113083718D01*
X158218921Y-113122286D01*
X158222775Y-113181356D01*
X158225722Y-113256663D01*
X158227143Y-113320286D01*
X158231114Y-113570657D01*
X158265759Y-113575556D01*
X158297268Y-113572131D01*
X158312708Y-113561041D01*
X158317023Y-113540308D01*
X158320708Y-113496145D01*
X158323469Y-113434146D01*
X158325012Y-113359909D01*
X158325235Y-113321706D01*
X158325457Y-113101783D01*
X158371166Y-113085849D01*
X158403518Y-113075015D01*
X158421115Y-113069962D01*
X158421623Y-113069914D01*
X158423388Y-113083648D01*
X158425329Y-113121730D01*
X158427282Y-113179482D01*
X158429084Y-113252227D01*
X158430343Y-113320286D01*
X158434314Y-113570657D01*
X158521400Y-113570657D01*
X158525396Y-113342240D01*
X158529392Y-113113822D01*
X158571847Y-113091868D01*
X158603192Y-113076793D01*
X158621744Y-113069951D01*
X158622279Y-113069914D01*
X158624833Y-113083663D01*
G36*
X158989876Y-113081335D02*
G01*
X159031667Y-113100344D01*
X159064469Y-113123378D01*
X159088503Y-113149133D01*
X159105097Y-113182358D01*
X159115577Y-113227800D01*
X159121271Y-113290207D01*
X159123507Y-113374327D01*
X159123743Y-113429721D01*
X159123743Y-113645826D01*
X159086774Y-113662670D01*
X159057656Y-113674981D01*
X159043231Y-113679514D01*
X159040472Y-113666025D01*
X159038282Y-113629653D01*
X159036942Y-113576542D01*
X159036657Y-113534372D01*
X159035434Y-113473447D01*
X159032136Y-113425115D01*
X159027321Y-113395518D01*
X159023496Y-113389229D01*
X158997783Y-113395652D01*
X158957418Y-113412125D01*
X158910679Y-113434458D01*
X158865845Y-113458457D01*
X158831193Y-113479930D01*
X158815002Y-113494685D01*
X158814938Y-113494845D01*
X158816330Y-113522152D01*
X158828818Y-113548219D01*
X158850743Y-113569392D01*
X158882743Y-113576474D01*
X158910092Y-113575649D01*
X158948826Y-113575042D01*
X158969158Y-113584116D01*
X158981369Y-113608092D01*
X158982909Y-113612613D01*
X158988203Y-113646806D01*
X158974047Y-113667568D01*
X158937148Y-113677462D01*
X158897289Y-113679292D01*
X158825562Y-113665727D01*
X158788432Y-113646355D01*
X158742576Y-113600845D01*
X158718256Y-113544983D01*
X158716073Y-113485957D01*
X158736629Y-113430953D01*
X158767549Y-113396486D01*
X158798420Y-113377189D01*
X158846942Y-113352759D01*
X158903485Y-113327985D01*
X158912910Y-113324199D01*
X158975019Y-113296791D01*
X159010822Y-113272634D01*
X159022337Y-113248619D01*
X159011580Y-113221635D01*
X158993114Y-113200543D01*
X158949469Y-113174572D01*
X158901446Y-113172624D01*
X158857406Y-113192637D01*
X158825709Y-113232551D01*
X158821549Y-113242848D01*
X158797327Y-113280724D01*
X158761965Y-113308842D01*
X158717343Y-113331917D01*
X158717343Y-113266485D01*
X158719969Y-113226506D01*
X158731230Y-113194997D01*
X158756199Y-113161378D01*
X158780169Y-113135484D01*
X158817441Y-113098817D01*
X158846401Y-113079121D01*
X158877505Y-113071220D01*
X158912713Y-113069914D01*
X158989876Y-113081335D01*
G37*
X158989876Y-113081335D02*
X159031667Y-113100344D01*
X159064469Y-113123378D01*
X159088503Y-113149133D01*
X159105097Y-113182358D01*
X159115577Y-113227800D01*
X159121271Y-113290207D01*
X159123507Y-113374327D01*
X159123743Y-113429721D01*
X159123743Y-113645826D01*
X159086774Y-113662670D01*
X159057656Y-113674981D01*
X159043231Y-113679514D01*
X159040472Y-113666025D01*
X159038282Y-113629653D01*
X159036942Y-113576542D01*
X159036657Y-113534372D01*
X159035434Y-113473447D01*
X159032136Y-113425115D01*
X159027321Y-113395518D01*
X159023496Y-113389229D01*
X158997783Y-113395652D01*
X158957418Y-113412125D01*
X158910679Y-113434458D01*
X158865845Y-113458457D01*
X158831193Y-113479930D01*
X158815002Y-113494685D01*
X158814938Y-113494845D01*
X158816330Y-113522152D01*
X158828818Y-113548219D01*
X158850743Y-113569392D01*
X158882743Y-113576474D01*
X158910092Y-113575649D01*
X158948826Y-113575042D01*
X158969158Y-113584116D01*
X158981369Y-113608092D01*
X158982909Y-113612613D01*
X158988203Y-113646806D01*
X158974047Y-113667568D01*
X158937148Y-113677462D01*
X158897289Y-113679292D01*
X158825562Y-113665727D01*
X158788432Y-113646355D01*
X158742576Y-113600845D01*
X158718256Y-113544983D01*
X158716073Y-113485957D01*
X158736629Y-113430953D01*
X158767549Y-113396486D01*
X158798420Y-113377189D01*
X158846942Y-113352759D01*
X158903485Y-113327985D01*
X158912910Y-113324199D01*
X158975019Y-113296791D01*
X159010822Y-113272634D01*
X159022337Y-113248619D01*
X159011580Y-113221635D01*
X158993114Y-113200543D01*
X158949469Y-113174572D01*
X158901446Y-113172624D01*
X158857406Y-113192637D01*
X158825709Y-113232551D01*
X158821549Y-113242848D01*
X158797327Y-113280724D01*
X158761965Y-113308842D01*
X158717343Y-113331917D01*
X158717343Y-113266485D01*
X158719969Y-113226506D01*
X158731230Y-113194997D01*
X158756199Y-113161378D01*
X158780169Y-113135484D01*
X158817441Y-113098817D01*
X158846401Y-113079121D01*
X158877505Y-113071220D01*
X158912713Y-113069914D01*
X158989876Y-113081335D01*
G36*
X159497600Y-113083752D02*
G01*
X159514948Y-113091334D01*
X159556356Y-113124128D01*
X159591765Y-113171547D01*
X159613664Y-113222151D01*
X159617229Y-113247098D01*
X159605279Y-113281927D01*
X159579067Y-113300357D01*
X159550964Y-113311516D01*
X159538095Y-113313572D01*
X159531829Y-113298649D01*
X159519456Y-113266175D01*
X159514028Y-113251502D01*
X159483590Y-113200744D01*
X159439520Y-113175427D01*
X159383010Y-113176206D01*
X159378825Y-113177203D01*
X159348655Y-113191507D01*
X159326476Y-113219393D01*
X159311327Y-113264287D01*
X159302250Y-113329615D01*
X159298286Y-113418804D01*
X159297914Y-113466261D01*
X159297730Y-113541071D01*
X159296522Y-113592069D01*
X159293309Y-113624471D01*
X159287109Y-113643495D01*
X159276940Y-113654356D01*
X159261819Y-113662272D01*
X159260946Y-113662670D01*
X159231828Y-113674981D01*
X159217403Y-113679514D01*
X159215186Y-113665809D01*
X159213289Y-113627925D01*
X159211847Y-113570715D01*
X159210998Y-113499027D01*
X159210829Y-113446565D01*
X159211692Y-113345047D01*
X159215070Y-113268032D01*
X159222142Y-113211023D01*
X159234088Y-113169526D01*
X159252090Y-113139043D01*
X159277327Y-113115080D01*
X159302247Y-113098355D01*
X159362171Y-113076097D01*
X159431911Y-113071076D01*
X159497600Y-113083752D01*
G37*
X159497600Y-113083752D02*
X159514948Y-113091334D01*
X159556356Y-113124128D01*
X159591765Y-113171547D01*
X159613664Y-113222151D01*
X159617229Y-113247098D01*
X159605279Y-113281927D01*
X159579067Y-113300357D01*
X159550964Y-113311516D01*
X159538095Y-113313572D01*
X159531829Y-113298649D01*
X159519456Y-113266175D01*
X159514028Y-113251502D01*
X159483590Y-113200744D01*
X159439520Y-113175427D01*
X159383010Y-113176206D01*
X159378825Y-113177203D01*
X159348655Y-113191507D01*
X159326476Y-113219393D01*
X159311327Y-113264287D01*
X159302250Y-113329615D01*
X159298286Y-113418804D01*
X159297914Y-113466261D01*
X159297730Y-113541071D01*
X159296522Y-113592069D01*
X159293309Y-113624471D01*
X159287109Y-113643495D01*
X159276940Y-113654356D01*
X159261819Y-113662272D01*
X159260946Y-113662670D01*
X159231828Y-113674981D01*
X159217403Y-113679514D01*
X159215186Y-113665809D01*
X159213289Y-113627925D01*
X159211847Y-113570715D01*
X159210998Y-113499027D01*
X159210829Y-113446565D01*
X159211692Y-113345047D01*
X159215070Y-113268032D01*
X159222142Y-113211023D01*
X159234088Y-113169526D01*
X159252090Y-113139043D01*
X159277327Y-113115080D01*
X159302247Y-113098355D01*
X159362171Y-113076097D01*
X159431911Y-113071076D01*
X159497600Y-113083752D01*
G36*
X159998595Y-113091966D02*
G01*
X160056021Y-113129497D01*
X160083719Y-113163096D01*
X160105662Y-113224064D01*
X160107405Y-113272308D01*
X160103457Y-113336816D01*
X159954686Y-113401934D01*
X159882349Y-113435202D01*
X159835084Y-113461964D01*
X159810507Y-113485144D01*
X159806237Y-113507667D01*
X159819889Y-113532455D01*
X159834943Y-113548886D01*
X159878746Y-113575235D01*
X159926389Y-113577081D01*
X159970145Y-113556546D01*
X160002289Y-113515752D01*
X160008038Y-113501347D01*
X160035576Y-113456356D01*
X160067258Y-113437182D01*
X160110714Y-113420779D01*
X160110714Y-113482966D01*
X160106872Y-113525283D01*
X160091823Y-113560969D01*
X160060280Y-113601943D01*
X160055592Y-113607267D01*
X160020506Y-113643720D01*
X159990347Y-113663283D01*
X159952615Y-113672283D01*
X159921335Y-113675230D01*
X159865385Y-113675965D01*
X159825555Y-113666660D01*
X159800708Y-113652846D01*
X159761656Y-113622467D01*
X159734625Y-113589613D01*
X159717517Y-113548294D01*
X159708238Y-113492521D01*
X159704693Y-113416305D01*
X159704410Y-113377622D01*
X159705372Y-113331247D01*
X159793007Y-113331247D01*
X159794023Y-113356126D01*
X159796556Y-113360200D01*
X159813274Y-113354665D01*
X159849249Y-113340017D01*
X159897331Y-113319190D01*
X159907386Y-113314714D01*
X159968152Y-113283814D01*
X160001632Y-113256657D01*
X160008990Y-113231220D01*
X159991391Y-113205481D01*
X159976856Y-113194109D01*
X159924410Y-113171364D01*
X159875322Y-113175122D01*
X159834227Y-113202884D01*
X159805758Y-113252152D01*
X159796631Y-113291257D01*
X159793007Y-113331247D01*
X159705372Y-113331247D01*
X159706285Y-113287249D01*
X159713196Y-113220384D01*
X159726884Y-113171695D01*
X159749096Y-113135849D01*
X159781574Y-113107513D01*
X159795733Y-113098355D01*
X159860053Y-113074507D01*
X159930473Y-113073006D01*
X159998595Y-113091966D01*
G37*
X159998595Y-113091966D02*
X160056021Y-113129497D01*
X160083719Y-113163096D01*
X160105662Y-113224064D01*
X160107405Y-113272308D01*
X160103457Y-113336816D01*
X159954686Y-113401934D01*
X159882349Y-113435202D01*
X159835084Y-113461964D01*
X159810507Y-113485144D01*
X159806237Y-113507667D01*
X159819889Y-113532455D01*
X159834943Y-113548886D01*
X159878746Y-113575235D01*
X159926389Y-113577081D01*
X159970145Y-113556546D01*
X160002289Y-113515752D01*
X160008038Y-113501347D01*
X160035576Y-113456356D01*
X160067258Y-113437182D01*
X160110714Y-113420779D01*
X160110714Y-113482966D01*
X160106872Y-113525283D01*
X160091823Y-113560969D01*
X160060280Y-113601943D01*
X160055592Y-113607267D01*
X160020506Y-113643720D01*
X159990347Y-113663283D01*
X159952615Y-113672283D01*
X159921335Y-113675230D01*
X159865385Y-113675965D01*
X159825555Y-113666660D01*
X159800708Y-113652846D01*
X159761656Y-113622467D01*
X159734625Y-113589613D01*
X159717517Y-113548294D01*
X159708238Y-113492521D01*
X159704693Y-113416305D01*
X159704410Y-113377622D01*
X159705372Y-113331247D01*
X159793007Y-113331247D01*
X159794023Y-113356126D01*
X159796556Y-113360200D01*
X159813274Y-113354665D01*
X159849249Y-113340017D01*
X159897331Y-113319190D01*
X159907386Y-113314714D01*
X159968152Y-113283814D01*
X160001632Y-113256657D01*
X160008990Y-113231220D01*
X159991391Y-113205481D01*
X159976856Y-113194109D01*
X159924410Y-113171364D01*
X159875322Y-113175122D01*
X159834227Y-113202884D01*
X159805758Y-113252152D01*
X159796631Y-113291257D01*
X159793007Y-113331247D01*
X159705372Y-113331247D01*
X159706285Y-113287249D01*
X159713196Y-113220384D01*
X159726884Y-113171695D01*
X159749096Y-113135849D01*
X159781574Y-113107513D01*
X159795733Y-113098355D01*
X159860053Y-113074507D01*
X159930473Y-113073006D01*
X159998595Y-113091966D01*
G36*
X156948910Y-108367348D02*
G01*
X157027454Y-108367778D01*
X157084298Y-108368942D01*
X157123105Y-108371207D01*
X157147538Y-108374940D01*
X157161262Y-108380506D01*
X157167940Y-108388273D01*
X157171236Y-108398605D01*
X157171556Y-108399943D01*
X157176562Y-108424079D01*
X157185829Y-108471701D01*
X157198392Y-108537741D01*
X157213287Y-108617128D01*
X157229551Y-108704796D01*
X157230119Y-108707875D01*
X157246410Y-108793789D01*
X157261652Y-108869696D01*
X157274861Y-108931045D01*
X157285054Y-108973282D01*
X157291248Y-108991855D01*
X157291543Y-108992184D01*
X157309788Y-109001253D01*
X157347405Y-109016367D01*
X157396271Y-109034262D01*
X157396543Y-109034358D01*
X157458093Y-109057493D01*
X157530657Y-109086965D01*
X157599057Y-109116597D01*
X157602294Y-109118062D01*
X157713702Y-109168626D01*
X157960399Y-109000160D01*
X158036077Y-108948803D01*
X158104631Y-108902889D01*
X158162088Y-108865030D01*
X158204476Y-108837837D01*
X158227825Y-108823921D01*
X158230042Y-108822889D01*
X158247010Y-108827484D01*
X158278701Y-108849655D01*
X158326352Y-108890447D01*
X158391198Y-108950905D01*
X158457397Y-109015227D01*
X158521214Y-109078612D01*
X158578329Y-109136451D01*
X158625305Y-109185175D01*
X158658703Y-109221210D01*
X158675085Y-109240984D01*
X158675694Y-109242002D01*
X158677505Y-109255572D01*
X158670683Y-109277733D01*
X158653540Y-109311478D01*
X158624393Y-109359800D01*
X158581555Y-109425692D01*
X158524448Y-109510517D01*
X158473766Y-109585177D01*
X158428461Y-109652140D01*
X158391150Y-109707516D01*
X158364452Y-109747420D01*
X158350985Y-109767962D01*
X158350137Y-109769356D01*
X158351781Y-109789038D01*
X158364245Y-109827293D01*
X158385048Y-109876889D01*
X158392462Y-109892728D01*
X158424814Y-109963290D01*
X158459328Y-110043353D01*
X158487365Y-110112629D01*
X158507568Y-110164045D01*
X158523615Y-110203119D01*
X158532888Y-110223541D01*
X158534041Y-110225114D01*
X158551096Y-110227721D01*
X158591298Y-110234863D01*
X158649302Y-110245523D01*
X158719763Y-110258685D01*
X158797335Y-110273333D01*
X158876672Y-110288449D01*
X158952431Y-110303018D01*
X159019264Y-110316022D01*
X159071828Y-110326445D01*
X159104776Y-110333270D01*
X159112857Y-110335199D01*
X159121205Y-110339962D01*
X159127506Y-110350718D01*
X159132045Y-110371098D01*
X159135104Y-110404734D01*
X159136967Y-110455255D01*
X159137918Y-110526292D01*
X159138240Y-110621476D01*
X159138257Y-110660492D01*
X159138257Y-110977799D01*
X159062057Y-110992839D01*
X159019663Y-111000995D01*
X158956400Y-111012899D01*
X158879962Y-111027116D01*
X158798043Y-111042210D01*
X158775400Y-111046355D01*
X158699806Y-111061053D01*
X158633953Y-111075505D01*
X158583366Y-111088375D01*
X158553574Y-111098322D01*
X158548612Y-111101287D01*
X158536426Y-111122283D01*
X158518953Y-111162967D01*
X158499577Y-111215322D01*
X158495734Y-111226600D01*
X158470339Y-111296523D01*
X158438817Y-111375418D01*
X158407969Y-111446266D01*
X158407817Y-111446595D01*
X158356447Y-111557733D01*
X158525399Y-111806253D01*
X158694352Y-112054772D01*
X158477429Y-112272058D01*
X158411819Y-112336726D01*
X158351979Y-112393733D01*
X158301267Y-112440033D01*
X158263046Y-112472584D01*
X158240675Y-112488343D01*
X158237466Y-112489343D01*
X158218626Y-112481469D01*
X158180180Y-112459578D01*
X158126330Y-112426267D01*
X158061276Y-112384131D01*
X157990940Y-112336943D01*
X157919555Y-112288810D01*
X157855908Y-112246928D01*
X157804041Y-112213871D01*
X157767995Y-112192218D01*
X157751867Y-112184543D01*
X157732189Y-112191037D01*
X157694875Y-112208150D01*
X157647621Y-112232326D01*
X157642612Y-112235013D01*
X157578977Y-112266927D01*
X157535341Y-112282579D01*
X157508202Y-112282745D01*
X157494057Y-112268204D01*
X157493975Y-112268000D01*
X157486905Y-112250779D01*
X157470042Y-112209899D01*
X157444695Y-112148525D01*
X157412171Y-112069819D01*
X157373778Y-111976947D01*
X157330822Y-111873072D01*
X157289222Y-111772502D01*
X157243504Y-111661516D01*
X157201526Y-111558703D01*
X157164548Y-111467215D01*
X157133827Y-111390201D01*
X157110622Y-111330815D01*
X157096190Y-111292209D01*
X157091743Y-111277800D01*
X157102896Y-111261272D01*
X157132069Y-111234930D01*
X157170971Y-111205887D01*
X157281757Y-111114039D01*
X157368351Y-111008759D01*
X157429716Y-110892266D01*
X157464815Y-110766776D01*
X157472608Y-110634507D01*
X157466943Y-110573457D01*
X157436078Y-110446795D01*
X157382920Y-110334941D01*
X157310767Y-110239001D01*
X157222917Y-110160076D01*
X157122665Y-110099270D01*
X157013310Y-110057687D01*
X156898147Y-110036428D01*
X156780475Y-110036599D01*
X156663590Y-110059301D01*
X156550789Y-110105638D01*
X156445369Y-110176713D01*
X156401368Y-110216911D01*
X156316979Y-110320129D01*
X156258222Y-110432925D01*
X156224704Y-110552010D01*
X156216035Y-110674095D01*
X156231823Y-110795893D01*
X156271678Y-110914116D01*
X156335207Y-111025475D01*
X156422021Y-111126684D01*
X156519029Y-111205887D01*
X156559437Y-111236162D01*
X156587982Y-111262219D01*
X156598257Y-111277825D01*
X156592877Y-111294843D01*
X156577575Y-111335500D01*
X156553612Y-111396642D01*
X156522244Y-111475119D01*
X156484732Y-111567780D01*
X156442333Y-111671472D01*
X156400663Y-111772526D01*
X156354690Y-111883607D01*
X156312107Y-111986541D01*
X156274221Y-112078165D01*
X156242340Y-112155316D01*
X156217771Y-112214831D01*
X156201820Y-112253544D01*
X156195910Y-112268000D01*
X156181948Y-112282685D01*
X156154940Y-112282642D01*
X156111413Y-112267099D01*
X156047890Y-112235284D01*
X156047388Y-112235013D01*
X155999560Y-112210323D01*
X155960897Y-112192338D01*
X155939095Y-112184614D01*
X155938133Y-112184543D01*
X155921721Y-112192378D01*
X155885487Y-112214165D01*
X155833474Y-112247328D01*
X155769725Y-112289291D01*
X155699060Y-112336943D01*
X155627116Y-112385191D01*
X155562274Y-112427151D01*
X155508735Y-112460227D01*
X155470697Y-112481821D01*
X155452533Y-112489343D01*
X155435808Y-112479457D01*
X155402180Y-112451826D01*
X155355010Y-112409495D01*
X155297658Y-112355505D01*
X155233484Y-112292899D01*
X155212497Y-112271983D01*
X154995499Y-112054623D01*
X155160668Y-111812220D01*
X155210864Y-111737781D01*
X155254919Y-111670972D01*
X155290362Y-111615665D01*
X155314719Y-111575729D01*
X155325522Y-111555036D01*
X155325838Y-111553563D01*
X155320143Y-111534058D01*
X155304826Y-111494822D01*
X155282537Y-111442430D01*
X155266893Y-111407355D01*
X155237641Y-111340201D01*
X155210094Y-111272358D01*
X155188737Y-111215034D01*
X155182935Y-111197572D01*
X155166452Y-111150938D01*
X155150340Y-111114905D01*
X155141490Y-111101287D01*
X155121960Y-111092952D01*
X155079334Y-111081137D01*
X155019145Y-111067181D01*
X154946922Y-111052422D01*
X154914600Y-111046355D01*
X154832522Y-111031273D01*
X154753795Y-111016669D01*
X154686109Y-111003980D01*
X154637160Y-110994642D01*
X154627943Y-110992839D01*
X154551743Y-110977799D01*
X154551743Y-110660492D01*
X154551914Y-110556154D01*
X154552616Y-110477213D01*
X154554134Y-110420038D01*
X154556749Y-110380999D01*
X154560746Y-110356465D01*
X154566409Y-110342805D01*
X154574020Y-110336389D01*
X154577143Y-110335199D01*
X154595978Y-110330980D01*
X154637588Y-110322562D01*
X154696630Y-110310961D01*
X154767757Y-110297195D01*
X154845625Y-110282280D01*
X154924887Y-110267232D01*
X155000198Y-110253069D01*
X155066213Y-110240806D01*
X155117587Y-110231461D01*
X155148975Y-110226050D01*
X155155959Y-110225114D01*
X155162285Y-110212596D01*
X155176290Y-110179246D01*
X155195355Y-110131377D01*
X155202634Y-110112629D01*
X155231996Y-110040195D01*
X155266571Y-109960170D01*
X155297537Y-109892728D01*
X155320323Y-109841159D01*
X155335482Y-109798785D01*
X155340542Y-109772834D01*
X155339736Y-109769356D01*
X155329041Y-109752936D01*
X155304620Y-109716417D01*
X155269095Y-109663687D01*
X155225087Y-109598635D01*
X155175217Y-109525151D01*
X155165356Y-109510645D01*
X155107492Y-109424704D01*
X155064956Y-109359261D01*
X155036054Y-109311304D01*
X155019090Y-109277820D01*
X155012367Y-109255795D01*
X155014190Y-109242217D01*
X155014236Y-109242131D01*
X155028586Y-109224297D01*
X155060323Y-109189817D01*
X155106010Y-109142268D01*
X155162204Y-109085222D01*
X155225468Y-109022255D01*
X155232602Y-109015227D01*
X155312330Y-108938020D01*
X155373857Y-108881330D01*
X155418421Y-108844110D01*
X155447257Y-108825315D01*
X155459958Y-108822889D01*
X155478494Y-108833471D01*
X155516961Y-108857916D01*
X155571386Y-108893612D01*
X155637798Y-108937947D01*
X155712225Y-108988311D01*
X155729601Y-109000160D01*
X155976297Y-109168626D01*
X156087706Y-109118062D01*
X156155457Y-109088595D01*
X156228183Y-109058959D01*
X156290703Y-109035330D01*
X156293457Y-109034358D01*
X156342360Y-109016457D01*
X156380057Y-109001320D01*
X156398425Y-108992210D01*
X156398456Y-108992184D01*
X156404285Y-108975717D01*
X156414192Y-108935219D01*
X156427195Y-108875242D01*
X156442309Y-108800340D01*
X156458552Y-108715064D01*
X156459881Y-108707875D01*
X156476175Y-108620014D01*
X156491133Y-108540260D01*
X156503791Y-108473681D01*
X156513186Y-108425347D01*
X156518354Y-108400325D01*
X156518444Y-108399943D01*
X156521589Y-108389299D01*
X156527704Y-108381262D01*
X156540453Y-108375467D01*
X156563500Y-108371547D01*
X156600509Y-108369135D01*
X156655144Y-108367865D01*
X156731067Y-108367371D01*
X156831944Y-108367286D01*
X156845000Y-108367286D01*
X156948910Y-108367348D01*
G37*
X156948910Y-108367348D02*
X157027454Y-108367778D01*
X157084298Y-108368942D01*
X157123105Y-108371207D01*
X157147538Y-108374940D01*
X157161262Y-108380506D01*
X157167940Y-108388273D01*
X157171236Y-108398605D01*
X157171556Y-108399943D01*
X157176562Y-108424079D01*
X157185829Y-108471701D01*
X157198392Y-108537741D01*
X157213287Y-108617128D01*
X157229551Y-108704796D01*
X157230119Y-108707875D01*
X157246410Y-108793789D01*
X157261652Y-108869696D01*
X157274861Y-108931045D01*
X157285054Y-108973282D01*
X157291248Y-108991855D01*
X157291543Y-108992184D01*
X157309788Y-109001253D01*
X157347405Y-109016367D01*
X157396271Y-109034262D01*
X157396543Y-109034358D01*
X157458093Y-109057493D01*
X157530657Y-109086965D01*
X157599057Y-109116597D01*
X157602294Y-109118062D01*
X157713702Y-109168626D01*
X157960399Y-109000160D01*
X158036077Y-108948803D01*
X158104631Y-108902889D01*
X158162088Y-108865030D01*
X158204476Y-108837837D01*
X158227825Y-108823921D01*
X158230042Y-108822889D01*
X158247010Y-108827484D01*
X158278701Y-108849655D01*
X158326352Y-108890447D01*
X158391198Y-108950905D01*
X158457397Y-109015227D01*
X158521214Y-109078612D01*
X158578329Y-109136451D01*
X158625305Y-109185175D01*
X158658703Y-109221210D01*
X158675085Y-109240984D01*
X158675694Y-109242002D01*
X158677505Y-109255572D01*
X158670683Y-109277733D01*
X158653540Y-109311478D01*
X158624393Y-109359800D01*
X158581555Y-109425692D01*
X158524448Y-109510517D01*
X158473766Y-109585177D01*
X158428461Y-109652140D01*
X158391150Y-109707516D01*
X158364452Y-109747420D01*
X158350985Y-109767962D01*
X158350137Y-109769356D01*
X158351781Y-109789038D01*
X158364245Y-109827293D01*
X158385048Y-109876889D01*
X158392462Y-109892728D01*
X158424814Y-109963290D01*
X158459328Y-110043353D01*
X158487365Y-110112629D01*
X158507568Y-110164045D01*
X158523615Y-110203119D01*
X158532888Y-110223541D01*
X158534041Y-110225114D01*
X158551096Y-110227721D01*
X158591298Y-110234863D01*
X158649302Y-110245523D01*
X158719763Y-110258685D01*
X158797335Y-110273333D01*
X158876672Y-110288449D01*
X158952431Y-110303018D01*
X159019264Y-110316022D01*
X159071828Y-110326445D01*
X159104776Y-110333270D01*
X159112857Y-110335199D01*
X159121205Y-110339962D01*
X159127506Y-110350718D01*
X159132045Y-110371098D01*
X159135104Y-110404734D01*
X159136967Y-110455255D01*
X159137918Y-110526292D01*
X159138240Y-110621476D01*
X159138257Y-110660492D01*
X159138257Y-110977799D01*
X159062057Y-110992839D01*
X159019663Y-111000995D01*
X158956400Y-111012899D01*
X158879962Y-111027116D01*
X158798043Y-111042210D01*
X158775400Y-111046355D01*
X158699806Y-111061053D01*
X158633953Y-111075505D01*
X158583366Y-111088375D01*
X158553574Y-111098322D01*
X158548612Y-111101287D01*
X158536426Y-111122283D01*
X158518953Y-111162967D01*
X158499577Y-111215322D01*
X158495734Y-111226600D01*
X158470339Y-111296523D01*
X158438817Y-111375418D01*
X158407969Y-111446266D01*
X158407817Y-111446595D01*
X158356447Y-111557733D01*
X158525399Y-111806253D01*
X158694352Y-112054772D01*
X158477429Y-112272058D01*
X158411819Y-112336726D01*
X158351979Y-112393733D01*
X158301267Y-112440033D01*
X158263046Y-112472584D01*
X158240675Y-112488343D01*
X158237466Y-112489343D01*
X158218626Y-112481469D01*
X158180180Y-112459578D01*
X158126330Y-112426267D01*
X158061276Y-112384131D01*
X157990940Y-112336943D01*
X157919555Y-112288810D01*
X157855908Y-112246928D01*
X157804041Y-112213871D01*
X157767995Y-112192218D01*
X157751867Y-112184543D01*
X157732189Y-112191037D01*
X157694875Y-112208150D01*
X157647621Y-112232326D01*
X157642612Y-112235013D01*
X157578977Y-112266927D01*
X157535341Y-112282579D01*
X157508202Y-112282745D01*
X157494057Y-112268204D01*
X157493975Y-112268000D01*
X157486905Y-112250779D01*
X157470042Y-112209899D01*
X157444695Y-112148525D01*
X157412171Y-112069819D01*
X157373778Y-111976947D01*
X157330822Y-111873072D01*
X157289222Y-111772502D01*
X157243504Y-111661516D01*
X157201526Y-111558703D01*
X157164548Y-111467215D01*
X157133827Y-111390201D01*
X157110622Y-111330815D01*
X157096190Y-111292209D01*
X157091743Y-111277800D01*
X157102896Y-111261272D01*
X157132069Y-111234930D01*
X157170971Y-111205887D01*
X157281757Y-111114039D01*
X157368351Y-111008759D01*
X157429716Y-110892266D01*
X157464815Y-110766776D01*
X157472608Y-110634507D01*
X157466943Y-110573457D01*
X157436078Y-110446795D01*
X157382920Y-110334941D01*
X157310767Y-110239001D01*
X157222917Y-110160076D01*
X157122665Y-110099270D01*
X157013310Y-110057687D01*
X156898147Y-110036428D01*
X156780475Y-110036599D01*
X156663590Y-110059301D01*
X156550789Y-110105638D01*
X156445369Y-110176713D01*
X156401368Y-110216911D01*
X156316979Y-110320129D01*
X156258222Y-110432925D01*
X156224704Y-110552010D01*
X156216035Y-110674095D01*
X156231823Y-110795893D01*
X156271678Y-110914116D01*
X156335207Y-111025475D01*
X156422021Y-111126684D01*
X156519029Y-111205887D01*
X156559437Y-111236162D01*
X156587982Y-111262219D01*
X156598257Y-111277825D01*
X156592877Y-111294843D01*
X156577575Y-111335500D01*
X156553612Y-111396642D01*
X156522244Y-111475119D01*
X156484732Y-111567780D01*
X156442333Y-111671472D01*
X156400663Y-111772526D01*
X156354690Y-111883607D01*
X156312107Y-111986541D01*
X156274221Y-112078165D01*
X156242340Y-112155316D01*
X156217771Y-112214831D01*
X156201820Y-112253544D01*
X156195910Y-112268000D01*
X156181948Y-112282685D01*
X156154940Y-112282642D01*
X156111413Y-112267099D01*
X156047890Y-112235284D01*
X156047388Y-112235013D01*
X155999560Y-112210323D01*
X155960897Y-112192338D01*
X155939095Y-112184614D01*
X155938133Y-112184543D01*
X155921721Y-112192378D01*
X155885487Y-112214165D01*
X155833474Y-112247328D01*
X155769725Y-112289291D01*
X155699060Y-112336943D01*
X155627116Y-112385191D01*
X155562274Y-112427151D01*
X155508735Y-112460227D01*
X155470697Y-112481821D01*
X155452533Y-112489343D01*
X155435808Y-112479457D01*
X155402180Y-112451826D01*
X155355010Y-112409495D01*
X155297658Y-112355505D01*
X155233484Y-112292899D01*
X155212497Y-112271983D01*
X154995499Y-112054623D01*
X155160668Y-111812220D01*
X155210864Y-111737781D01*
X155254919Y-111670972D01*
X155290362Y-111615665D01*
X155314719Y-111575729D01*
X155325522Y-111555036D01*
X155325838Y-111553563D01*
X155320143Y-111534058D01*
X155304826Y-111494822D01*
X155282537Y-111442430D01*
X155266893Y-111407355D01*
X155237641Y-111340201D01*
X155210094Y-111272358D01*
X155188737Y-111215034D01*
X155182935Y-111197572D01*
X155166452Y-111150938D01*
X155150340Y-111114905D01*
X155141490Y-111101287D01*
X155121960Y-111092952D01*
X155079334Y-111081137D01*
X155019145Y-111067181D01*
X154946922Y-111052422D01*
X154914600Y-111046355D01*
X154832522Y-111031273D01*
X154753795Y-111016669D01*
X154686109Y-111003980D01*
X154637160Y-110994642D01*
X154627943Y-110992839D01*
X154551743Y-110977799D01*
X154551743Y-110660492D01*
X154551914Y-110556154D01*
X154552616Y-110477213D01*
X154554134Y-110420038D01*
X154556749Y-110380999D01*
X154560746Y-110356465D01*
X154566409Y-110342805D01*
X154574020Y-110336389D01*
X154577143Y-110335199D01*
X154595978Y-110330980D01*
X154637588Y-110322562D01*
X154696630Y-110310961D01*
X154767757Y-110297195D01*
X154845625Y-110282280D01*
X154924887Y-110267232D01*
X155000198Y-110253069D01*
X155066213Y-110240806D01*
X155117587Y-110231461D01*
X155148975Y-110226050D01*
X155155959Y-110225114D01*
X155162285Y-110212596D01*
X155176290Y-110179246D01*
X155195355Y-110131377D01*
X155202634Y-110112629D01*
X155231996Y-110040195D01*
X155266571Y-109960170D01*
X155297537Y-109892728D01*
X155320323Y-109841159D01*
X155335482Y-109798785D01*
X155340542Y-109772834D01*
X155339736Y-109769356D01*
X155329041Y-109752936D01*
X155304620Y-109716417D01*
X155269095Y-109663687D01*
X155225087Y-109598635D01*
X155175217Y-109525151D01*
X155165356Y-109510645D01*
X155107492Y-109424704D01*
X155064956Y-109359261D01*
X155036054Y-109311304D01*
X155019090Y-109277820D01*
X155012367Y-109255795D01*
X155014190Y-109242217D01*
X155014236Y-109242131D01*
X155028586Y-109224297D01*
X155060323Y-109189817D01*
X155106010Y-109142268D01*
X155162204Y-109085222D01*
X155225468Y-109022255D01*
X155232602Y-109015227D01*
X155312330Y-108938020D01*
X155373857Y-108881330D01*
X155418421Y-108844110D01*
X155447257Y-108825315D01*
X155459958Y-108822889D01*
X155478494Y-108833471D01*
X155516961Y-108857916D01*
X155571386Y-108893612D01*
X155637798Y-108937947D01*
X155712225Y-108988311D01*
X155729601Y-109000160D01*
X155976297Y-109168626D01*
X156087706Y-109118062D01*
X156155457Y-109088595D01*
X156228183Y-109058959D01*
X156290703Y-109035330D01*
X156293457Y-109034358D01*
X156342360Y-109016457D01*
X156380057Y-109001320D01*
X156398425Y-108992210D01*
X156398456Y-108992184D01*
X156404285Y-108975717D01*
X156414192Y-108935219D01*
X156427195Y-108875242D01*
X156442309Y-108800340D01*
X156458552Y-108715064D01*
X156459881Y-108707875D01*
X156476175Y-108620014D01*
X156491133Y-108540260D01*
X156503791Y-108473681D01*
X156513186Y-108425347D01*
X156518354Y-108400325D01*
X156518444Y-108399943D01*
X156521589Y-108389299D01*
X156527704Y-108381262D01*
X156540453Y-108375467D01*
X156563500Y-108371547D01*
X156600509Y-108369135D01*
X156655144Y-108367865D01*
X156731067Y-108367371D01*
X156831944Y-108367286D01*
X156845000Y-108367286D01*
X156948910Y-108367348D01*
G36*
X125610648Y-99504657D02*
G01*
X125887166Y-99508502D01*
X126159523Y-99514380D01*
X126415280Y-99522116D01*
X126641995Y-99531535D01*
X126827226Y-99542461D01*
X126958532Y-99554720D01*
X126963686Y-99555395D01*
X127118379Y-99579475D01*
X127216620Y-99606427D01*
X127272373Y-99643535D01*
X127299602Y-99698083D01*
X127306922Y-99734420D01*
X127312358Y-99782959D01*
X127307454Y-99821291D01*
X127285104Y-99850400D01*
X127238200Y-99871270D01*
X127159637Y-99884888D01*
X127042306Y-99892236D01*
X126879101Y-99894301D01*
X126662916Y-99892066D01*
X126386642Y-99886516D01*
X126234215Y-99883047D01*
X125923247Y-99876614D01*
X125676780Y-99873310D01*
X125488820Y-99873247D01*
X125353378Y-99876536D01*
X125264461Y-99883291D01*
X125216078Y-99893621D01*
X125203550Y-99902270D01*
X125196525Y-99948570D01*
X125191447Y-100053702D01*
X125188236Y-100205968D01*
X125186813Y-100393675D01*
X125187098Y-100605126D01*
X125189009Y-100828625D01*
X125192468Y-101052478D01*
X125197395Y-101264989D01*
X125203708Y-101454462D01*
X125211328Y-101609202D01*
X125215657Y-101670555D01*
X125223740Y-101787948D01*
X125233385Y-101956732D01*
X125243593Y-102157791D01*
X125253362Y-102372006D01*
X125257215Y-102464305D01*
X125266884Y-102662599D01*
X125278644Y-102840897D01*
X125291329Y-102985065D01*
X125303773Y-103080968D01*
X125310364Y-103108757D01*
X125318761Y-103187311D01*
X125270756Y-103258688D01*
X125165519Y-103318920D01*
X125038732Y-103313105D01*
X124951833Y-103276699D01*
X124868137Y-103206383D01*
X124819039Y-103134237D01*
X124805066Y-103069453D01*
X124790626Y-102937312D01*
X124775873Y-102741009D01*
X124760961Y-102483740D01*
X124746045Y-102168700D01*
X124731279Y-101799085D01*
X124716817Y-101378091D01*
X124702814Y-100908912D01*
X124692301Y-100511233D01*
X124685716Y-100315654D01*
X124676782Y-100144800D01*
X124666406Y-100011147D01*
X124655491Y-99927166D01*
X124648289Y-99904859D01*
X124603619Y-99897379D01*
X124503737Y-99898491D01*
X124363385Y-99907565D01*
X124197302Y-99923973D01*
X124195417Y-99924189D01*
X123733032Y-99975866D01*
X123335640Y-100017402D01*
X122998448Y-100049067D01*
X122716667Y-100071135D01*
X122485505Y-100083876D01*
X122300172Y-100087562D01*
X122155877Y-100082466D01*
X122047828Y-100068859D01*
X121978705Y-100049978D01*
X121918435Y-100001808D01*
X121877396Y-99925868D01*
X121864899Y-99848842D01*
X121890257Y-99797413D01*
X121890518Y-99797251D01*
X121937470Y-99787097D01*
X122039899Y-99775183D01*
X122182802Y-99762979D01*
X122351175Y-99751955D01*
X122354725Y-99751755D01*
X122549127Y-99739165D01*
X122743396Y-99723703D01*
X122912479Y-99707513D01*
X123013611Y-99695361D01*
X123130736Y-99680441D01*
X123299101Y-99661068D01*
X123499691Y-99639335D01*
X123713494Y-99617331D01*
X123807361Y-99608053D01*
X124020938Y-99586684D01*
X124229714Y-99564810D01*
X124414677Y-99544490D01*
X124556818Y-99527784D01*
X124601111Y-99522080D01*
X124711807Y-99513124D01*
X124880551Y-99507080D01*
X125094899Y-99503771D01*
X125342412Y-99503022D01*
X125610648Y-99504657D01*
G37*
X125610648Y-99504657D02*
X125887166Y-99508502D01*
X126159523Y-99514380D01*
X126415280Y-99522116D01*
X126641995Y-99531535D01*
X126827226Y-99542461D01*
X126958532Y-99554720D01*
X126963686Y-99555395D01*
X127118379Y-99579475D01*
X127216620Y-99606427D01*
X127272373Y-99643535D01*
X127299602Y-99698083D01*
X127306922Y-99734420D01*
X127312358Y-99782959D01*
X127307454Y-99821291D01*
X127285104Y-99850400D01*
X127238200Y-99871270D01*
X127159637Y-99884888D01*
X127042306Y-99892236D01*
X126879101Y-99894301D01*
X126662916Y-99892066D01*
X126386642Y-99886516D01*
X126234215Y-99883047D01*
X125923247Y-99876614D01*
X125676780Y-99873310D01*
X125488820Y-99873247D01*
X125353378Y-99876536D01*
X125264461Y-99883291D01*
X125216078Y-99893621D01*
X125203550Y-99902270D01*
X125196525Y-99948570D01*
X125191447Y-100053702D01*
X125188236Y-100205968D01*
X125186813Y-100393675D01*
X125187098Y-100605126D01*
X125189009Y-100828625D01*
X125192468Y-101052478D01*
X125197395Y-101264989D01*
X125203708Y-101454462D01*
X125211328Y-101609202D01*
X125215657Y-101670555D01*
X125223740Y-101787948D01*
X125233385Y-101956732D01*
X125243593Y-102157791D01*
X125253362Y-102372006D01*
X125257215Y-102464305D01*
X125266884Y-102662599D01*
X125278644Y-102840897D01*
X125291329Y-102985065D01*
X125303773Y-103080968D01*
X125310364Y-103108757D01*
X125318761Y-103187311D01*
X125270756Y-103258688D01*
X125165519Y-103318920D01*
X125038732Y-103313105D01*
X124951833Y-103276699D01*
X124868137Y-103206383D01*
X124819039Y-103134237D01*
X124805066Y-103069453D01*
X124790626Y-102937312D01*
X124775873Y-102741009D01*
X124760961Y-102483740D01*
X124746045Y-102168700D01*
X124731279Y-101799085D01*
X124716817Y-101378091D01*
X124702814Y-100908912D01*
X124692301Y-100511233D01*
X124685716Y-100315654D01*
X124676782Y-100144800D01*
X124666406Y-100011147D01*
X124655491Y-99927166D01*
X124648289Y-99904859D01*
X124603619Y-99897379D01*
X124503737Y-99898491D01*
X124363385Y-99907565D01*
X124197302Y-99923973D01*
X124195417Y-99924189D01*
X123733032Y-99975866D01*
X123335640Y-100017402D01*
X122998448Y-100049067D01*
X122716667Y-100071135D01*
X122485505Y-100083876D01*
X122300172Y-100087562D01*
X122155877Y-100082466D01*
X122047828Y-100068859D01*
X121978705Y-100049978D01*
X121918435Y-100001808D01*
X121877396Y-99925868D01*
X121864899Y-99848842D01*
X121890257Y-99797413D01*
X121890518Y-99797251D01*
X121937470Y-99787097D01*
X122039899Y-99775183D01*
X122182802Y-99762979D01*
X122351175Y-99751955D01*
X122354725Y-99751755D01*
X122549127Y-99739165D01*
X122743396Y-99723703D01*
X122912479Y-99707513D01*
X123013611Y-99695361D01*
X123130736Y-99680441D01*
X123299101Y-99661068D01*
X123499691Y-99639335D01*
X123713494Y-99617331D01*
X123807361Y-99608053D01*
X124020938Y-99586684D01*
X124229714Y-99564810D01*
X124414677Y-99544490D01*
X124556818Y-99527784D01*
X124601111Y-99522080D01*
X124711807Y-99513124D01*
X124880551Y-99507080D01*
X125094899Y-99503771D01*
X125342412Y-99503022D01*
X125610648Y-99504657D01*
G36*
X130119740Y-99316440D02*
G01*
X130187513Y-99325658D01*
X130303221Y-99351676D01*
X130375845Y-99396194D01*
X130423964Y-99459858D01*
X130475824Y-99576927D01*
X130527470Y-99751518D01*
X130576219Y-99970637D01*
X130619383Y-100221294D01*
X130654279Y-100490498D01*
X130669460Y-100647500D01*
X130686668Y-100840566D01*
X130705226Y-101030315D01*
X130722774Y-101193563D01*
X130735643Y-101297870D01*
X130748581Y-101422752D01*
X130751730Y-101527108D01*
X130747009Y-101574884D01*
X130747324Y-101640785D01*
X130763356Y-101665347D01*
X130786315Y-101708147D01*
X130819434Y-101803777D01*
X130858711Y-101936400D01*
X130900142Y-102090181D01*
X130939727Y-102249285D01*
X130973460Y-102397876D01*
X130997341Y-102520119D01*
X131007365Y-102600178D01*
X131005028Y-102621437D01*
X130945342Y-102654544D01*
X130840842Y-102647200D01*
X130728038Y-102610294D01*
X130629891Y-102533080D01*
X130538194Y-102386965D01*
X130453357Y-102173345D01*
X130375794Y-101893614D01*
X130305917Y-101549169D01*
X130244139Y-101141406D01*
X130210166Y-100858146D01*
X130187693Y-100651124D01*
X130168138Y-100467407D01*
X130152732Y-100318873D01*
X130142709Y-100217400D01*
X130139297Y-100175513D01*
X130125259Y-100176098D01*
X130089118Y-100226190D01*
X130038901Y-100311499D01*
X129982636Y-100417735D01*
X129928349Y-100530606D01*
X129891515Y-100616640D01*
X129769752Y-100909928D01*
X129660225Y-101142406D01*
X129557945Y-101321686D01*
X129457921Y-101455379D01*
X129355164Y-101551094D01*
X129244683Y-101616444D01*
X129232452Y-101621845D01*
X129039212Y-101668110D01*
X128836141Y-101650432D01*
X128631011Y-101573193D01*
X128431592Y-101440777D01*
X128245656Y-101257564D01*
X128080974Y-101027938D01*
X128034571Y-100946371D01*
X127924798Y-100741796D01*
X127899157Y-101117981D01*
X127889998Y-101351193D01*
X127890653Y-101613595D01*
X127900186Y-101882246D01*
X127917657Y-102134204D01*
X127942128Y-102346527D01*
X127951805Y-102405221D01*
X127999377Y-102544404D01*
X128075639Y-102657985D01*
X128136413Y-102729515D01*
X128153175Y-102788859D01*
X128134296Y-102871098D01*
X128129789Y-102884909D01*
X128063669Y-103009730D01*
X127968932Y-103070063D01*
X127845491Y-103065949D01*
X127792442Y-103048068D01*
X127694167Y-102973959D01*
X127604202Y-102841457D01*
X127527161Y-102662631D01*
X127467658Y-102449545D01*
X127430307Y-102214267D01*
X127420743Y-102076106D01*
X127411837Y-101706316D01*
X127411561Y-101346013D01*
X127419299Y-101002093D01*
X127434436Y-100681451D01*
X127456356Y-100390984D01*
X127484444Y-100137586D01*
X127518084Y-99928153D01*
X127556661Y-99769580D01*
X127599559Y-99668764D01*
X127638760Y-99633683D01*
X127693677Y-99590103D01*
X127720879Y-99532916D01*
X127768948Y-99466999D01*
X127871686Y-99439648D01*
X128031122Y-99450528D01*
X128118524Y-99467072D01*
X128149194Y-99474274D01*
X128172014Y-99487528D01*
X128189798Y-99517355D01*
X128205357Y-99574278D01*
X128221502Y-99668816D01*
X128241046Y-99811491D01*
X128266800Y-100012825D01*
X128269004Y-100030139D01*
X128327624Y-100367158D01*
X128410930Y-100662099D01*
X128516026Y-100908423D01*
X128640018Y-101099593D01*
X128780012Y-101229073D01*
X128807164Y-101245591D01*
X128878892Y-101277954D01*
X128934433Y-101269090D01*
X128994108Y-101228859D01*
X129045942Y-101181621D01*
X129099069Y-101113910D01*
X129158388Y-101016890D01*
X129228800Y-100881725D01*
X129315205Y-100699581D01*
X129422503Y-100461623D01*
X129433943Y-100435833D01*
X129516481Y-100249537D01*
X129601519Y-100057553D01*
X129678041Y-99884757D01*
X129726785Y-99774651D01*
X129793782Y-99635039D01*
X129864378Y-99506511D01*
X129924197Y-99415080D01*
X129928499Y-99409637D01*
X129987159Y-99344373D01*
X130041383Y-99316395D01*
X130119740Y-99316440D01*
G37*
X130119740Y-99316440D02*
X130187513Y-99325658D01*
X130303221Y-99351676D01*
X130375845Y-99396194D01*
X130423964Y-99459858D01*
X130475824Y-99576927D01*
X130527470Y-99751518D01*
X130576219Y-99970637D01*
X130619383Y-100221294D01*
X130654279Y-100490498D01*
X130669460Y-100647500D01*
X130686668Y-100840566D01*
X130705226Y-101030315D01*
X130722774Y-101193563D01*
X130735643Y-101297870D01*
X130748581Y-101422752D01*
X130751730Y-101527108D01*
X130747009Y-101574884D01*
X130747324Y-101640785D01*
X130763356Y-101665347D01*
X130786315Y-101708147D01*
X130819434Y-101803777D01*
X130858711Y-101936400D01*
X130900142Y-102090181D01*
X130939727Y-102249285D01*
X130973460Y-102397876D01*
X130997341Y-102520119D01*
X131007365Y-102600178D01*
X131005028Y-102621437D01*
X130945342Y-102654544D01*
X130840842Y-102647200D01*
X130728038Y-102610294D01*
X130629891Y-102533080D01*
X130538194Y-102386965D01*
X130453357Y-102173345D01*
X130375794Y-101893614D01*
X130305917Y-101549169D01*
X130244139Y-101141406D01*
X130210166Y-100858146D01*
X130187693Y-100651124D01*
X130168138Y-100467407D01*
X130152732Y-100318873D01*
X130142709Y-100217400D01*
X130139297Y-100175513D01*
X130125259Y-100176098D01*
X130089118Y-100226190D01*
X130038901Y-100311499D01*
X129982636Y-100417735D01*
X129928349Y-100530606D01*
X129891515Y-100616640D01*
X129769752Y-100909928D01*
X129660225Y-101142406D01*
X129557945Y-101321686D01*
X129457921Y-101455379D01*
X129355164Y-101551094D01*
X129244683Y-101616444D01*
X129232452Y-101621845D01*
X129039212Y-101668110D01*
X128836141Y-101650432D01*
X128631011Y-101573193D01*
X128431592Y-101440777D01*
X128245656Y-101257564D01*
X128080974Y-101027938D01*
X128034571Y-100946371D01*
X127924798Y-100741796D01*
X127899157Y-101117981D01*
X127889998Y-101351193D01*
X127890653Y-101613595D01*
X127900186Y-101882246D01*
X127917657Y-102134204D01*
X127942128Y-102346527D01*
X127951805Y-102405221D01*
X127999377Y-102544404D01*
X128075639Y-102657985D01*
X128136413Y-102729515D01*
X128153175Y-102788859D01*
X128134296Y-102871098D01*
X128129789Y-102884909D01*
X128063669Y-103009730D01*
X127968932Y-103070063D01*
X127845491Y-103065949D01*
X127792442Y-103048068D01*
X127694167Y-102973959D01*
X127604202Y-102841457D01*
X127527161Y-102662631D01*
X127467658Y-102449545D01*
X127430307Y-102214267D01*
X127420743Y-102076106D01*
X127411837Y-101706316D01*
X127411561Y-101346013D01*
X127419299Y-101002093D01*
X127434436Y-100681451D01*
X127456356Y-100390984D01*
X127484444Y-100137586D01*
X127518084Y-99928153D01*
X127556661Y-99769580D01*
X127599559Y-99668764D01*
X127638760Y-99633683D01*
X127693677Y-99590103D01*
X127720879Y-99532916D01*
X127768948Y-99466999D01*
X127871686Y-99439648D01*
X128031122Y-99450528D01*
X128118524Y-99467072D01*
X128149194Y-99474274D01*
X128172014Y-99487528D01*
X128189798Y-99517355D01*
X128205357Y-99574278D01*
X128221502Y-99668816D01*
X128241046Y-99811491D01*
X128266800Y-100012825D01*
X128269004Y-100030139D01*
X128327624Y-100367158D01*
X128410930Y-100662099D01*
X128516026Y-100908423D01*
X128640018Y-101099593D01*
X128780012Y-101229073D01*
X128807164Y-101245591D01*
X128878892Y-101277954D01*
X128934433Y-101269090D01*
X128994108Y-101228859D01*
X129045942Y-101181621D01*
X129099069Y-101113910D01*
X129158388Y-101016890D01*
X129228800Y-100881725D01*
X129315205Y-100699581D01*
X129422503Y-100461623D01*
X129433943Y-100435833D01*
X129516481Y-100249537D01*
X129601519Y-100057553D01*
X129678041Y-99884757D01*
X129726785Y-99774651D01*
X129793782Y-99635039D01*
X129864378Y-99506511D01*
X129924197Y-99415080D01*
X129928499Y-99409637D01*
X129987159Y-99344373D01*
X130041383Y-99316395D01*
X130119740Y-99316440D01*
G36*
X131767073Y-98654396D02*
G01*
X131899196Y-98703004D01*
X131930205Y-98723896D01*
X131951111Y-98773130D01*
X131973717Y-98882980D01*
X131996869Y-99043565D01*
X132019414Y-99245003D01*
X132040196Y-99477412D01*
X132058063Y-99730911D01*
X132067379Y-99898538D01*
X132075871Y-100094134D01*
X132085071Y-100227509D01*
X132104724Y-100306415D01*
X132144577Y-100338605D01*
X132214375Y-100331831D01*
X132323864Y-100293846D01*
X132482790Y-100232404D01*
X132485694Y-100231307D01*
X132606881Y-100185915D01*
X132700250Y-100151527D01*
X132748087Y-100134654D01*
X132750278Y-100134027D01*
X132811787Y-100111957D01*
X132933081Y-100061091D01*
X133093469Y-99990556D01*
X133215118Y-99939694D01*
X133326233Y-99898799D01*
X133375691Y-99883828D01*
X133465205Y-99869011D01*
X133581340Y-99859565D01*
X133704180Y-99855717D01*
X133813812Y-99857693D01*
X133890322Y-99865719D01*
X133914444Y-99877711D01*
X133940158Y-99892942D01*
X133958542Y-99888914D01*
X134019384Y-99895762D01*
X134065158Y-99920941D01*
X134105844Y-99984796D01*
X134092667Y-100057629D01*
X134038481Y-100125449D01*
X133956135Y-100174266D01*
X133858480Y-100190090D01*
X133822499Y-100185117D01*
X133762678Y-100184422D01*
X133669438Y-100195381D01*
X133566408Y-100213581D01*
X133477212Y-100234612D01*
X133425478Y-100254062D01*
X133420555Y-100260165D01*
X133390528Y-100287165D01*
X133324083Y-100311286D01*
X133255595Y-100335711D01*
X133139904Y-100384460D01*
X132993025Y-100450526D01*
X132830971Y-100526901D01*
X132826895Y-100528867D01*
X132661251Y-100609702D01*
X132549779Y-100667927D01*
X132482743Y-100710827D01*
X132450407Y-100745687D01*
X132443033Y-100779794D01*
X132448677Y-100811878D01*
X132500159Y-100930230D01*
X132584991Y-101051046D01*
X132672779Y-101134412D01*
X132739470Y-101180915D01*
X132830934Y-101245397D01*
X132856111Y-101263247D01*
X132959042Y-101332634D01*
X133086734Y-101413854D01*
X133159845Y-101458391D01*
X133269939Y-101529369D01*
X133362398Y-101598231D01*
X133402632Y-101634963D01*
X133472587Y-101692463D01*
X133575010Y-101755804D01*
X133618422Y-101778247D01*
X133732773Y-101846964D01*
X133833853Y-101929328D01*
X133858427Y-101955526D01*
X133923753Y-102022419D01*
X133975379Y-102057212D01*
X133982722Y-102058611D01*
X134018941Y-102077897D01*
X134020379Y-102085069D01*
X134046978Y-102120206D01*
X134112276Y-102172429D01*
X134126418Y-102182083D01*
X134232083Y-102283512D01*
X134274579Y-102400914D01*
X134272969Y-102448383D01*
X134291525Y-102507850D01*
X134347161Y-102579817D01*
X134354402Y-102586825D01*
X134427578Y-102673821D01*
X134435002Y-102735848D01*
X134376723Y-102773396D01*
X134373024Y-102774396D01*
X134291893Y-102760959D01*
X134236597Y-102709151D01*
X134184220Y-102657070D01*
X134148972Y-102647272D01*
X134148433Y-102647770D01*
X134128207Y-102641113D01*
X134124996Y-102620115D01*
X134094562Y-102545853D01*
X134016948Y-102457441D01*
X133908558Y-102371315D01*
X133830197Y-102324768D01*
X133725760Y-102257885D01*
X133638417Y-102180731D01*
X133625888Y-102166018D01*
X133574838Y-102109808D01*
X133544753Y-102092750D01*
X133543566Y-102093889D01*
X133509189Y-102088376D01*
X133435869Y-102052723D01*
X133342049Y-101997838D01*
X133246172Y-101934631D01*
X133166679Y-101874012D01*
X133155938Y-101864583D01*
X133077812Y-101806425D01*
X132968653Y-101739348D01*
X132913421Y-101709402D01*
X132804373Y-101649086D01*
X132712752Y-101591260D01*
X132682037Y-101568291D01*
X132573012Y-101476980D01*
X132505166Y-101422598D01*
X132466265Y-101395976D01*
X132444075Y-101387944D01*
X132441194Y-101387769D01*
X132401168Y-101365998D01*
X132330539Y-101311721D01*
X132295705Y-101281936D01*
X132217333Y-101218352D01*
X132159119Y-101180897D01*
X132145775Y-101176666D01*
X132120268Y-101208393D01*
X132112892Y-101295544D01*
X132121137Y-101426072D01*
X132142495Y-101587932D01*
X132174457Y-101769077D01*
X132214516Y-101957462D01*
X132260162Y-102141040D01*
X132308888Y-102307765D01*
X132358185Y-102445592D01*
X132405545Y-102542474D01*
X132438199Y-102580958D01*
X132490528Y-102651390D01*
X132503333Y-102709246D01*
X132487895Y-102770649D01*
X132428743Y-102801015D01*
X132391679Y-102807823D01*
X132299973Y-102806229D01*
X132218016Y-102761890D01*
X132174780Y-102723633D01*
X132103337Y-102660696D01*
X132052704Y-102625647D01*
X132044308Y-102623055D01*
X132014862Y-102592340D01*
X131970804Y-102511514D01*
X131919367Y-102397552D01*
X131867785Y-102267433D01*
X131823290Y-102138132D01*
X131796310Y-102040972D01*
X131765283Y-101908599D01*
X131735127Y-101781839D01*
X131725287Y-101741111D01*
X131690510Y-101563899D01*
X131661799Y-101340325D01*
X131638697Y-101064674D01*
X131620746Y-100731228D01*
X131607489Y-100334272D01*
X131605247Y-100241805D01*
X131593391Y-99867126D01*
X131575556Y-99549007D01*
X131550399Y-99273603D01*
X131516579Y-99027072D01*
X131472754Y-98795570D01*
X131458993Y-98733680D01*
X131449354Y-98674946D01*
X131466777Y-98646532D01*
X131527481Y-98637435D01*
X131601956Y-98636666D01*
X131767073Y-98654396D01*
G37*
X131767073Y-98654396D02*
X131899196Y-98703004D01*
X131930205Y-98723896D01*
X131951111Y-98773130D01*
X131973717Y-98882980D01*
X131996869Y-99043565D01*
X132019414Y-99245003D01*
X132040196Y-99477412D01*
X132058063Y-99730911D01*
X132067379Y-99898538D01*
X132075871Y-100094134D01*
X132085071Y-100227509D01*
X132104724Y-100306415D01*
X132144577Y-100338605D01*
X132214375Y-100331831D01*
X132323864Y-100293846D01*
X132482790Y-100232404D01*
X132485694Y-100231307D01*
X132606881Y-100185915D01*
X132700250Y-100151527D01*
X132748087Y-100134654D01*
X132750278Y-100134027D01*
X132811787Y-100111957D01*
X132933081Y-100061091D01*
X133093469Y-99990556D01*
X133215118Y-99939694D01*
X133326233Y-99898799D01*
X133375691Y-99883828D01*
X133465205Y-99869011D01*
X133581340Y-99859565D01*
X133704180Y-99855717D01*
X133813812Y-99857693D01*
X133890322Y-99865719D01*
X133914444Y-99877711D01*
X133940158Y-99892942D01*
X133958542Y-99888914D01*
X134019384Y-99895762D01*
X134065158Y-99920941D01*
X134105844Y-99984796D01*
X134092667Y-100057629D01*
X134038481Y-100125449D01*
X133956135Y-100174266D01*
X133858480Y-100190090D01*
X133822499Y-100185117D01*
X133762678Y-100184422D01*
X133669438Y-100195381D01*
X133566408Y-100213581D01*
X133477212Y-100234612D01*
X133425478Y-100254062D01*
X133420555Y-100260165D01*
X133390528Y-100287165D01*
X133324083Y-100311286D01*
X133255595Y-100335711D01*
X133139904Y-100384460D01*
X132993025Y-100450526D01*
X132830971Y-100526901D01*
X132826895Y-100528867D01*
X132661251Y-100609702D01*
X132549779Y-100667927D01*
X132482743Y-100710827D01*
X132450407Y-100745687D01*
X132443033Y-100779794D01*
X132448677Y-100811878D01*
X132500159Y-100930230D01*
X132584991Y-101051046D01*
X132672779Y-101134412D01*
X132739470Y-101180915D01*
X132830934Y-101245397D01*
X132856111Y-101263247D01*
X132959042Y-101332634D01*
X133086734Y-101413854D01*
X133159845Y-101458391D01*
X133269939Y-101529369D01*
X133362398Y-101598231D01*
X133402632Y-101634963D01*
X133472587Y-101692463D01*
X133575010Y-101755804D01*
X133618422Y-101778247D01*
X133732773Y-101846964D01*
X133833853Y-101929328D01*
X133858427Y-101955526D01*
X133923753Y-102022419D01*
X133975379Y-102057212D01*
X133982722Y-102058611D01*
X134018941Y-102077897D01*
X134020379Y-102085069D01*
X134046978Y-102120206D01*
X134112276Y-102172429D01*
X134126418Y-102182083D01*
X134232083Y-102283512D01*
X134274579Y-102400914D01*
X134272969Y-102448383D01*
X134291525Y-102507850D01*
X134347161Y-102579817D01*
X134354402Y-102586825D01*
X134427578Y-102673821D01*
X134435002Y-102735848D01*
X134376723Y-102773396D01*
X134373024Y-102774396D01*
X134291893Y-102760959D01*
X134236597Y-102709151D01*
X134184220Y-102657070D01*
X134148972Y-102647272D01*
X134148433Y-102647770D01*
X134128207Y-102641113D01*
X134124996Y-102620115D01*
X134094562Y-102545853D01*
X134016948Y-102457441D01*
X133908558Y-102371315D01*
X133830197Y-102324768D01*
X133725760Y-102257885D01*
X133638417Y-102180731D01*
X133625888Y-102166018D01*
X133574838Y-102109808D01*
X133544753Y-102092750D01*
X133543566Y-102093889D01*
X133509189Y-102088376D01*
X133435869Y-102052723D01*
X133342049Y-101997838D01*
X133246172Y-101934631D01*
X133166679Y-101874012D01*
X133155938Y-101864583D01*
X133077812Y-101806425D01*
X132968653Y-101739348D01*
X132913421Y-101709402D01*
X132804373Y-101649086D01*
X132712752Y-101591260D01*
X132682037Y-101568291D01*
X132573012Y-101476980D01*
X132505166Y-101422598D01*
X132466265Y-101395976D01*
X132444075Y-101387944D01*
X132441194Y-101387769D01*
X132401168Y-101365998D01*
X132330539Y-101311721D01*
X132295705Y-101281936D01*
X132217333Y-101218352D01*
X132159119Y-101180897D01*
X132145775Y-101176666D01*
X132120268Y-101208393D01*
X132112892Y-101295544D01*
X132121137Y-101426072D01*
X132142495Y-101587932D01*
X132174457Y-101769077D01*
X132214516Y-101957462D01*
X132260162Y-102141040D01*
X132308888Y-102307765D01*
X132358185Y-102445592D01*
X132405545Y-102542474D01*
X132438199Y-102580958D01*
X132490528Y-102651390D01*
X132503333Y-102709246D01*
X132487895Y-102770649D01*
X132428743Y-102801015D01*
X132391679Y-102807823D01*
X132299973Y-102806229D01*
X132218016Y-102761890D01*
X132174780Y-102723633D01*
X132103337Y-102660696D01*
X132052704Y-102625647D01*
X132044308Y-102623055D01*
X132014862Y-102592340D01*
X131970804Y-102511514D01*
X131919367Y-102397552D01*
X131867785Y-102267433D01*
X131823290Y-102138132D01*
X131796310Y-102040972D01*
X131765283Y-101908599D01*
X131735127Y-101781839D01*
X131725287Y-101741111D01*
X131690510Y-101563899D01*
X131661799Y-101340325D01*
X131638697Y-101064674D01*
X131620746Y-100731228D01*
X131607489Y-100334272D01*
X131605247Y-100241805D01*
X131593391Y-99867126D01*
X131575556Y-99549007D01*
X131550399Y-99273603D01*
X131516579Y-99027072D01*
X131472754Y-98795570D01*
X131458993Y-98733680D01*
X131449354Y-98674946D01*
X131466777Y-98646532D01*
X131527481Y-98637435D01*
X131601956Y-98636666D01*
X131767073Y-98654396D01*
D12*
X146280000Y-101600000D02*
X145510000Y-101600000D01*
X138200000Y-101600000D02*
X138970000Y-101600000D01*
X145510000Y-100230000D02*
X138970000Y-100230000D01*
X145510000Y-102970000D02*
X145510000Y-100230000D01*
X138970000Y-102970000D02*
X145510000Y-102970000D01*
X138970000Y-100230000D02*
X138970000Y-102970000D01*
X163290000Y-116940000D02*
X163290000Y-114200000D01*
X163290000Y-114200000D02*
X156750000Y-114200000D01*
X156750000Y-114200000D02*
X156750000Y-116940000D01*
X156750000Y-116940000D02*
X163290000Y-116940000D01*
X164060000Y-115570000D02*
X163290000Y-115570000D01*
X155980000Y-115570000D02*
X156750000Y-115570000D01*
X155980000Y-101600000D02*
X156750000Y-101600000D01*
X164060000Y-101600000D02*
X163290000Y-101600000D01*
X156750000Y-102970000D02*
X163290000Y-102970000D01*
X156750000Y-100230000D02*
X156750000Y-102970000D01*
X163290000Y-100230000D02*
X156750000Y-100230000D01*
X163290000Y-102970000D02*
X163290000Y-100230000D01*
D10*
X142073333Y-99682380D02*
X141740000Y-99206190D01*
X141501904Y-99682380D02*
X141501904Y-98682380D01*
X141882857Y-98682380D01*
X141978095Y-98730000D01*
X142025714Y-98777619D01*
X142073333Y-98872857D01*
X142073333Y-99015714D01*
X142025714Y-99110952D01*
X141978095Y-99158571D01*
X141882857Y-99206190D01*
X141501904Y-99206190D01*
X142454285Y-98777619D02*
X142501904Y-98730000D01*
X142597142Y-98682380D01*
X142835238Y-98682380D01*
X142930476Y-98730000D01*
X142978095Y-98777619D01*
X143025714Y-98872857D01*
X143025714Y-98968095D01*
X142978095Y-99110952D01*
X142406666Y-99682380D01*
X143025714Y-99682380D01*
X159853333Y-118392380D02*
X159520000Y-117916190D01*
X159281904Y-118392380D02*
X159281904Y-117392380D01*
X159662857Y-117392380D01*
X159758095Y-117440000D01*
X159805714Y-117487619D01*
X159853333Y-117582857D01*
X159853333Y-117725714D01*
X159805714Y-117820952D01*
X159758095Y-117868571D01*
X159662857Y-117916190D01*
X159281904Y-117916190D01*
X160186666Y-117392380D02*
X160805714Y-117392380D01*
X160472380Y-117773333D01*
X160615238Y-117773333D01*
X160710476Y-117820952D01*
X160758095Y-117868571D01*
X160805714Y-117963809D01*
X160805714Y-118201904D01*
X160758095Y-118297142D01*
X160710476Y-118344761D01*
X160615238Y-118392380D01*
X160329523Y-118392380D01*
X160234285Y-118344761D01*
X160186666Y-118297142D01*
X159853333Y-104422380D02*
X159520000Y-103946190D01*
X159281904Y-104422380D02*
X159281904Y-103422380D01*
X159662857Y-103422380D01*
X159758095Y-103470000D01*
X159805714Y-103517619D01*
X159853333Y-103612857D01*
X159853333Y-103755714D01*
X159805714Y-103850952D01*
X159758095Y-103898571D01*
X159662857Y-103946190D01*
X159281904Y-103946190D01*
X160710476Y-103755714D02*
X160710476Y-104422380D01*
X160472380Y-103374761D02*
X160234285Y-104089047D01*
X160853333Y-104089047D01*
M02*
