G04 #@! TF.GenerationSoftware,KiCad,Pcbnew,(5.1.9)-1*
G04 #@! TF.CreationDate,2021-01-29T19:09:00+08:00*
G04 #@! TF.ProjectId,board,626f6172-642e-46b6-9963-61645f706362,rev?*
G04 #@! TF.SameCoordinates,Original*
G04 #@! TF.FileFunction,Profile,NP*
%FSLAX46Y46*%
G04 Gerber Fmt 4.6, Leading zero omitted, Abs format (unit mm)*
G04 Created by KiCad (PCBNEW (5.1.9)-1) date 2021-01-29 19:09:00*
%MOMM*%
%LPD*%
G01*
G04 APERTURE LIST*
G04 #@! TA.AperFunction,Profile*
%ADD10C,0.050000*%
G04 #@! TD*
G04 APERTURE END LIST*
D10*
X119008026Y-100330000D02*
G75*
G03*
X119008026Y-100330000I-898026J0D01*
G01*
X118110000Y-98425000D02*
X135890000Y-98425000D01*
X116205000Y-115570000D02*
X116205000Y-100330000D01*
X135890000Y-117475000D02*
X118110000Y-117475000D01*
X118110000Y-117475000D02*
G75*
G02*
X116205000Y-115570000I0J1905000D01*
G01*
X116205000Y-100330000D02*
G75*
G02*
X118110000Y-98425000I1905000J0D01*
G01*
X173990000Y-98425000D02*
X171450000Y-98425000D01*
X175895000Y-115570000D02*
X175895000Y-100330000D01*
X171450000Y-117475000D02*
X173990000Y-117475000D01*
X175895000Y-115570000D02*
G75*
G02*
X173990000Y-117475000I-1905000J0D01*
G01*
X173990000Y-98425000D02*
G75*
G02*
X175895000Y-100330000I0J-1905000D01*
G01*
X135890000Y-98425000D02*
X135890000Y-97790000D01*
X135890000Y-118110000D02*
X135890000Y-117475000D01*
X171450000Y-117475000D02*
X171450000Y-118110000D01*
X171450000Y-97790000D02*
X171450000Y-98425000D01*
X138430000Y-120650000D02*
X168910000Y-120650000D01*
X138430000Y-120650000D02*
G75*
G02*
X135890000Y-118110000I0J2540000D01*
G01*
X138430000Y-95250000D02*
X168910000Y-95250000D01*
X135890000Y-97790000D02*
G75*
G02*
X138430000Y-95250000I2540000J0D01*
G01*
X168910000Y-95250000D02*
G75*
G02*
X171450000Y-97790000I0J-2540000D01*
G01*
X171450000Y-118110000D02*
G75*
G02*
X168910000Y-120650000I-2540000J0D01*
G01*
M02*
