M48
; DRILL file {KiCad (5.1.9)-1} date 01/29/21 19:09:59
; FORMAT={-:-/ absolute / inch / decimal}
; #@! TF.CreationDate,2021-01-29T19:09:59+08:00
; #@! TF.GenerationSoftware,Kicad,Pcbnew,(5.1.9)-1
; #@! TF.FileFunction,Plated,1,2,PTH
FMAT,2
INCH
T1C0.0300
T2C0.0315
T3C0.0579
%
G90
G05
T1
X5.5Y-3.8
X5.5Y-4.7
X5.6Y-3.8
X5.6Y-4.7
X5.7Y-3.8
X5.7Y-4.7
X5.8Y-3.8
X5.8Y-4.7
X5.9Y-3.8
X5.9Y-4.7
X6.0Y-3.8
X6.0Y-4.7
X6.1Y-3.8
X6.1Y-4.7
X6.2Y-3.8
X6.2Y-4.7
X6.3Y-3.8
X6.3Y-4.7
X6.4Y-3.8
X6.4Y-4.7
X6.5Y-3.8
X6.5Y-4.7
X6.6Y-3.8
X6.6Y-4.7
T2
X5.4Y-4.0
X5.8Y-4.0
X6.1Y-4.0
X6.1Y-4.55
X6.5Y-4.0
X6.5Y-4.55
T3
X4.8Y-4.35
X4.8516Y-4.4075
X5.0484Y-4.4272
X5.05Y-4.45
X5.6Y-4.35
X5.6516Y-4.4075
X5.8484Y-4.4272
X5.85Y-4.45
X6.4Y-4.35
X6.4516Y-4.4075
X6.6484Y-4.4272
X6.65Y-4.45
T0
M30
