G04 #@! TF.GenerationSoftware,KiCad,Pcbnew,(5.1.9)-1*
G04 #@! TF.CreationDate,2021-01-29T19:09:00+08:00*
G04 #@! TF.ProjectId,board,626f6172-642e-46b6-9963-61645f706362,rev?*
G04 #@! TF.SameCoordinates,Original*
G04 #@! TF.FileFunction,Legend,Bot*
G04 #@! TF.FilePolarity,Positive*
%FSLAX46Y46*%
G04 Gerber Fmt 4.6, Leading zero omitted, Abs format (unit mm)*
G04 Created by KiCad (PCBNEW (5.1.9)-1) date 2021-01-29 19:09:00*
%MOMM*%
%LPD*%
G01*
G04 APERTURE LIST*
%ADD10C,0.150000*%
%ADD11C,0.010000*%
G04 APERTURE END LIST*
D10*
X145581190Y-116022380D02*
X145581190Y-115022380D01*
X145581190Y-115498571D02*
X145009761Y-115498571D01*
X145009761Y-116022380D02*
X145009761Y-115022380D01*
X144152619Y-115974761D02*
X144247857Y-116022380D01*
X144438333Y-116022380D01*
X144533571Y-115974761D01*
X144581190Y-115879523D01*
X144581190Y-115498571D01*
X144533571Y-115403333D01*
X144438333Y-115355714D01*
X144247857Y-115355714D01*
X144152619Y-115403333D01*
X144105000Y-115498571D01*
X144105000Y-115593809D01*
X144581190Y-115689047D01*
X143533571Y-116022380D02*
X143628809Y-115974761D01*
X143676428Y-115879523D01*
X143676428Y-115022380D01*
X143009761Y-116022380D02*
X143105000Y-115974761D01*
X143152619Y-115879523D01*
X143152619Y-115022380D01*
X142485952Y-116022380D02*
X142581190Y-115974761D01*
X142628809Y-115927142D01*
X142676428Y-115831904D01*
X142676428Y-115546190D01*
X142628809Y-115450952D01*
X142581190Y-115403333D01*
X142485952Y-115355714D01*
X142343095Y-115355714D01*
X142247857Y-115403333D01*
X142200238Y-115450952D01*
X142152619Y-115546190D01*
X142152619Y-115831904D01*
X142200238Y-115927142D01*
X142247857Y-115974761D01*
X142343095Y-116022380D01*
X142485952Y-116022380D01*
X141676428Y-115974761D02*
X141676428Y-116022380D01*
X141724047Y-116117619D01*
X141771666Y-116165238D01*
X141343095Y-115022380D02*
X141105000Y-116022380D01*
X140914523Y-115308095D01*
X140724047Y-116022380D01*
X140485952Y-115022380D01*
X139962142Y-116022380D02*
X140057380Y-115974761D01*
X140105000Y-115927142D01*
X140152619Y-115831904D01*
X140152619Y-115546190D01*
X140105000Y-115450952D01*
X140057380Y-115403333D01*
X139962142Y-115355714D01*
X139819285Y-115355714D01*
X139724047Y-115403333D01*
X139676428Y-115450952D01*
X139628809Y-115546190D01*
X139628809Y-115831904D01*
X139676428Y-115927142D01*
X139724047Y-115974761D01*
X139819285Y-116022380D01*
X139962142Y-116022380D01*
X139200238Y-116022380D02*
X139200238Y-115355714D01*
X139200238Y-115546190D02*
X139152619Y-115450952D01*
X139105000Y-115403333D01*
X139009761Y-115355714D01*
X138914523Y-115355714D01*
X138438333Y-116022380D02*
X138533571Y-115974761D01*
X138581190Y-115879523D01*
X138581190Y-115022380D01*
X137628809Y-116022380D02*
X137628809Y-115022380D01*
X137628809Y-115974761D02*
X137724047Y-116022380D01*
X137914523Y-116022380D01*
X138009761Y-115974761D01*
X138057380Y-115927142D01*
X138105000Y-115831904D01*
X138105000Y-115546190D01*
X138057380Y-115450952D01*
X138009761Y-115403333D01*
X137914523Y-115355714D01*
X137724047Y-115355714D01*
X137628809Y-115403333D01*
X160186666Y-116022380D02*
X160520000Y-115546190D01*
X160758095Y-116022380D02*
X160758095Y-115022380D01*
X160377142Y-115022380D01*
X160281904Y-115070000D01*
X160234285Y-115117619D01*
X160186666Y-115212857D01*
X160186666Y-115355714D01*
X160234285Y-115450952D01*
X160281904Y-115498571D01*
X160377142Y-115546190D01*
X160758095Y-115546190D01*
X159853333Y-115022380D02*
X159234285Y-115022380D01*
X159567619Y-115403333D01*
X159424761Y-115403333D01*
X159329523Y-115450952D01*
X159281904Y-115498571D01*
X159234285Y-115593809D01*
X159234285Y-115831904D01*
X159281904Y-115927142D01*
X159329523Y-115974761D01*
X159424761Y-116022380D01*
X159710476Y-116022380D01*
X159805714Y-115974761D01*
X159853333Y-115927142D01*
X142406666Y-102052380D02*
X142740000Y-101576190D01*
X142978095Y-102052380D02*
X142978095Y-101052380D01*
X142597142Y-101052380D01*
X142501904Y-101100000D01*
X142454285Y-101147619D01*
X142406666Y-101242857D01*
X142406666Y-101385714D01*
X142454285Y-101480952D01*
X142501904Y-101528571D01*
X142597142Y-101576190D01*
X142978095Y-101576190D01*
X142025714Y-101147619D02*
X141978095Y-101100000D01*
X141882857Y-101052380D01*
X141644761Y-101052380D01*
X141549523Y-101100000D01*
X141501904Y-101147619D01*
X141454285Y-101242857D01*
X141454285Y-101338095D01*
X141501904Y-101480952D01*
X142073333Y-102052380D01*
X141454285Y-102052380D01*
X160186666Y-102052380D02*
X160520000Y-101576190D01*
X160758095Y-102052380D02*
X160758095Y-101052380D01*
X160377142Y-101052380D01*
X160281904Y-101100000D01*
X160234285Y-101147619D01*
X160186666Y-101242857D01*
X160186666Y-101385714D01*
X160234285Y-101480952D01*
X160281904Y-101528571D01*
X160377142Y-101576190D01*
X160758095Y-101576190D01*
X159329523Y-101385714D02*
X159329523Y-102052380D01*
X159567619Y-101004761D02*
X159805714Y-101719047D01*
X159186666Y-101719047D01*
X167108095Y-105227380D02*
X167108095Y-104227380D01*
X166536666Y-105227380D02*
X166965238Y-104655952D01*
X166536666Y-104227380D02*
X167108095Y-104798809D01*
X166203333Y-104227380D02*
X165584285Y-104227380D01*
X165917619Y-104608333D01*
X165774761Y-104608333D01*
X165679523Y-104655952D01*
X165631904Y-104703571D01*
X165584285Y-104798809D01*
X165584285Y-105036904D01*
X165631904Y-105132142D01*
X165679523Y-105179761D01*
X165774761Y-105227380D01*
X166060476Y-105227380D01*
X166155714Y-105179761D01*
X166203333Y-105132142D01*
X146788095Y-105227380D02*
X146788095Y-104227380D01*
X146216666Y-105227380D02*
X146645238Y-104655952D01*
X146216666Y-104227380D02*
X146788095Y-104798809D01*
X145359523Y-104560714D02*
X145359523Y-105227380D01*
X145597619Y-104179761D02*
X145835714Y-104894047D01*
X145216666Y-104894047D01*
X130913095Y-110942380D02*
X130913095Y-109942380D01*
X130341666Y-110942380D02*
X130770238Y-110370952D01*
X130341666Y-109942380D02*
X130913095Y-110513809D01*
X129960714Y-110037619D02*
X129913095Y-109990000D01*
X129817857Y-109942380D01*
X129579761Y-109942380D01*
X129484523Y-109990000D01*
X129436904Y-110037619D01*
X129389285Y-110132857D01*
X129389285Y-110228095D01*
X129436904Y-110370952D01*
X130008333Y-110942380D01*
X129389285Y-110942380D01*
D11*
G36*
X131216400Y-99724054D02*
G01*
X131205535Y-99837993D01*
X131173918Y-99945616D01*
X131123015Y-100044615D01*
X131054293Y-100132684D01*
X130969219Y-100207516D01*
X130872232Y-100265384D01*
X130765964Y-100305005D01*
X130658950Y-100323573D01*
X130553300Y-100322434D01*
X130451125Y-100302930D01*
X130354534Y-100266406D01*
X130265638Y-100214205D01*
X130186546Y-100147673D01*
X130119369Y-100068152D01*
X130066217Y-99976987D01*
X130029199Y-99875523D01*
X130010427Y-99765102D01*
X130008489Y-99715206D01*
X130008489Y-99627267D01*
X129956560Y-99627267D01*
X129920253Y-99630111D01*
X129893355Y-99641911D01*
X129866249Y-99665649D01*
X129827867Y-99704031D01*
X129827867Y-101895602D01*
X129827876Y-102157739D01*
X129827908Y-102398241D01*
X129827972Y-102618048D01*
X129828076Y-102818101D01*
X129828227Y-102999344D01*
X129828434Y-103162716D01*
X129828706Y-103309160D01*
X129829050Y-103439617D01*
X129829474Y-103555029D01*
X129829987Y-103656338D01*
X129830597Y-103744484D01*
X129831312Y-103820410D01*
X129832140Y-103885057D01*
X129833089Y-103939367D01*
X129834167Y-103984280D01*
X129835383Y-104020740D01*
X129836745Y-104049687D01*
X129838261Y-104072063D01*
X129839938Y-104088809D01*
X129841786Y-104100868D01*
X129843813Y-104109180D01*
X129846025Y-104114687D01*
X129847108Y-104116537D01*
X129851271Y-104123549D01*
X129854805Y-104129996D01*
X129858635Y-104135900D01*
X129863682Y-104141286D01*
X129870871Y-104146178D01*
X129881123Y-104150598D01*
X129895364Y-104154572D01*
X129914514Y-104158121D01*
X129939499Y-104161270D01*
X129971240Y-104164042D01*
X130010662Y-104166461D01*
X130058686Y-104168551D01*
X130116237Y-104170335D01*
X130184237Y-104171837D01*
X130263610Y-104173080D01*
X130355279Y-104174089D01*
X130460166Y-104174885D01*
X130579196Y-104175494D01*
X130713290Y-104175939D01*
X130863373Y-104176243D01*
X131030367Y-104176430D01*
X131215196Y-104176524D01*
X131418783Y-104176548D01*
X131642050Y-104176525D01*
X131885922Y-104176480D01*
X132151321Y-104176437D01*
X132189704Y-104176432D01*
X132456682Y-104176389D01*
X132702002Y-104176318D01*
X132926583Y-104176213D01*
X133131345Y-104176066D01*
X133317206Y-104175869D01*
X133485088Y-104175616D01*
X133635908Y-104175300D01*
X133770587Y-104174913D01*
X133890044Y-104174447D01*
X133995199Y-104173897D01*
X134086971Y-104173253D01*
X134166279Y-104172511D01*
X134234043Y-104171661D01*
X134291182Y-104170697D01*
X134338617Y-104169611D01*
X134377266Y-104168397D01*
X134408049Y-104167047D01*
X134431885Y-104165555D01*
X134449694Y-104163911D01*
X134462395Y-104162111D01*
X134470908Y-104160145D01*
X134475266Y-104158477D01*
X134483728Y-104154906D01*
X134491497Y-104152270D01*
X134498602Y-104149634D01*
X134505073Y-104146062D01*
X134510939Y-104140621D01*
X134516229Y-104132375D01*
X134520974Y-104120390D01*
X134525202Y-104103731D01*
X134528943Y-104081463D01*
X134532227Y-104052652D01*
X134535083Y-104016363D01*
X134537540Y-103971661D01*
X134539629Y-103917611D01*
X134541378Y-103853279D01*
X134542817Y-103777730D01*
X134543976Y-103690030D01*
X134544883Y-103589243D01*
X134545569Y-103474434D01*
X134546063Y-103344670D01*
X134546395Y-103199015D01*
X134546593Y-103036535D01*
X134546687Y-102856295D01*
X134546708Y-102657360D01*
X134546685Y-102438796D01*
X134546646Y-102199668D01*
X134546622Y-101939040D01*
X134546622Y-101896889D01*
X134546636Y-101633992D01*
X134546661Y-101392732D01*
X134546671Y-101172165D01*
X134546642Y-100971352D01*
X134546548Y-100789349D01*
X134546362Y-100625216D01*
X134546059Y-100478011D01*
X134545614Y-100346792D01*
X134545034Y-100236867D01*
X134242197Y-100236867D01*
X134202407Y-100294711D01*
X134191236Y-100310479D01*
X134181166Y-100324441D01*
X134172138Y-100337784D01*
X134164097Y-100351693D01*
X134156986Y-100367356D01*
X134150747Y-100385958D01*
X134145325Y-100408686D01*
X134140662Y-100436727D01*
X134136701Y-100471267D01*
X134133385Y-100513492D01*
X134130659Y-100564589D01*
X134128464Y-100625744D01*
X134126745Y-100698144D01*
X134125444Y-100782975D01*
X134124505Y-100881422D01*
X134123870Y-100994674D01*
X134123484Y-101123916D01*
X134123288Y-101270334D01*
X134123227Y-101435116D01*
X134123243Y-101619447D01*
X134123280Y-101824513D01*
X134123289Y-101947133D01*
X134123265Y-102164082D01*
X134123231Y-102359642D01*
X134123243Y-102534999D01*
X134123358Y-102691341D01*
X134123630Y-102829857D01*
X134124118Y-102951734D01*
X134124876Y-103058160D01*
X134125962Y-103150322D01*
X134127431Y-103229409D01*
X134129340Y-103296608D01*
X134131744Y-103353107D01*
X134134701Y-103400093D01*
X134138266Y-103438755D01*
X134142495Y-103470280D01*
X134147446Y-103495855D01*
X134153173Y-103516670D01*
X134159733Y-103533911D01*
X134167183Y-103548765D01*
X134175579Y-103562422D01*
X134184976Y-103576069D01*
X134195432Y-103590893D01*
X134201523Y-103599783D01*
X134240296Y-103657400D01*
X133708732Y-103657400D01*
X133585483Y-103657365D01*
X133482987Y-103657215D01*
X133399420Y-103656878D01*
X133332956Y-103656286D01*
X133281771Y-103655367D01*
X133244041Y-103654051D01*
X133217940Y-103652269D01*
X133201644Y-103649951D01*
X133193328Y-103647026D01*
X133191168Y-103643424D01*
X133193339Y-103639075D01*
X133194535Y-103637645D01*
X133219685Y-103600573D01*
X133245583Y-103547772D01*
X133269192Y-103485770D01*
X133277461Y-103459357D01*
X133282078Y-103441416D01*
X133285979Y-103420355D01*
X133289248Y-103394089D01*
X133291966Y-103360532D01*
X133294215Y-103317599D01*
X133296077Y-103263204D01*
X133297636Y-103195262D01*
X133298972Y-103111688D01*
X133300169Y-103010395D01*
X133301308Y-102889300D01*
X133301685Y-102844600D01*
X133302702Y-102719449D01*
X133303460Y-102615082D01*
X133303903Y-102529707D01*
X133303970Y-102461533D01*
X133303605Y-102408765D01*
X133302748Y-102369614D01*
X133301341Y-102342285D01*
X133299325Y-102324986D01*
X133296643Y-102315926D01*
X133293236Y-102313312D01*
X133289044Y-102315351D01*
X133284571Y-102319667D01*
X133274216Y-102332602D01*
X133252158Y-102361676D01*
X133219957Y-102404759D01*
X133179174Y-102459718D01*
X133131370Y-102524423D01*
X133078105Y-102596742D01*
X133020940Y-102674544D01*
X132961437Y-102755698D01*
X132901155Y-102838072D01*
X132841655Y-102919536D01*
X132784498Y-102997957D01*
X132731245Y-103071204D01*
X132683457Y-103137147D01*
X132642693Y-103193654D01*
X132610516Y-103238593D01*
X132588485Y-103269834D01*
X132583917Y-103276466D01*
X132560996Y-103313369D01*
X132534188Y-103361359D01*
X132508789Y-103410897D01*
X132505568Y-103417577D01*
X132483890Y-103465772D01*
X132471304Y-103503334D01*
X132465574Y-103539160D01*
X132464456Y-103581200D01*
X132465090Y-103657400D01*
X131310651Y-103657400D01*
X131401815Y-103563669D01*
X131448612Y-103513775D01*
X131498899Y-103457295D01*
X131544944Y-103403026D01*
X131565369Y-103377673D01*
X131595807Y-103338128D01*
X131635862Y-103284916D01*
X131684361Y-103219667D01*
X131740135Y-103144011D01*
X131802011Y-103059577D01*
X131868819Y-102967994D01*
X131939387Y-102870892D01*
X132012545Y-102769901D01*
X132087121Y-102666650D01*
X132161944Y-102562768D01*
X132235843Y-102459885D01*
X132307646Y-102359631D01*
X132376184Y-102263636D01*
X132440284Y-102173527D01*
X132498775Y-102090936D01*
X132550486Y-102017492D01*
X132594247Y-101954824D01*
X132628885Y-101904561D01*
X132653230Y-101868334D01*
X132666111Y-101847771D01*
X132667869Y-101843668D01*
X132659910Y-101832342D01*
X132639115Y-101805162D01*
X132606847Y-101763829D01*
X132564470Y-101710044D01*
X132513347Y-101645506D01*
X132454841Y-101571918D01*
X132390314Y-101490978D01*
X132321131Y-101404388D01*
X132248653Y-101313848D01*
X132174246Y-101221060D01*
X132114517Y-101146702D01*
X131103511Y-101146702D01*
X131097602Y-101159659D01*
X131083272Y-101181908D01*
X131082225Y-101183391D01*
X131063438Y-101213544D01*
X131043791Y-101250375D01*
X131039892Y-101258511D01*
X131036356Y-101266940D01*
X131033230Y-101277059D01*
X131030486Y-101290260D01*
X131028092Y-101307938D01*
X131026019Y-101331484D01*
X131024235Y-101362293D01*
X131022712Y-101401757D01*
X131021419Y-101451269D01*
X131020326Y-101512223D01*
X131019403Y-101586011D01*
X131018619Y-101674028D01*
X131017945Y-101777665D01*
X131017350Y-101898316D01*
X131016805Y-102037374D01*
X131016279Y-102196232D01*
X131015745Y-102375089D01*
X131015206Y-102560207D01*
X131014772Y-102724145D01*
X131014509Y-102868303D01*
X131014484Y-102994079D01*
X131014765Y-103102871D01*
X131015419Y-103196077D01*
X131016514Y-103275097D01*
X131018118Y-103341328D01*
X131020297Y-103396170D01*
X131023119Y-103441021D01*
X131026651Y-103477278D01*
X131030961Y-103506341D01*
X131036117Y-103529609D01*
X131042185Y-103548479D01*
X131049233Y-103564351D01*
X131057329Y-103578622D01*
X131066540Y-103592691D01*
X131075040Y-103605158D01*
X131092176Y-103631452D01*
X131102322Y-103649037D01*
X131103511Y-103652257D01*
X131092604Y-103653334D01*
X131061411Y-103654335D01*
X131012223Y-103655235D01*
X130947333Y-103656010D01*
X130869030Y-103656637D01*
X130779607Y-103657091D01*
X130681356Y-103657349D01*
X130612445Y-103657400D01*
X130507452Y-103657180D01*
X130410610Y-103656548D01*
X130324107Y-103655549D01*
X130250132Y-103654227D01*
X130190874Y-103652626D01*
X130148520Y-103650791D01*
X130125260Y-103648765D01*
X130121378Y-103647493D01*
X130129076Y-103632591D01*
X130137074Y-103624560D01*
X130150246Y-103607434D01*
X130167485Y-103577183D01*
X130179407Y-103552622D01*
X130206045Y-103493711D01*
X130209120Y-102316845D01*
X130212195Y-101139978D01*
X130657853Y-101139978D01*
X130755670Y-101140142D01*
X130846064Y-101140611D01*
X130926630Y-101141347D01*
X130994962Y-101142316D01*
X131048656Y-101143480D01*
X131085305Y-101144803D01*
X131102504Y-101146249D01*
X131103511Y-101146702D01*
X132114517Y-101146702D01*
X132099270Y-101127722D01*
X132025090Y-101035537D01*
X131953069Y-100946204D01*
X131884569Y-100861424D01*
X131820955Y-100782898D01*
X131763588Y-100712326D01*
X131713833Y-100651409D01*
X131673052Y-100601847D01*
X131655888Y-100581178D01*
X131569596Y-100480516D01*
X131492997Y-100397259D01*
X131424183Y-100329438D01*
X131361248Y-100275089D01*
X131351867Y-100267722D01*
X131312356Y-100237117D01*
X132444116Y-100236867D01*
X132438827Y-100284844D01*
X132442130Y-100342188D01*
X132463661Y-100410463D01*
X132503635Y-100490212D01*
X132548943Y-100562495D01*
X132565161Y-100585140D01*
X132593214Y-100622696D01*
X132631430Y-100673021D01*
X132678137Y-100733973D01*
X132731661Y-100803411D01*
X132790331Y-100879194D01*
X132852475Y-100959180D01*
X132916421Y-101041228D01*
X132980495Y-101123196D01*
X133043027Y-101202943D01*
X133102343Y-101278327D01*
X133156771Y-101347207D01*
X133204639Y-101407442D01*
X133244275Y-101456889D01*
X133274006Y-101493408D01*
X133292161Y-101514858D01*
X133295220Y-101518156D01*
X133298079Y-101510149D01*
X133300293Y-101479855D01*
X133301857Y-101427556D01*
X133302767Y-101353531D01*
X133303020Y-101258063D01*
X133302613Y-101141434D01*
X133301704Y-101021445D01*
X133300382Y-100889333D01*
X133298857Y-100777594D01*
X133296881Y-100684025D01*
X133294206Y-100606419D01*
X133290582Y-100542574D01*
X133285761Y-100490283D01*
X133279494Y-100447344D01*
X133271532Y-100411551D01*
X133261627Y-100380700D01*
X133249531Y-100352586D01*
X133234993Y-100325005D01*
X133220311Y-100299966D01*
X133182314Y-100236867D01*
X134242197Y-100236867D01*
X134545034Y-100236867D01*
X134545001Y-100230617D01*
X134544195Y-100128544D01*
X134543170Y-100039633D01*
X134541900Y-99962941D01*
X134540360Y-99897527D01*
X134538524Y-99842449D01*
X134536367Y-99796765D01*
X134533863Y-99759534D01*
X134530987Y-99729813D01*
X134527713Y-99706662D01*
X134524015Y-99689139D01*
X134519869Y-99676301D01*
X134515247Y-99667208D01*
X134510126Y-99660918D01*
X134504478Y-99656488D01*
X134498279Y-99652978D01*
X134491504Y-99649445D01*
X134485508Y-99645876D01*
X134480275Y-99643300D01*
X134472099Y-99640972D01*
X134459886Y-99638878D01*
X134442541Y-99637007D01*
X134418969Y-99635347D01*
X134388077Y-99633884D01*
X134348768Y-99632608D01*
X134299950Y-99631504D01*
X134240527Y-99630561D01*
X134169404Y-99629767D01*
X134085488Y-99629109D01*
X133987683Y-99628575D01*
X133874894Y-99628153D01*
X133746029Y-99627829D01*
X133599991Y-99627592D01*
X133435686Y-99627430D01*
X133252020Y-99627330D01*
X133047897Y-99627280D01*
X132836753Y-99627267D01*
X131216400Y-99627267D01*
X131216400Y-99724054D01*
G37*
X131216400Y-99724054D02*
X131205535Y-99837993D01*
X131173918Y-99945616D01*
X131123015Y-100044615D01*
X131054293Y-100132684D01*
X130969219Y-100207516D01*
X130872232Y-100265384D01*
X130765964Y-100305005D01*
X130658950Y-100323573D01*
X130553300Y-100322434D01*
X130451125Y-100302930D01*
X130354534Y-100266406D01*
X130265638Y-100214205D01*
X130186546Y-100147673D01*
X130119369Y-100068152D01*
X130066217Y-99976987D01*
X130029199Y-99875523D01*
X130010427Y-99765102D01*
X130008489Y-99715206D01*
X130008489Y-99627267D01*
X129956560Y-99627267D01*
X129920253Y-99630111D01*
X129893355Y-99641911D01*
X129866249Y-99665649D01*
X129827867Y-99704031D01*
X129827867Y-101895602D01*
X129827876Y-102157739D01*
X129827908Y-102398241D01*
X129827972Y-102618048D01*
X129828076Y-102818101D01*
X129828227Y-102999344D01*
X129828434Y-103162716D01*
X129828706Y-103309160D01*
X129829050Y-103439617D01*
X129829474Y-103555029D01*
X129829987Y-103656338D01*
X129830597Y-103744484D01*
X129831312Y-103820410D01*
X129832140Y-103885057D01*
X129833089Y-103939367D01*
X129834167Y-103984280D01*
X129835383Y-104020740D01*
X129836745Y-104049687D01*
X129838261Y-104072063D01*
X129839938Y-104088809D01*
X129841786Y-104100868D01*
X129843813Y-104109180D01*
X129846025Y-104114687D01*
X129847108Y-104116537D01*
X129851271Y-104123549D01*
X129854805Y-104129996D01*
X129858635Y-104135900D01*
X129863682Y-104141286D01*
X129870871Y-104146178D01*
X129881123Y-104150598D01*
X129895364Y-104154572D01*
X129914514Y-104158121D01*
X129939499Y-104161270D01*
X129971240Y-104164042D01*
X130010662Y-104166461D01*
X130058686Y-104168551D01*
X130116237Y-104170335D01*
X130184237Y-104171837D01*
X130263610Y-104173080D01*
X130355279Y-104174089D01*
X130460166Y-104174885D01*
X130579196Y-104175494D01*
X130713290Y-104175939D01*
X130863373Y-104176243D01*
X131030367Y-104176430D01*
X131215196Y-104176524D01*
X131418783Y-104176548D01*
X131642050Y-104176525D01*
X131885922Y-104176480D01*
X132151321Y-104176437D01*
X132189704Y-104176432D01*
X132456682Y-104176389D01*
X132702002Y-104176318D01*
X132926583Y-104176213D01*
X133131345Y-104176066D01*
X133317206Y-104175869D01*
X133485088Y-104175616D01*
X133635908Y-104175300D01*
X133770587Y-104174913D01*
X133890044Y-104174447D01*
X133995199Y-104173897D01*
X134086971Y-104173253D01*
X134166279Y-104172511D01*
X134234043Y-104171661D01*
X134291182Y-104170697D01*
X134338617Y-104169611D01*
X134377266Y-104168397D01*
X134408049Y-104167047D01*
X134431885Y-104165555D01*
X134449694Y-104163911D01*
X134462395Y-104162111D01*
X134470908Y-104160145D01*
X134475266Y-104158477D01*
X134483728Y-104154906D01*
X134491497Y-104152270D01*
X134498602Y-104149634D01*
X134505073Y-104146062D01*
X134510939Y-104140621D01*
X134516229Y-104132375D01*
X134520974Y-104120390D01*
X134525202Y-104103731D01*
X134528943Y-104081463D01*
X134532227Y-104052652D01*
X134535083Y-104016363D01*
X134537540Y-103971661D01*
X134539629Y-103917611D01*
X134541378Y-103853279D01*
X134542817Y-103777730D01*
X134543976Y-103690030D01*
X134544883Y-103589243D01*
X134545569Y-103474434D01*
X134546063Y-103344670D01*
X134546395Y-103199015D01*
X134546593Y-103036535D01*
X134546687Y-102856295D01*
X134546708Y-102657360D01*
X134546685Y-102438796D01*
X134546646Y-102199668D01*
X134546622Y-101939040D01*
X134546622Y-101896889D01*
X134546636Y-101633992D01*
X134546661Y-101392732D01*
X134546671Y-101172165D01*
X134546642Y-100971352D01*
X134546548Y-100789349D01*
X134546362Y-100625216D01*
X134546059Y-100478011D01*
X134545614Y-100346792D01*
X134545034Y-100236867D01*
X134242197Y-100236867D01*
X134202407Y-100294711D01*
X134191236Y-100310479D01*
X134181166Y-100324441D01*
X134172138Y-100337784D01*
X134164097Y-100351693D01*
X134156986Y-100367356D01*
X134150747Y-100385958D01*
X134145325Y-100408686D01*
X134140662Y-100436727D01*
X134136701Y-100471267D01*
X134133385Y-100513492D01*
X134130659Y-100564589D01*
X134128464Y-100625744D01*
X134126745Y-100698144D01*
X134125444Y-100782975D01*
X134124505Y-100881422D01*
X134123870Y-100994674D01*
X134123484Y-101123916D01*
X134123288Y-101270334D01*
X134123227Y-101435116D01*
X134123243Y-101619447D01*
X134123280Y-101824513D01*
X134123289Y-101947133D01*
X134123265Y-102164082D01*
X134123231Y-102359642D01*
X134123243Y-102534999D01*
X134123358Y-102691341D01*
X134123630Y-102829857D01*
X134124118Y-102951734D01*
X134124876Y-103058160D01*
X134125962Y-103150322D01*
X134127431Y-103229409D01*
X134129340Y-103296608D01*
X134131744Y-103353107D01*
X134134701Y-103400093D01*
X134138266Y-103438755D01*
X134142495Y-103470280D01*
X134147446Y-103495855D01*
X134153173Y-103516670D01*
X134159733Y-103533911D01*
X134167183Y-103548765D01*
X134175579Y-103562422D01*
X134184976Y-103576069D01*
X134195432Y-103590893D01*
X134201523Y-103599783D01*
X134240296Y-103657400D01*
X133708732Y-103657400D01*
X133585483Y-103657365D01*
X133482987Y-103657215D01*
X133399420Y-103656878D01*
X133332956Y-103656286D01*
X133281771Y-103655367D01*
X133244041Y-103654051D01*
X133217940Y-103652269D01*
X133201644Y-103649951D01*
X133193328Y-103647026D01*
X133191168Y-103643424D01*
X133193339Y-103639075D01*
X133194535Y-103637645D01*
X133219685Y-103600573D01*
X133245583Y-103547772D01*
X133269192Y-103485770D01*
X133277461Y-103459357D01*
X133282078Y-103441416D01*
X133285979Y-103420355D01*
X133289248Y-103394089D01*
X133291966Y-103360532D01*
X133294215Y-103317599D01*
X133296077Y-103263204D01*
X133297636Y-103195262D01*
X133298972Y-103111688D01*
X133300169Y-103010395D01*
X133301308Y-102889300D01*
X133301685Y-102844600D01*
X133302702Y-102719449D01*
X133303460Y-102615082D01*
X133303903Y-102529707D01*
X133303970Y-102461533D01*
X133303605Y-102408765D01*
X133302748Y-102369614D01*
X133301341Y-102342285D01*
X133299325Y-102324986D01*
X133296643Y-102315926D01*
X133293236Y-102313312D01*
X133289044Y-102315351D01*
X133284571Y-102319667D01*
X133274216Y-102332602D01*
X133252158Y-102361676D01*
X133219957Y-102404759D01*
X133179174Y-102459718D01*
X133131370Y-102524423D01*
X133078105Y-102596742D01*
X133020940Y-102674544D01*
X132961437Y-102755698D01*
X132901155Y-102838072D01*
X132841655Y-102919536D01*
X132784498Y-102997957D01*
X132731245Y-103071204D01*
X132683457Y-103137147D01*
X132642693Y-103193654D01*
X132610516Y-103238593D01*
X132588485Y-103269834D01*
X132583917Y-103276466D01*
X132560996Y-103313369D01*
X132534188Y-103361359D01*
X132508789Y-103410897D01*
X132505568Y-103417577D01*
X132483890Y-103465772D01*
X132471304Y-103503334D01*
X132465574Y-103539160D01*
X132464456Y-103581200D01*
X132465090Y-103657400D01*
X131310651Y-103657400D01*
X131401815Y-103563669D01*
X131448612Y-103513775D01*
X131498899Y-103457295D01*
X131544944Y-103403026D01*
X131565369Y-103377673D01*
X131595807Y-103338128D01*
X131635862Y-103284916D01*
X131684361Y-103219667D01*
X131740135Y-103144011D01*
X131802011Y-103059577D01*
X131868819Y-102967994D01*
X131939387Y-102870892D01*
X132012545Y-102769901D01*
X132087121Y-102666650D01*
X132161944Y-102562768D01*
X132235843Y-102459885D01*
X132307646Y-102359631D01*
X132376184Y-102263636D01*
X132440284Y-102173527D01*
X132498775Y-102090936D01*
X132550486Y-102017492D01*
X132594247Y-101954824D01*
X132628885Y-101904561D01*
X132653230Y-101868334D01*
X132666111Y-101847771D01*
X132667869Y-101843668D01*
X132659910Y-101832342D01*
X132639115Y-101805162D01*
X132606847Y-101763829D01*
X132564470Y-101710044D01*
X132513347Y-101645506D01*
X132454841Y-101571918D01*
X132390314Y-101490978D01*
X132321131Y-101404388D01*
X132248653Y-101313848D01*
X132174246Y-101221060D01*
X132114517Y-101146702D01*
X131103511Y-101146702D01*
X131097602Y-101159659D01*
X131083272Y-101181908D01*
X131082225Y-101183391D01*
X131063438Y-101213544D01*
X131043791Y-101250375D01*
X131039892Y-101258511D01*
X131036356Y-101266940D01*
X131033230Y-101277059D01*
X131030486Y-101290260D01*
X131028092Y-101307938D01*
X131026019Y-101331484D01*
X131024235Y-101362293D01*
X131022712Y-101401757D01*
X131021419Y-101451269D01*
X131020326Y-101512223D01*
X131019403Y-101586011D01*
X131018619Y-101674028D01*
X131017945Y-101777665D01*
X131017350Y-101898316D01*
X131016805Y-102037374D01*
X131016279Y-102196232D01*
X131015745Y-102375089D01*
X131015206Y-102560207D01*
X131014772Y-102724145D01*
X131014509Y-102868303D01*
X131014484Y-102994079D01*
X131014765Y-103102871D01*
X131015419Y-103196077D01*
X131016514Y-103275097D01*
X131018118Y-103341328D01*
X131020297Y-103396170D01*
X131023119Y-103441021D01*
X131026651Y-103477278D01*
X131030961Y-103506341D01*
X131036117Y-103529609D01*
X131042185Y-103548479D01*
X131049233Y-103564351D01*
X131057329Y-103578622D01*
X131066540Y-103592691D01*
X131075040Y-103605158D01*
X131092176Y-103631452D01*
X131102322Y-103649037D01*
X131103511Y-103652257D01*
X131092604Y-103653334D01*
X131061411Y-103654335D01*
X131012223Y-103655235D01*
X130947333Y-103656010D01*
X130869030Y-103656637D01*
X130779607Y-103657091D01*
X130681356Y-103657349D01*
X130612445Y-103657400D01*
X130507452Y-103657180D01*
X130410610Y-103656548D01*
X130324107Y-103655549D01*
X130250132Y-103654227D01*
X130190874Y-103652626D01*
X130148520Y-103650791D01*
X130125260Y-103648765D01*
X130121378Y-103647493D01*
X130129076Y-103632591D01*
X130137074Y-103624560D01*
X130150246Y-103607434D01*
X130167485Y-103577183D01*
X130179407Y-103552622D01*
X130206045Y-103493711D01*
X130209120Y-102316845D01*
X130212195Y-101139978D01*
X130657853Y-101139978D01*
X130755670Y-101140142D01*
X130846064Y-101140611D01*
X130926630Y-101141347D01*
X130994962Y-101142316D01*
X131048656Y-101143480D01*
X131085305Y-101144803D01*
X131102504Y-101146249D01*
X131103511Y-101146702D01*
X132114517Y-101146702D01*
X132099270Y-101127722D01*
X132025090Y-101035537D01*
X131953069Y-100946204D01*
X131884569Y-100861424D01*
X131820955Y-100782898D01*
X131763588Y-100712326D01*
X131713833Y-100651409D01*
X131673052Y-100601847D01*
X131655888Y-100581178D01*
X131569596Y-100480516D01*
X131492997Y-100397259D01*
X131424183Y-100329438D01*
X131361248Y-100275089D01*
X131351867Y-100267722D01*
X131312356Y-100237117D01*
X132444116Y-100236867D01*
X132438827Y-100284844D01*
X132442130Y-100342188D01*
X132463661Y-100410463D01*
X132503635Y-100490212D01*
X132548943Y-100562495D01*
X132565161Y-100585140D01*
X132593214Y-100622696D01*
X132631430Y-100673021D01*
X132678137Y-100733973D01*
X132731661Y-100803411D01*
X132790331Y-100879194D01*
X132852475Y-100959180D01*
X132916421Y-101041228D01*
X132980495Y-101123196D01*
X133043027Y-101202943D01*
X133102343Y-101278327D01*
X133156771Y-101347207D01*
X133204639Y-101407442D01*
X133244275Y-101456889D01*
X133274006Y-101493408D01*
X133292161Y-101514858D01*
X133295220Y-101518156D01*
X133298079Y-101510149D01*
X133300293Y-101479855D01*
X133301857Y-101427556D01*
X133302767Y-101353531D01*
X133303020Y-101258063D01*
X133302613Y-101141434D01*
X133301704Y-101021445D01*
X133300382Y-100889333D01*
X133298857Y-100777594D01*
X133296881Y-100684025D01*
X133294206Y-100606419D01*
X133290582Y-100542574D01*
X133285761Y-100490283D01*
X133279494Y-100447344D01*
X133271532Y-100411551D01*
X133261627Y-100380700D01*
X133249531Y-100352586D01*
X133234993Y-100325005D01*
X133220311Y-100299966D01*
X133182314Y-100236867D01*
X134242197Y-100236867D01*
X134545034Y-100236867D01*
X134545001Y-100230617D01*
X134544195Y-100128544D01*
X134543170Y-100039633D01*
X134541900Y-99962941D01*
X134540360Y-99897527D01*
X134538524Y-99842449D01*
X134536367Y-99796765D01*
X134533863Y-99759534D01*
X134530987Y-99729813D01*
X134527713Y-99706662D01*
X134524015Y-99689139D01*
X134519869Y-99676301D01*
X134515247Y-99667208D01*
X134510126Y-99660918D01*
X134504478Y-99656488D01*
X134498279Y-99652978D01*
X134491504Y-99649445D01*
X134485508Y-99645876D01*
X134480275Y-99643300D01*
X134472099Y-99640972D01*
X134459886Y-99638878D01*
X134442541Y-99637007D01*
X134418969Y-99635347D01*
X134388077Y-99633884D01*
X134348768Y-99632608D01*
X134299950Y-99631504D01*
X134240527Y-99630561D01*
X134169404Y-99629767D01*
X134085488Y-99629109D01*
X133987683Y-99628575D01*
X133874894Y-99628153D01*
X133746029Y-99627829D01*
X133599991Y-99627592D01*
X133435686Y-99627430D01*
X133252020Y-99627330D01*
X133047897Y-99627280D01*
X132836753Y-99627267D01*
X131216400Y-99627267D01*
X131216400Y-99724054D01*
G36*
X127941571Y-100184071D02*
G01*
X127781430Y-100205245D01*
X127617490Y-100245385D01*
X127447687Y-100304889D01*
X127269957Y-100384154D01*
X127258690Y-100389699D01*
X127200995Y-100417725D01*
X127149448Y-100441802D01*
X127107809Y-100460249D01*
X127079838Y-100471386D01*
X127070267Y-100473933D01*
X127051050Y-100478941D01*
X127046439Y-100483147D01*
X127051542Y-100493580D01*
X127067582Y-100519868D01*
X127092712Y-100559257D01*
X127125086Y-100608991D01*
X127162857Y-100666315D01*
X127204178Y-100728476D01*
X127247202Y-100792718D01*
X127290083Y-100856285D01*
X127330974Y-100916425D01*
X127368029Y-100970380D01*
X127399400Y-101015397D01*
X127423241Y-101048721D01*
X127437706Y-101067597D01*
X127439691Y-101069787D01*
X127449809Y-101065138D01*
X127472150Y-101047962D01*
X127502720Y-101021440D01*
X127518464Y-101006964D01*
X127614953Y-100931682D01*
X127721664Y-100876241D01*
X127837168Y-100841141D01*
X127960038Y-100826880D01*
X128029439Y-100828051D01*
X128150577Y-100845212D01*
X128259795Y-100881094D01*
X128357418Y-100935959D01*
X128443772Y-101010070D01*
X128519185Y-101103688D01*
X128583982Y-101217076D01*
X128621399Y-101303667D01*
X128665252Y-101439366D01*
X128697572Y-101586850D01*
X128718443Y-101742314D01*
X128727949Y-101901956D01*
X128726173Y-102061973D01*
X128713197Y-102218561D01*
X128689106Y-102367918D01*
X128653982Y-102506240D01*
X128607908Y-102629724D01*
X128591627Y-102663978D01*
X128523380Y-102778064D01*
X128442921Y-102874557D01*
X128351430Y-102952670D01*
X128250089Y-103011617D01*
X128140080Y-103050612D01*
X128022585Y-103068868D01*
X127981117Y-103070211D01*
X127859559Y-103059290D01*
X127739122Y-103026474D01*
X127621334Y-102972439D01*
X127507723Y-102897865D01*
X127416315Y-102819539D01*
X127369785Y-102775008D01*
X127188517Y-103072271D01*
X127143420Y-103146433D01*
X127102181Y-103214646D01*
X127066265Y-103274459D01*
X127037134Y-103323420D01*
X127016250Y-103359079D01*
X127005076Y-103378984D01*
X127003625Y-103382079D01*
X127011854Y-103391718D01*
X127037433Y-103408999D01*
X127077127Y-103432283D01*
X127127703Y-103459934D01*
X127185926Y-103490315D01*
X127248563Y-103521790D01*
X127312379Y-103552722D01*
X127374140Y-103581473D01*
X127430612Y-103606408D01*
X127478562Y-103625889D01*
X127502014Y-103634318D01*
X127635779Y-103672133D01*
X127773673Y-103697136D01*
X127921378Y-103710140D01*
X128048167Y-103712468D01*
X128116122Y-103711373D01*
X128181723Y-103709275D01*
X128239153Y-103706434D01*
X128282597Y-103703106D01*
X128296702Y-103701422D01*
X128435716Y-103672587D01*
X128577243Y-103627468D01*
X128714725Y-103568750D01*
X128841606Y-103499120D01*
X128919111Y-103446441D01*
X129046519Y-103338239D01*
X129164822Y-103211671D01*
X129271828Y-103069866D01*
X129365348Y-102915951D01*
X129443190Y-102753053D01*
X129487044Y-102635756D01*
X129537292Y-102452128D01*
X129570791Y-102257581D01*
X129587551Y-102056325D01*
X129587584Y-101852568D01*
X129570899Y-101650521D01*
X129537507Y-101454392D01*
X129487420Y-101268391D01*
X129483603Y-101256803D01*
X129420719Y-101094750D01*
X129343972Y-100946832D01*
X129250758Y-100808865D01*
X129138473Y-100676661D01*
X129094608Y-100631399D01*
X128958466Y-100507457D01*
X128818509Y-100404915D01*
X128672589Y-100322656D01*
X128518558Y-100259564D01*
X128354268Y-100214523D01*
X128258711Y-100197033D01*
X128099977Y-100181466D01*
X127941571Y-100184071D01*
G37*
X127941571Y-100184071D02*
X127781430Y-100205245D01*
X127617490Y-100245385D01*
X127447687Y-100304889D01*
X127269957Y-100384154D01*
X127258690Y-100389699D01*
X127200995Y-100417725D01*
X127149448Y-100441802D01*
X127107809Y-100460249D01*
X127079838Y-100471386D01*
X127070267Y-100473933D01*
X127051050Y-100478941D01*
X127046439Y-100483147D01*
X127051542Y-100493580D01*
X127067582Y-100519868D01*
X127092712Y-100559257D01*
X127125086Y-100608991D01*
X127162857Y-100666315D01*
X127204178Y-100728476D01*
X127247202Y-100792718D01*
X127290083Y-100856285D01*
X127330974Y-100916425D01*
X127368029Y-100970380D01*
X127399400Y-101015397D01*
X127423241Y-101048721D01*
X127437706Y-101067597D01*
X127439691Y-101069787D01*
X127449809Y-101065138D01*
X127472150Y-101047962D01*
X127502720Y-101021440D01*
X127518464Y-101006964D01*
X127614953Y-100931682D01*
X127721664Y-100876241D01*
X127837168Y-100841141D01*
X127960038Y-100826880D01*
X128029439Y-100828051D01*
X128150577Y-100845212D01*
X128259795Y-100881094D01*
X128357418Y-100935959D01*
X128443772Y-101010070D01*
X128519185Y-101103688D01*
X128583982Y-101217076D01*
X128621399Y-101303667D01*
X128665252Y-101439366D01*
X128697572Y-101586850D01*
X128718443Y-101742314D01*
X128727949Y-101901956D01*
X128726173Y-102061973D01*
X128713197Y-102218561D01*
X128689106Y-102367918D01*
X128653982Y-102506240D01*
X128607908Y-102629724D01*
X128591627Y-102663978D01*
X128523380Y-102778064D01*
X128442921Y-102874557D01*
X128351430Y-102952670D01*
X128250089Y-103011617D01*
X128140080Y-103050612D01*
X128022585Y-103068868D01*
X127981117Y-103070211D01*
X127859559Y-103059290D01*
X127739122Y-103026474D01*
X127621334Y-102972439D01*
X127507723Y-102897865D01*
X127416315Y-102819539D01*
X127369785Y-102775008D01*
X127188517Y-103072271D01*
X127143420Y-103146433D01*
X127102181Y-103214646D01*
X127066265Y-103274459D01*
X127037134Y-103323420D01*
X127016250Y-103359079D01*
X127005076Y-103378984D01*
X127003625Y-103382079D01*
X127011854Y-103391718D01*
X127037433Y-103408999D01*
X127077127Y-103432283D01*
X127127703Y-103459934D01*
X127185926Y-103490315D01*
X127248563Y-103521790D01*
X127312379Y-103552722D01*
X127374140Y-103581473D01*
X127430612Y-103606408D01*
X127478562Y-103625889D01*
X127502014Y-103634318D01*
X127635779Y-103672133D01*
X127773673Y-103697136D01*
X127921378Y-103710140D01*
X128048167Y-103712468D01*
X128116122Y-103711373D01*
X128181723Y-103709275D01*
X128239153Y-103706434D01*
X128282597Y-103703106D01*
X128296702Y-103701422D01*
X128435716Y-103672587D01*
X128577243Y-103627468D01*
X128714725Y-103568750D01*
X128841606Y-103499120D01*
X128919111Y-103446441D01*
X129046519Y-103338239D01*
X129164822Y-103211671D01*
X129271828Y-103069866D01*
X129365348Y-102915951D01*
X129443190Y-102753053D01*
X129487044Y-102635756D01*
X129537292Y-102452128D01*
X129570791Y-102257581D01*
X129587551Y-102056325D01*
X129587584Y-101852568D01*
X129570899Y-101650521D01*
X129537507Y-101454392D01*
X129487420Y-101268391D01*
X129483603Y-101256803D01*
X129420719Y-101094750D01*
X129343972Y-100946832D01*
X129250758Y-100808865D01*
X129138473Y-100676661D01*
X129094608Y-100631399D01*
X128958466Y-100507457D01*
X128818509Y-100404915D01*
X128672589Y-100322656D01*
X128518558Y-100259564D01*
X128354268Y-100214523D01*
X128258711Y-100197033D01*
X128099977Y-100181466D01*
X127941571Y-100184071D01*
G36*
X125596426Y-101101552D02*
G01*
X125444508Y-101121567D01*
X125309244Y-101155202D01*
X125189761Y-101202725D01*
X125085185Y-101264405D01*
X125007576Y-101327965D01*
X124938735Y-101402099D01*
X124884994Y-101481871D01*
X124842090Y-101574091D01*
X124826616Y-101617161D01*
X124813756Y-101656142D01*
X124802554Y-101692289D01*
X124792880Y-101727434D01*
X124784604Y-101763410D01*
X124777597Y-101802050D01*
X124771728Y-101845185D01*
X124766869Y-101894649D01*
X124762890Y-101952273D01*
X124759660Y-102019891D01*
X124757051Y-102099334D01*
X124754933Y-102192436D01*
X124753176Y-102301027D01*
X124751651Y-102426942D01*
X124750228Y-102572012D01*
X124748975Y-102714778D01*
X124747649Y-102870968D01*
X124746444Y-103006239D01*
X124745234Y-103122246D01*
X124743894Y-103220645D01*
X124742300Y-103303093D01*
X124740325Y-103371246D01*
X124737844Y-103426760D01*
X124734731Y-103471292D01*
X124730862Y-103506498D01*
X124726111Y-103534034D01*
X124720352Y-103555556D01*
X124713461Y-103572722D01*
X124705311Y-103587186D01*
X124695777Y-103600606D01*
X124684734Y-103614638D01*
X124680434Y-103620071D01*
X124664614Y-103642910D01*
X124657578Y-103658463D01*
X124657556Y-103658922D01*
X124668433Y-103661121D01*
X124699418Y-103663147D01*
X124748043Y-103664942D01*
X124811837Y-103666451D01*
X124888331Y-103667616D01*
X124975056Y-103668380D01*
X125069543Y-103668686D01*
X125080450Y-103668689D01*
X125503343Y-103668689D01*
X125506605Y-103572622D01*
X125509867Y-103476556D01*
X125571956Y-103527543D01*
X125669286Y-103595057D01*
X125779187Y-103649749D01*
X125865651Y-103679978D01*
X125934722Y-103694666D01*
X126018075Y-103704659D01*
X126107841Y-103709646D01*
X126196155Y-103709313D01*
X126275149Y-103703351D01*
X126311378Y-103697638D01*
X126451397Y-103659776D01*
X126577822Y-103604932D01*
X126689740Y-103533924D01*
X126786238Y-103447568D01*
X126866400Y-103346679D01*
X126929313Y-103232076D01*
X126973688Y-103105984D01*
X126986022Y-103049401D01*
X126993632Y-102987202D01*
X126997261Y-102912363D01*
X126997755Y-102878467D01*
X126997690Y-102875282D01*
X126237752Y-102875282D01*
X126228459Y-102950333D01*
X126200272Y-103014160D01*
X126151803Y-103069798D01*
X126146746Y-103074211D01*
X126098452Y-103109037D01*
X126046743Y-103131620D01*
X125986011Y-103143540D01*
X125910648Y-103146383D01*
X125892541Y-103145978D01*
X125838722Y-103143325D01*
X125798692Y-103137909D01*
X125763676Y-103127745D01*
X125724897Y-103110850D01*
X125714255Y-103105672D01*
X125653604Y-103069844D01*
X125606785Y-103027212D01*
X125594048Y-103011973D01*
X125549378Y-102955462D01*
X125549378Y-102759586D01*
X125549914Y-102680939D01*
X125551604Y-102622988D01*
X125554572Y-102583875D01*
X125558943Y-102561741D01*
X125563028Y-102555274D01*
X125578953Y-102552111D01*
X125612736Y-102549488D01*
X125659660Y-102547655D01*
X125715007Y-102546857D01*
X125723894Y-102546842D01*
X125844670Y-102552096D01*
X125947340Y-102568263D01*
X126033894Y-102595961D01*
X126106319Y-102635808D01*
X126161249Y-102682758D01*
X126205796Y-102740645D01*
X126230520Y-102803693D01*
X126237752Y-102875282D01*
X126997690Y-102875282D01*
X126995822Y-102784712D01*
X126987478Y-102705812D01*
X126971232Y-102634590D01*
X126945595Y-102563864D01*
X126921599Y-102511493D01*
X126862980Y-102416196D01*
X126784883Y-102328170D01*
X126689685Y-102249017D01*
X126579762Y-102180340D01*
X126457490Y-102123741D01*
X126325245Y-102080821D01*
X126260578Y-102065882D01*
X126124396Y-102043777D01*
X125975951Y-102029194D01*
X125824495Y-102022813D01*
X125697936Y-102024445D01*
X125536050Y-102031224D01*
X125543470Y-101972245D01*
X125562762Y-101873092D01*
X125593896Y-101792372D01*
X125637731Y-101729466D01*
X125695129Y-101683756D01*
X125766952Y-101654622D01*
X125854059Y-101641447D01*
X125957314Y-101643611D01*
X125995289Y-101647612D01*
X126136480Y-101672780D01*
X126273293Y-101713814D01*
X126367822Y-101751815D01*
X126412982Y-101771190D01*
X126451415Y-101786760D01*
X126477766Y-101796405D01*
X126485454Y-101798452D01*
X126495198Y-101789374D01*
X126511917Y-101760405D01*
X126535768Y-101711217D01*
X126566907Y-101641484D01*
X126605493Y-101550879D01*
X126612090Y-101535089D01*
X126642147Y-101462772D01*
X126669126Y-101397425D01*
X126691864Y-101341906D01*
X126709194Y-101299072D01*
X126719952Y-101271781D01*
X126723059Y-101262942D01*
X126713060Y-101258187D01*
X126686783Y-101252910D01*
X126658511Y-101249231D01*
X126628354Y-101244474D01*
X126580567Y-101235028D01*
X126519388Y-101221820D01*
X126449054Y-101205776D01*
X126373806Y-101187820D01*
X126345245Y-101180797D01*
X126240184Y-101155209D01*
X126152520Y-101135147D01*
X126077932Y-101119969D01*
X126012097Y-101109035D01*
X125950693Y-101101704D01*
X125889398Y-101097335D01*
X125823890Y-101095287D01*
X125765872Y-101094889D01*
X125596426Y-101101552D01*
G37*
X125596426Y-101101552D02*
X125444508Y-101121567D01*
X125309244Y-101155202D01*
X125189761Y-101202725D01*
X125085185Y-101264405D01*
X125007576Y-101327965D01*
X124938735Y-101402099D01*
X124884994Y-101481871D01*
X124842090Y-101574091D01*
X124826616Y-101617161D01*
X124813756Y-101656142D01*
X124802554Y-101692289D01*
X124792880Y-101727434D01*
X124784604Y-101763410D01*
X124777597Y-101802050D01*
X124771728Y-101845185D01*
X124766869Y-101894649D01*
X124762890Y-101952273D01*
X124759660Y-102019891D01*
X124757051Y-102099334D01*
X124754933Y-102192436D01*
X124753176Y-102301027D01*
X124751651Y-102426942D01*
X124750228Y-102572012D01*
X124748975Y-102714778D01*
X124747649Y-102870968D01*
X124746444Y-103006239D01*
X124745234Y-103122246D01*
X124743894Y-103220645D01*
X124742300Y-103303093D01*
X124740325Y-103371246D01*
X124737844Y-103426760D01*
X124734731Y-103471292D01*
X124730862Y-103506498D01*
X124726111Y-103534034D01*
X124720352Y-103555556D01*
X124713461Y-103572722D01*
X124705311Y-103587186D01*
X124695777Y-103600606D01*
X124684734Y-103614638D01*
X124680434Y-103620071D01*
X124664614Y-103642910D01*
X124657578Y-103658463D01*
X124657556Y-103658922D01*
X124668433Y-103661121D01*
X124699418Y-103663147D01*
X124748043Y-103664942D01*
X124811837Y-103666451D01*
X124888331Y-103667616D01*
X124975056Y-103668380D01*
X125069543Y-103668686D01*
X125080450Y-103668689D01*
X125503343Y-103668689D01*
X125506605Y-103572622D01*
X125509867Y-103476556D01*
X125571956Y-103527543D01*
X125669286Y-103595057D01*
X125779187Y-103649749D01*
X125865651Y-103679978D01*
X125934722Y-103694666D01*
X126018075Y-103704659D01*
X126107841Y-103709646D01*
X126196155Y-103709313D01*
X126275149Y-103703351D01*
X126311378Y-103697638D01*
X126451397Y-103659776D01*
X126577822Y-103604932D01*
X126689740Y-103533924D01*
X126786238Y-103447568D01*
X126866400Y-103346679D01*
X126929313Y-103232076D01*
X126973688Y-103105984D01*
X126986022Y-103049401D01*
X126993632Y-102987202D01*
X126997261Y-102912363D01*
X126997755Y-102878467D01*
X126997690Y-102875282D01*
X126237752Y-102875282D01*
X126228459Y-102950333D01*
X126200272Y-103014160D01*
X126151803Y-103069798D01*
X126146746Y-103074211D01*
X126098452Y-103109037D01*
X126046743Y-103131620D01*
X125986011Y-103143540D01*
X125910648Y-103146383D01*
X125892541Y-103145978D01*
X125838722Y-103143325D01*
X125798692Y-103137909D01*
X125763676Y-103127745D01*
X125724897Y-103110850D01*
X125714255Y-103105672D01*
X125653604Y-103069844D01*
X125606785Y-103027212D01*
X125594048Y-103011973D01*
X125549378Y-102955462D01*
X125549378Y-102759586D01*
X125549914Y-102680939D01*
X125551604Y-102622988D01*
X125554572Y-102583875D01*
X125558943Y-102561741D01*
X125563028Y-102555274D01*
X125578953Y-102552111D01*
X125612736Y-102549488D01*
X125659660Y-102547655D01*
X125715007Y-102546857D01*
X125723894Y-102546842D01*
X125844670Y-102552096D01*
X125947340Y-102568263D01*
X126033894Y-102595961D01*
X126106319Y-102635808D01*
X126161249Y-102682758D01*
X126205796Y-102740645D01*
X126230520Y-102803693D01*
X126237752Y-102875282D01*
X126997690Y-102875282D01*
X126995822Y-102784712D01*
X126987478Y-102705812D01*
X126971232Y-102634590D01*
X126945595Y-102563864D01*
X126921599Y-102511493D01*
X126862980Y-102416196D01*
X126784883Y-102328170D01*
X126689685Y-102249017D01*
X126579762Y-102180340D01*
X126457490Y-102123741D01*
X126325245Y-102080821D01*
X126260578Y-102065882D01*
X126124396Y-102043777D01*
X125975951Y-102029194D01*
X125824495Y-102022813D01*
X125697936Y-102024445D01*
X125536050Y-102031224D01*
X125543470Y-101972245D01*
X125562762Y-101873092D01*
X125593896Y-101792372D01*
X125637731Y-101729466D01*
X125695129Y-101683756D01*
X125766952Y-101654622D01*
X125854059Y-101641447D01*
X125957314Y-101643611D01*
X125995289Y-101647612D01*
X126136480Y-101672780D01*
X126273293Y-101713814D01*
X126367822Y-101751815D01*
X126412982Y-101771190D01*
X126451415Y-101786760D01*
X126477766Y-101796405D01*
X126485454Y-101798452D01*
X126495198Y-101789374D01*
X126511917Y-101760405D01*
X126535768Y-101711217D01*
X126566907Y-101641484D01*
X126605493Y-101550879D01*
X126612090Y-101535089D01*
X126642147Y-101462772D01*
X126669126Y-101397425D01*
X126691864Y-101341906D01*
X126709194Y-101299072D01*
X126719952Y-101271781D01*
X126723059Y-101262942D01*
X126713060Y-101258187D01*
X126686783Y-101252910D01*
X126658511Y-101249231D01*
X126628354Y-101244474D01*
X126580567Y-101235028D01*
X126519388Y-101221820D01*
X126449054Y-101205776D01*
X126373806Y-101187820D01*
X126345245Y-101180797D01*
X126240184Y-101155209D01*
X126152520Y-101135147D01*
X126077932Y-101119969D01*
X126012097Y-101109035D01*
X125950693Y-101101704D01*
X125889398Y-101097335D01*
X125823890Y-101095287D01*
X125765872Y-101094889D01*
X125596426Y-101101552D01*
G36*
X122083493Y-101707245D02*
G01*
X122083474Y-101941662D01*
X122083448Y-102154603D01*
X122083375Y-102347168D01*
X122083218Y-102520459D01*
X122082936Y-102675576D01*
X122082491Y-102813620D01*
X122081844Y-102935692D01*
X122080955Y-103042894D01*
X122079787Y-103136326D01*
X122078299Y-103217090D01*
X122076454Y-103286286D01*
X122074211Y-103345015D01*
X122071531Y-103394379D01*
X122068377Y-103435478D01*
X122064708Y-103469413D01*
X122060487Y-103497286D01*
X122055673Y-103520198D01*
X122050227Y-103539249D01*
X122044112Y-103555540D01*
X122037288Y-103570173D01*
X122029715Y-103584249D01*
X122021355Y-103598868D01*
X122016161Y-103607974D01*
X121981896Y-103668689D01*
X122840045Y-103668689D01*
X122840045Y-103572733D01*
X122840776Y-103529370D01*
X122842728Y-103496205D01*
X122845537Y-103478424D01*
X122846779Y-103476778D01*
X122858201Y-103483662D01*
X122880916Y-103501505D01*
X122903615Y-103520879D01*
X122958200Y-103561614D01*
X123027679Y-103602617D01*
X123104730Y-103640123D01*
X123182035Y-103670364D01*
X123212887Y-103680012D01*
X123281384Y-103694578D01*
X123364236Y-103704539D01*
X123453629Y-103709583D01*
X123541752Y-103709396D01*
X123620793Y-103703666D01*
X123658489Y-103697858D01*
X123796586Y-103659797D01*
X123923887Y-103602073D01*
X124039708Y-103525211D01*
X124143363Y-103429739D01*
X124234167Y-103316179D01*
X124300969Y-103205381D01*
X124355836Y-103088625D01*
X124397837Y-102969276D01*
X124427833Y-102843283D01*
X124446689Y-102706594D01*
X124455268Y-102555158D01*
X124455994Y-102477711D01*
X124453900Y-102420934D01*
X123624783Y-102420934D01*
X123624576Y-102514002D01*
X123621663Y-102601692D01*
X123616000Y-102678772D01*
X123607545Y-102740009D01*
X123604962Y-102752350D01*
X123573160Y-102859633D01*
X123531502Y-102946658D01*
X123479637Y-103013642D01*
X123417219Y-103060805D01*
X123343900Y-103088365D01*
X123259331Y-103096541D01*
X123163165Y-103085551D01*
X123099689Y-103069829D01*
X123050546Y-103051639D01*
X122996417Y-103025791D01*
X122955756Y-103002089D01*
X122885200Y-102955721D01*
X122885200Y-101805530D01*
X122952608Y-101761962D01*
X123031133Y-101721040D01*
X123115319Y-101694389D01*
X123200443Y-101682465D01*
X123281784Y-101685722D01*
X123354620Y-101704615D01*
X123386574Y-101720184D01*
X123444499Y-101763181D01*
X123493456Y-101819953D01*
X123534610Y-101892575D01*
X123569126Y-101983121D01*
X123598167Y-102093666D01*
X123599448Y-102099533D01*
X123609619Y-102161788D01*
X123617261Y-102239594D01*
X123622330Y-102327720D01*
X123624783Y-102420934D01*
X124453900Y-102420934D01*
X124448143Y-102264895D01*
X124426198Y-102069059D01*
X124390214Y-101890332D01*
X124340241Y-101728845D01*
X124276332Y-101584726D01*
X124198538Y-101458106D01*
X124106911Y-101349115D01*
X124001503Y-101257883D01*
X123956338Y-101226932D01*
X123855389Y-101170785D01*
X123752099Y-101131174D01*
X123642011Y-101107014D01*
X123520670Y-101097219D01*
X123428164Y-101098265D01*
X123298510Y-101109231D01*
X123185916Y-101131046D01*
X123087125Y-101164714D01*
X122998879Y-101211236D01*
X122950014Y-101245448D01*
X122920647Y-101267362D01*
X122898957Y-101282333D01*
X122890747Y-101286733D01*
X122889132Y-101275904D01*
X122887841Y-101245251D01*
X122886862Y-101197526D01*
X122886183Y-101135479D01*
X122885790Y-101061862D01*
X122885670Y-100979427D01*
X122885812Y-100890925D01*
X122886203Y-100799107D01*
X122886829Y-100706724D01*
X122887680Y-100616528D01*
X122888740Y-100531271D01*
X122889999Y-100453703D01*
X122891444Y-100386576D01*
X122893062Y-100332641D01*
X122894839Y-100294650D01*
X122895331Y-100287667D01*
X122902908Y-100217251D01*
X122914469Y-100162102D01*
X122932208Y-100114981D01*
X122958318Y-100068647D01*
X122964585Y-100059067D01*
X122989017Y-100022378D01*
X122083689Y-100022378D01*
X122083493Y-101707245D01*
G37*
X122083493Y-101707245D02*
X122083474Y-101941662D01*
X122083448Y-102154603D01*
X122083375Y-102347168D01*
X122083218Y-102520459D01*
X122082936Y-102675576D01*
X122082491Y-102813620D01*
X122081844Y-102935692D01*
X122080955Y-103042894D01*
X122079787Y-103136326D01*
X122078299Y-103217090D01*
X122076454Y-103286286D01*
X122074211Y-103345015D01*
X122071531Y-103394379D01*
X122068377Y-103435478D01*
X122064708Y-103469413D01*
X122060487Y-103497286D01*
X122055673Y-103520198D01*
X122050227Y-103539249D01*
X122044112Y-103555540D01*
X122037288Y-103570173D01*
X122029715Y-103584249D01*
X122021355Y-103598868D01*
X122016161Y-103607974D01*
X121981896Y-103668689D01*
X122840045Y-103668689D01*
X122840045Y-103572733D01*
X122840776Y-103529370D01*
X122842728Y-103496205D01*
X122845537Y-103478424D01*
X122846779Y-103476778D01*
X122858201Y-103483662D01*
X122880916Y-103501505D01*
X122903615Y-103520879D01*
X122958200Y-103561614D01*
X123027679Y-103602617D01*
X123104730Y-103640123D01*
X123182035Y-103670364D01*
X123212887Y-103680012D01*
X123281384Y-103694578D01*
X123364236Y-103704539D01*
X123453629Y-103709583D01*
X123541752Y-103709396D01*
X123620793Y-103703666D01*
X123658489Y-103697858D01*
X123796586Y-103659797D01*
X123923887Y-103602073D01*
X124039708Y-103525211D01*
X124143363Y-103429739D01*
X124234167Y-103316179D01*
X124300969Y-103205381D01*
X124355836Y-103088625D01*
X124397837Y-102969276D01*
X124427833Y-102843283D01*
X124446689Y-102706594D01*
X124455268Y-102555158D01*
X124455994Y-102477711D01*
X124453900Y-102420934D01*
X123624783Y-102420934D01*
X123624576Y-102514002D01*
X123621663Y-102601692D01*
X123616000Y-102678772D01*
X123607545Y-102740009D01*
X123604962Y-102752350D01*
X123573160Y-102859633D01*
X123531502Y-102946658D01*
X123479637Y-103013642D01*
X123417219Y-103060805D01*
X123343900Y-103088365D01*
X123259331Y-103096541D01*
X123163165Y-103085551D01*
X123099689Y-103069829D01*
X123050546Y-103051639D01*
X122996417Y-103025791D01*
X122955756Y-103002089D01*
X122885200Y-102955721D01*
X122885200Y-101805530D01*
X122952608Y-101761962D01*
X123031133Y-101721040D01*
X123115319Y-101694389D01*
X123200443Y-101682465D01*
X123281784Y-101685722D01*
X123354620Y-101704615D01*
X123386574Y-101720184D01*
X123444499Y-101763181D01*
X123493456Y-101819953D01*
X123534610Y-101892575D01*
X123569126Y-101983121D01*
X123598167Y-102093666D01*
X123599448Y-102099533D01*
X123609619Y-102161788D01*
X123617261Y-102239594D01*
X123622330Y-102327720D01*
X123624783Y-102420934D01*
X124453900Y-102420934D01*
X124448143Y-102264895D01*
X124426198Y-102069059D01*
X124390214Y-101890332D01*
X124340241Y-101728845D01*
X124276332Y-101584726D01*
X124198538Y-101458106D01*
X124106911Y-101349115D01*
X124001503Y-101257883D01*
X123956338Y-101226932D01*
X123855389Y-101170785D01*
X123752099Y-101131174D01*
X123642011Y-101107014D01*
X123520670Y-101097219D01*
X123428164Y-101098265D01*
X123298510Y-101109231D01*
X123185916Y-101131046D01*
X123087125Y-101164714D01*
X122998879Y-101211236D01*
X122950014Y-101245448D01*
X122920647Y-101267362D01*
X122898957Y-101282333D01*
X122890747Y-101286733D01*
X122889132Y-101275904D01*
X122887841Y-101245251D01*
X122886862Y-101197526D01*
X122886183Y-101135479D01*
X122885790Y-101061862D01*
X122885670Y-100979427D01*
X122885812Y-100890925D01*
X122886203Y-100799107D01*
X122886829Y-100706724D01*
X122887680Y-100616528D01*
X122888740Y-100531271D01*
X122889999Y-100453703D01*
X122891444Y-100386576D01*
X122893062Y-100332641D01*
X122894839Y-100294650D01*
X122895331Y-100287667D01*
X122902908Y-100217251D01*
X122914469Y-100162102D01*
X122932208Y-100114981D01*
X122958318Y-100068647D01*
X122964585Y-100059067D01*
X122989017Y-100022378D01*
X122083689Y-100022378D01*
X122083493Y-101707245D01*
G36*
X130543043Y-99261571D02*
G01*
X130446768Y-99285809D01*
X130360184Y-99328641D01*
X130285373Y-99388419D01*
X130224418Y-99463494D01*
X130179399Y-99552220D01*
X130153136Y-99648530D01*
X130147286Y-99745795D01*
X130162140Y-99839654D01*
X130195840Y-99927511D01*
X130246528Y-100006770D01*
X130312345Y-100074836D01*
X130391434Y-100129112D01*
X130481934Y-100167002D01*
X130533200Y-100179426D01*
X130577698Y-100186947D01*
X130611999Y-100189919D01*
X130644960Y-100188094D01*
X130685434Y-100181225D01*
X130718531Y-100174250D01*
X130811947Y-100142741D01*
X130895619Y-100091617D01*
X130967665Y-100022429D01*
X131026200Y-99936728D01*
X131040148Y-99909489D01*
X131056586Y-99873122D01*
X131066894Y-99842582D01*
X131072460Y-99810450D01*
X131074669Y-99769307D01*
X131074948Y-99723222D01*
X131070861Y-99638865D01*
X131057446Y-99569586D01*
X131032256Y-99508961D01*
X130992846Y-99450567D01*
X130954298Y-99406302D01*
X130882406Y-99340484D01*
X130807313Y-99295053D01*
X130724562Y-99267850D01*
X130646928Y-99257576D01*
X130543043Y-99261571D01*
G37*
X130543043Y-99261571D02*
X130446768Y-99285809D01*
X130360184Y-99328641D01*
X130285373Y-99388419D01*
X130224418Y-99463494D01*
X130179399Y-99552220D01*
X130153136Y-99648530D01*
X130147286Y-99745795D01*
X130162140Y-99839654D01*
X130195840Y-99927511D01*
X130246528Y-100006770D01*
X130312345Y-100074836D01*
X130391434Y-100129112D01*
X130481934Y-100167002D01*
X130533200Y-100179426D01*
X130577698Y-100186947D01*
X130611999Y-100189919D01*
X130644960Y-100188094D01*
X130685434Y-100181225D01*
X130718531Y-100174250D01*
X130811947Y-100142741D01*
X130895619Y-100091617D01*
X130967665Y-100022429D01*
X131026200Y-99936728D01*
X131040148Y-99909489D01*
X131056586Y-99873122D01*
X131066894Y-99842582D01*
X131072460Y-99810450D01*
X131074669Y-99769307D01*
X131074948Y-99723222D01*
X131070861Y-99638865D01*
X131057446Y-99569586D01*
X131032256Y-99508961D01*
X130992846Y-99450567D01*
X130954298Y-99406302D01*
X130882406Y-99340484D01*
X130807313Y-99295053D01*
X130724562Y-99267850D01*
X130646928Y-99257576D01*
X130543043Y-99261571D01*
G36*
X134391371Y-104504066D02*
G01*
X134351889Y-104504467D01*
X134236200Y-104507259D01*
X134139311Y-104515550D01*
X134057919Y-104530232D01*
X133988723Y-104552193D01*
X133928420Y-104582322D01*
X133873708Y-104621510D01*
X133854167Y-104638532D01*
X133821750Y-104678363D01*
X133792520Y-104732413D01*
X133769991Y-104792323D01*
X133757679Y-104849739D01*
X133756400Y-104870956D01*
X133764417Y-104929769D01*
X133785899Y-104994013D01*
X133816999Y-105054821D01*
X133853866Y-105103330D01*
X133859854Y-105109182D01*
X133910579Y-105150321D01*
X133966125Y-105182435D01*
X134029696Y-105206365D01*
X134104494Y-105222953D01*
X134193722Y-105233041D01*
X134300582Y-105237469D01*
X134349528Y-105237845D01*
X134411762Y-105237545D01*
X134455528Y-105236292D01*
X134484931Y-105233554D01*
X134504079Y-105228801D01*
X134517077Y-105221501D01*
X134524045Y-105215267D01*
X134530626Y-105207694D01*
X134535788Y-105197924D01*
X134539703Y-105183340D01*
X134542543Y-105161326D01*
X134544480Y-105129264D01*
X134545684Y-105084536D01*
X134546328Y-105024526D01*
X134546583Y-104946617D01*
X134546622Y-104870956D01*
X134546870Y-104770041D01*
X134546817Y-104689427D01*
X134545857Y-104650822D01*
X134399867Y-104650822D01*
X134399867Y-105091089D01*
X134306734Y-105091004D01*
X134250693Y-105089396D01*
X134191999Y-105085256D01*
X134143028Y-105079464D01*
X134141538Y-105079226D01*
X134062392Y-105060090D01*
X134001002Y-105030287D01*
X133954305Y-104987878D01*
X133924635Y-104941961D01*
X133906353Y-104891026D01*
X133907771Y-104843200D01*
X133928988Y-104791933D01*
X133970489Y-104738899D01*
X134027998Y-104699600D01*
X134102750Y-104673331D01*
X134152708Y-104664035D01*
X134209416Y-104657507D01*
X134269519Y-104652782D01*
X134320639Y-104650817D01*
X134323667Y-104650808D01*
X134399867Y-104650822D01*
X134545857Y-104650822D01*
X134545260Y-104626851D01*
X134540998Y-104580055D01*
X134532830Y-104546778D01*
X134519556Y-104524759D01*
X134499974Y-104511739D01*
X134472883Y-104505457D01*
X134437082Y-104503653D01*
X134391371Y-104504066D01*
G37*
X134391371Y-104504066D02*
X134351889Y-104504467D01*
X134236200Y-104507259D01*
X134139311Y-104515550D01*
X134057919Y-104530232D01*
X133988723Y-104552193D01*
X133928420Y-104582322D01*
X133873708Y-104621510D01*
X133854167Y-104638532D01*
X133821750Y-104678363D01*
X133792520Y-104732413D01*
X133769991Y-104792323D01*
X133757679Y-104849739D01*
X133756400Y-104870956D01*
X133764417Y-104929769D01*
X133785899Y-104994013D01*
X133816999Y-105054821D01*
X133853866Y-105103330D01*
X133859854Y-105109182D01*
X133910579Y-105150321D01*
X133966125Y-105182435D01*
X134029696Y-105206365D01*
X134104494Y-105222953D01*
X134193722Y-105233041D01*
X134300582Y-105237469D01*
X134349528Y-105237845D01*
X134411762Y-105237545D01*
X134455528Y-105236292D01*
X134484931Y-105233554D01*
X134504079Y-105228801D01*
X134517077Y-105221501D01*
X134524045Y-105215267D01*
X134530626Y-105207694D01*
X134535788Y-105197924D01*
X134539703Y-105183340D01*
X134542543Y-105161326D01*
X134544480Y-105129264D01*
X134545684Y-105084536D01*
X134546328Y-105024526D01*
X134546583Y-104946617D01*
X134546622Y-104870956D01*
X134546870Y-104770041D01*
X134546817Y-104689427D01*
X134545857Y-104650822D01*
X134399867Y-104650822D01*
X134399867Y-105091089D01*
X134306734Y-105091004D01*
X134250693Y-105089396D01*
X134191999Y-105085256D01*
X134143028Y-105079464D01*
X134141538Y-105079226D01*
X134062392Y-105060090D01*
X134001002Y-105030287D01*
X133954305Y-104987878D01*
X133924635Y-104941961D01*
X133906353Y-104891026D01*
X133907771Y-104843200D01*
X133928988Y-104791933D01*
X133970489Y-104738899D01*
X134027998Y-104699600D01*
X134102750Y-104673331D01*
X134152708Y-104664035D01*
X134209416Y-104657507D01*
X134269519Y-104652782D01*
X134320639Y-104650817D01*
X134323667Y-104650808D01*
X134399867Y-104650822D01*
X134545857Y-104650822D01*
X134545260Y-104626851D01*
X134540998Y-104580055D01*
X134532830Y-104546778D01*
X134519556Y-104524759D01*
X134499974Y-104511739D01*
X134472883Y-104505457D01*
X134437082Y-104503653D01*
X134391371Y-104504066D01*
G36*
X132982794Y-104504146D02*
G01*
X132913386Y-104504518D01*
X132860997Y-104505385D01*
X132822847Y-104506946D01*
X132796159Y-104509403D01*
X132778153Y-104512957D01*
X132766049Y-104517810D01*
X132757069Y-104524161D01*
X132753818Y-104527084D01*
X132734043Y-104558142D01*
X132730482Y-104593828D01*
X132743491Y-104625510D01*
X132749506Y-104631913D01*
X132759235Y-104638121D01*
X132774901Y-104642910D01*
X132799408Y-104646514D01*
X132835661Y-104649164D01*
X132886565Y-104651095D01*
X132955026Y-104652539D01*
X133017617Y-104653418D01*
X133265334Y-104656467D01*
X133268719Y-104721378D01*
X133272105Y-104786289D01*
X133103958Y-104786289D01*
X133030959Y-104786919D01*
X132977517Y-104789553D01*
X132940628Y-104795309D01*
X132917288Y-104805304D01*
X132904494Y-104820656D01*
X132899242Y-104842482D01*
X132898445Y-104862738D01*
X132900923Y-104887592D01*
X132910277Y-104905906D01*
X132929383Y-104918637D01*
X132961118Y-104926741D01*
X133008359Y-104931176D01*
X133073983Y-104932899D01*
X133109801Y-104933045D01*
X133270978Y-104933045D01*
X133270978Y-105091089D01*
X133022622Y-105091089D01*
X132941213Y-105091202D01*
X132879342Y-105091712D01*
X132833968Y-105092870D01*
X132802054Y-105094930D01*
X132780559Y-105098146D01*
X132766443Y-105102772D01*
X132756668Y-105109059D01*
X132751689Y-105113667D01*
X132734610Y-105140560D01*
X132729111Y-105164467D01*
X132736963Y-105193667D01*
X132751689Y-105215267D01*
X132759546Y-105222066D01*
X132769688Y-105227346D01*
X132784844Y-105231298D01*
X132807741Y-105234113D01*
X132841109Y-105235982D01*
X132887675Y-105237098D01*
X132950167Y-105237651D01*
X133031314Y-105237833D01*
X133073422Y-105237845D01*
X133163598Y-105237765D01*
X133233924Y-105237398D01*
X133287129Y-105236552D01*
X133325940Y-105235036D01*
X133353087Y-105232659D01*
X133371298Y-105229229D01*
X133383300Y-105224554D01*
X133391822Y-105218444D01*
X133395156Y-105215267D01*
X133401755Y-105207670D01*
X133406927Y-105197870D01*
X133410846Y-105183239D01*
X133413684Y-105161152D01*
X133415615Y-105128982D01*
X133416812Y-105084103D01*
X133417448Y-105023889D01*
X133417697Y-104945713D01*
X133417734Y-104872923D01*
X133417700Y-104779707D01*
X133417465Y-104706431D01*
X133416830Y-104650458D01*
X133415594Y-104609151D01*
X133413556Y-104579872D01*
X133410517Y-104559984D01*
X133406277Y-104546850D01*
X133400635Y-104537832D01*
X133393391Y-104530293D01*
X133391606Y-104528612D01*
X133382945Y-104521172D01*
X133372882Y-104515409D01*
X133358625Y-104511112D01*
X133337383Y-104508064D01*
X133306364Y-104506051D01*
X133262777Y-104504860D01*
X133203831Y-104504275D01*
X133126734Y-104504083D01*
X133072001Y-104504067D01*
X132982794Y-104504146D01*
G37*
X132982794Y-104504146D02*
X132913386Y-104504518D01*
X132860997Y-104505385D01*
X132822847Y-104506946D01*
X132796159Y-104509403D01*
X132778153Y-104512957D01*
X132766049Y-104517810D01*
X132757069Y-104524161D01*
X132753818Y-104527084D01*
X132734043Y-104558142D01*
X132730482Y-104593828D01*
X132743491Y-104625510D01*
X132749506Y-104631913D01*
X132759235Y-104638121D01*
X132774901Y-104642910D01*
X132799408Y-104646514D01*
X132835661Y-104649164D01*
X132886565Y-104651095D01*
X132955026Y-104652539D01*
X133017617Y-104653418D01*
X133265334Y-104656467D01*
X133268719Y-104721378D01*
X133272105Y-104786289D01*
X133103958Y-104786289D01*
X133030959Y-104786919D01*
X132977517Y-104789553D01*
X132940628Y-104795309D01*
X132917288Y-104805304D01*
X132904494Y-104820656D01*
X132899242Y-104842482D01*
X132898445Y-104862738D01*
X132900923Y-104887592D01*
X132910277Y-104905906D01*
X132929383Y-104918637D01*
X132961118Y-104926741D01*
X133008359Y-104931176D01*
X133073983Y-104932899D01*
X133109801Y-104933045D01*
X133270978Y-104933045D01*
X133270978Y-105091089D01*
X133022622Y-105091089D01*
X132941213Y-105091202D01*
X132879342Y-105091712D01*
X132833968Y-105092870D01*
X132802054Y-105094930D01*
X132780559Y-105098146D01*
X132766443Y-105102772D01*
X132756668Y-105109059D01*
X132751689Y-105113667D01*
X132734610Y-105140560D01*
X132729111Y-105164467D01*
X132736963Y-105193667D01*
X132751689Y-105215267D01*
X132759546Y-105222066D01*
X132769688Y-105227346D01*
X132784844Y-105231298D01*
X132807741Y-105234113D01*
X132841109Y-105235982D01*
X132887675Y-105237098D01*
X132950167Y-105237651D01*
X133031314Y-105237833D01*
X133073422Y-105237845D01*
X133163598Y-105237765D01*
X133233924Y-105237398D01*
X133287129Y-105236552D01*
X133325940Y-105235036D01*
X133353087Y-105232659D01*
X133371298Y-105229229D01*
X133383300Y-105224554D01*
X133391822Y-105218444D01*
X133395156Y-105215267D01*
X133401755Y-105207670D01*
X133406927Y-105197870D01*
X133410846Y-105183239D01*
X133413684Y-105161152D01*
X133415615Y-105128982D01*
X133416812Y-105084103D01*
X133417448Y-105023889D01*
X133417697Y-104945713D01*
X133417734Y-104872923D01*
X133417700Y-104779707D01*
X133417465Y-104706431D01*
X133416830Y-104650458D01*
X133415594Y-104609151D01*
X133413556Y-104579872D01*
X133410517Y-104559984D01*
X133406277Y-104546850D01*
X133400635Y-104537832D01*
X133393391Y-104530293D01*
X133391606Y-104528612D01*
X133382945Y-104521172D01*
X133372882Y-104515409D01*
X133358625Y-104511112D01*
X133337383Y-104508064D01*
X133306364Y-104506051D01*
X133262777Y-104504860D01*
X133203831Y-104504275D01*
X133126734Y-104504083D01*
X133072001Y-104504067D01*
X132982794Y-104504146D01*
G36*
X131961703Y-104505351D02*
G01*
X131886888Y-104510581D01*
X131817306Y-104518750D01*
X131757002Y-104529550D01*
X131710020Y-104542673D01*
X131680406Y-104557813D01*
X131675860Y-104562269D01*
X131660054Y-104596850D01*
X131664847Y-104632351D01*
X131689364Y-104662725D01*
X131690534Y-104663596D01*
X131704954Y-104672954D01*
X131720008Y-104677876D01*
X131741005Y-104678473D01*
X131773257Y-104674861D01*
X131822073Y-104667154D01*
X131826000Y-104666505D01*
X131898739Y-104657569D01*
X131977217Y-104653161D01*
X132055927Y-104653119D01*
X132129361Y-104657279D01*
X132192011Y-104665479D01*
X132238370Y-104677557D01*
X132241416Y-104678771D01*
X132275048Y-104697615D01*
X132286864Y-104716685D01*
X132277614Y-104735439D01*
X132248047Y-104753337D01*
X132198911Y-104769837D01*
X132130957Y-104784396D01*
X132085645Y-104791406D01*
X131991456Y-104804889D01*
X131916544Y-104817214D01*
X131857717Y-104829449D01*
X131811785Y-104842661D01*
X131775555Y-104857917D01*
X131745838Y-104876285D01*
X131719442Y-104898831D01*
X131698230Y-104920971D01*
X131673065Y-104951819D01*
X131660681Y-104978345D01*
X131656808Y-105011026D01*
X131656667Y-105022995D01*
X131659576Y-105062712D01*
X131671202Y-105092259D01*
X131691323Y-105118486D01*
X131732216Y-105158576D01*
X131777817Y-105189149D01*
X131831513Y-105211203D01*
X131896692Y-105225735D01*
X131976744Y-105233741D01*
X132075057Y-105236218D01*
X132091289Y-105236177D01*
X132156849Y-105234818D01*
X132221866Y-105231730D01*
X132279252Y-105227356D01*
X132321922Y-105222140D01*
X132325372Y-105221541D01*
X132367796Y-105211491D01*
X132403780Y-105198796D01*
X132424150Y-105187190D01*
X132443107Y-105156572D01*
X132444427Y-105120918D01*
X132428085Y-105089144D01*
X132424429Y-105085551D01*
X132409315Y-105074876D01*
X132390415Y-105070276D01*
X132361162Y-105071059D01*
X132325651Y-105075127D01*
X132285970Y-105078762D01*
X132230345Y-105081828D01*
X132165406Y-105084053D01*
X132097785Y-105085164D01*
X132080000Y-105085237D01*
X132012128Y-105084964D01*
X131962454Y-105083646D01*
X131926610Y-105080827D01*
X131900224Y-105076050D01*
X131878926Y-105068857D01*
X131866126Y-105062867D01*
X131838000Y-105046233D01*
X131820068Y-105031168D01*
X131817447Y-105026897D01*
X131822976Y-105009263D01*
X131849260Y-104992192D01*
X131894478Y-104976458D01*
X131956808Y-104962838D01*
X131975171Y-104959804D01*
X132071090Y-104944738D01*
X132147641Y-104932146D01*
X132207780Y-104921111D01*
X132254460Y-104910720D01*
X132290637Y-104900056D01*
X132319265Y-104888205D01*
X132343298Y-104874251D01*
X132365692Y-104857281D01*
X132389402Y-104836378D01*
X132397380Y-104829049D01*
X132425353Y-104801699D01*
X132440160Y-104780029D01*
X132445952Y-104755232D01*
X132446889Y-104723983D01*
X132436575Y-104662705D01*
X132405752Y-104610640D01*
X132354595Y-104567958D01*
X132283283Y-104534825D01*
X132232400Y-104519964D01*
X132177100Y-104510366D01*
X132110853Y-104504936D01*
X132037706Y-104503367D01*
X131961703Y-104505351D01*
G37*
X131961703Y-104505351D02*
X131886888Y-104510581D01*
X131817306Y-104518750D01*
X131757002Y-104529550D01*
X131710020Y-104542673D01*
X131680406Y-104557813D01*
X131675860Y-104562269D01*
X131660054Y-104596850D01*
X131664847Y-104632351D01*
X131689364Y-104662725D01*
X131690534Y-104663596D01*
X131704954Y-104672954D01*
X131720008Y-104677876D01*
X131741005Y-104678473D01*
X131773257Y-104674861D01*
X131822073Y-104667154D01*
X131826000Y-104666505D01*
X131898739Y-104657569D01*
X131977217Y-104653161D01*
X132055927Y-104653119D01*
X132129361Y-104657279D01*
X132192011Y-104665479D01*
X132238370Y-104677557D01*
X132241416Y-104678771D01*
X132275048Y-104697615D01*
X132286864Y-104716685D01*
X132277614Y-104735439D01*
X132248047Y-104753337D01*
X132198911Y-104769837D01*
X132130957Y-104784396D01*
X132085645Y-104791406D01*
X131991456Y-104804889D01*
X131916544Y-104817214D01*
X131857717Y-104829449D01*
X131811785Y-104842661D01*
X131775555Y-104857917D01*
X131745838Y-104876285D01*
X131719442Y-104898831D01*
X131698230Y-104920971D01*
X131673065Y-104951819D01*
X131660681Y-104978345D01*
X131656808Y-105011026D01*
X131656667Y-105022995D01*
X131659576Y-105062712D01*
X131671202Y-105092259D01*
X131691323Y-105118486D01*
X131732216Y-105158576D01*
X131777817Y-105189149D01*
X131831513Y-105211203D01*
X131896692Y-105225735D01*
X131976744Y-105233741D01*
X132075057Y-105236218D01*
X132091289Y-105236177D01*
X132156849Y-105234818D01*
X132221866Y-105231730D01*
X132279252Y-105227356D01*
X132321922Y-105222140D01*
X132325372Y-105221541D01*
X132367796Y-105211491D01*
X132403780Y-105198796D01*
X132424150Y-105187190D01*
X132443107Y-105156572D01*
X132444427Y-105120918D01*
X132428085Y-105089144D01*
X132424429Y-105085551D01*
X132409315Y-105074876D01*
X132390415Y-105070276D01*
X132361162Y-105071059D01*
X132325651Y-105075127D01*
X132285970Y-105078762D01*
X132230345Y-105081828D01*
X132165406Y-105084053D01*
X132097785Y-105085164D01*
X132080000Y-105085237D01*
X132012128Y-105084964D01*
X131962454Y-105083646D01*
X131926610Y-105080827D01*
X131900224Y-105076050D01*
X131878926Y-105068857D01*
X131866126Y-105062867D01*
X131838000Y-105046233D01*
X131820068Y-105031168D01*
X131817447Y-105026897D01*
X131822976Y-105009263D01*
X131849260Y-104992192D01*
X131894478Y-104976458D01*
X131956808Y-104962838D01*
X131975171Y-104959804D01*
X132071090Y-104944738D01*
X132147641Y-104932146D01*
X132207780Y-104921111D01*
X132254460Y-104910720D01*
X132290637Y-104900056D01*
X132319265Y-104888205D01*
X132343298Y-104874251D01*
X132365692Y-104857281D01*
X132389402Y-104836378D01*
X132397380Y-104829049D01*
X132425353Y-104801699D01*
X132440160Y-104780029D01*
X132445952Y-104755232D01*
X132446889Y-104723983D01*
X132436575Y-104662705D01*
X132405752Y-104610640D01*
X132354595Y-104567958D01*
X132283283Y-104534825D01*
X132232400Y-104519964D01*
X132177100Y-104510366D01*
X132110853Y-104504936D01*
X132037706Y-104503367D01*
X131961703Y-104505351D01*
G36*
X131193822Y-104526645D02*
G01*
X131187242Y-104534218D01*
X131182079Y-104543987D01*
X131178164Y-104558571D01*
X131175324Y-104580585D01*
X131173387Y-104612648D01*
X131172183Y-104657375D01*
X131171539Y-104717385D01*
X131171284Y-104795294D01*
X131171245Y-104870956D01*
X131171314Y-104964802D01*
X131171638Y-105038689D01*
X131172386Y-105095232D01*
X131173732Y-105137049D01*
X131175846Y-105166757D01*
X131178900Y-105186973D01*
X131183066Y-105200314D01*
X131188516Y-105209398D01*
X131193822Y-105215267D01*
X131226826Y-105234947D01*
X131261991Y-105233181D01*
X131293455Y-105211717D01*
X131300684Y-105203337D01*
X131306334Y-105193614D01*
X131310599Y-105179861D01*
X131313673Y-105159389D01*
X131315752Y-105129512D01*
X131317030Y-105087541D01*
X131317701Y-105030789D01*
X131317959Y-104956567D01*
X131318000Y-104872537D01*
X131318000Y-104559485D01*
X131290291Y-104531776D01*
X131256137Y-104508463D01*
X131223006Y-104507623D01*
X131193822Y-104526645D01*
G37*
X131193822Y-104526645D02*
X131187242Y-104534218D01*
X131182079Y-104543987D01*
X131178164Y-104558571D01*
X131175324Y-104580585D01*
X131173387Y-104612648D01*
X131172183Y-104657375D01*
X131171539Y-104717385D01*
X131171284Y-104795294D01*
X131171245Y-104870956D01*
X131171314Y-104964802D01*
X131171638Y-105038689D01*
X131172386Y-105095232D01*
X131173732Y-105137049D01*
X131175846Y-105166757D01*
X131178900Y-105186973D01*
X131183066Y-105200314D01*
X131188516Y-105209398D01*
X131193822Y-105215267D01*
X131226826Y-105234947D01*
X131261991Y-105233181D01*
X131293455Y-105211717D01*
X131300684Y-105203337D01*
X131306334Y-105193614D01*
X131310599Y-105179861D01*
X131313673Y-105159389D01*
X131315752Y-105129512D01*
X131317030Y-105087541D01*
X131317701Y-105030789D01*
X131317959Y-104956567D01*
X131318000Y-104872537D01*
X131318000Y-104559485D01*
X131290291Y-104531776D01*
X131256137Y-104508463D01*
X131223006Y-104507623D01*
X131193822Y-104526645D01*
G36*
X130220081Y-104509599D02*
G01*
X130151565Y-104521095D01*
X130098943Y-104538967D01*
X130064708Y-104562499D01*
X130055379Y-104575924D01*
X130045893Y-104607148D01*
X130052277Y-104635395D01*
X130072430Y-104662182D01*
X130103745Y-104674713D01*
X130149183Y-104673696D01*
X130184326Y-104666906D01*
X130262419Y-104653971D01*
X130342226Y-104652742D01*
X130431555Y-104663241D01*
X130456229Y-104667690D01*
X130539291Y-104691108D01*
X130604273Y-104725945D01*
X130650461Y-104771604D01*
X130677145Y-104827494D01*
X130682663Y-104856388D01*
X130679051Y-104915012D01*
X130655729Y-104966879D01*
X130614824Y-105010978D01*
X130558459Y-105046299D01*
X130488760Y-105071829D01*
X130407852Y-105086559D01*
X130317860Y-105089478D01*
X130220910Y-105079575D01*
X130215436Y-105078641D01*
X130176875Y-105071459D01*
X130155494Y-105064521D01*
X130146227Y-105054227D01*
X130144006Y-105036976D01*
X130143956Y-105027841D01*
X130143956Y-104989489D01*
X130212431Y-104989489D01*
X130272900Y-104985347D01*
X130314165Y-104972147D01*
X130338175Y-104948730D01*
X130346877Y-104913936D01*
X130346983Y-104909394D01*
X130341892Y-104879654D01*
X130324433Y-104858419D01*
X130291939Y-104844366D01*
X130241743Y-104836173D01*
X130193123Y-104833161D01*
X130122456Y-104831433D01*
X130071198Y-104834070D01*
X130036239Y-104843800D01*
X130014470Y-104863353D01*
X130002780Y-104895456D01*
X129998060Y-104942838D01*
X129997200Y-105005071D01*
X129998609Y-105074535D01*
X130002848Y-105121786D01*
X130009936Y-105147012D01*
X130011311Y-105148988D01*
X130050228Y-105180508D01*
X130107286Y-105205470D01*
X130178869Y-105223340D01*
X130261358Y-105233586D01*
X130351139Y-105235673D01*
X130444592Y-105229068D01*
X130499556Y-105220956D01*
X130585766Y-105196554D01*
X130665892Y-105156662D01*
X130732977Y-105104887D01*
X130743173Y-105094539D01*
X130776302Y-105051035D01*
X130806194Y-104997118D01*
X130829357Y-104940592D01*
X130842298Y-104889259D01*
X130843858Y-104869544D01*
X130837218Y-104828419D01*
X130819568Y-104777252D01*
X130794297Y-104723394D01*
X130764789Y-104674195D01*
X130738719Y-104641334D01*
X130677765Y-104592452D01*
X130598969Y-104553545D01*
X130505157Y-104525494D01*
X130399150Y-104509179D01*
X130302000Y-104505192D01*
X130220081Y-104509599D01*
G37*
X130220081Y-104509599D02*
X130151565Y-104521095D01*
X130098943Y-104538967D01*
X130064708Y-104562499D01*
X130055379Y-104575924D01*
X130045893Y-104607148D01*
X130052277Y-104635395D01*
X130072430Y-104662182D01*
X130103745Y-104674713D01*
X130149183Y-104673696D01*
X130184326Y-104666906D01*
X130262419Y-104653971D01*
X130342226Y-104652742D01*
X130431555Y-104663241D01*
X130456229Y-104667690D01*
X130539291Y-104691108D01*
X130604273Y-104725945D01*
X130650461Y-104771604D01*
X130677145Y-104827494D01*
X130682663Y-104856388D01*
X130679051Y-104915012D01*
X130655729Y-104966879D01*
X130614824Y-105010978D01*
X130558459Y-105046299D01*
X130488760Y-105071829D01*
X130407852Y-105086559D01*
X130317860Y-105089478D01*
X130220910Y-105079575D01*
X130215436Y-105078641D01*
X130176875Y-105071459D01*
X130155494Y-105064521D01*
X130146227Y-105054227D01*
X130144006Y-105036976D01*
X130143956Y-105027841D01*
X130143956Y-104989489D01*
X130212431Y-104989489D01*
X130272900Y-104985347D01*
X130314165Y-104972147D01*
X130338175Y-104948730D01*
X130346877Y-104913936D01*
X130346983Y-104909394D01*
X130341892Y-104879654D01*
X130324433Y-104858419D01*
X130291939Y-104844366D01*
X130241743Y-104836173D01*
X130193123Y-104833161D01*
X130122456Y-104831433D01*
X130071198Y-104834070D01*
X130036239Y-104843800D01*
X130014470Y-104863353D01*
X130002780Y-104895456D01*
X129998060Y-104942838D01*
X129997200Y-105005071D01*
X129998609Y-105074535D01*
X130002848Y-105121786D01*
X130009936Y-105147012D01*
X130011311Y-105148988D01*
X130050228Y-105180508D01*
X130107286Y-105205470D01*
X130178869Y-105223340D01*
X130261358Y-105233586D01*
X130351139Y-105235673D01*
X130444592Y-105229068D01*
X130499556Y-105220956D01*
X130585766Y-105196554D01*
X130665892Y-105156662D01*
X130732977Y-105104887D01*
X130743173Y-105094539D01*
X130776302Y-105051035D01*
X130806194Y-104997118D01*
X130829357Y-104940592D01*
X130842298Y-104889259D01*
X130843858Y-104869544D01*
X130837218Y-104828419D01*
X130819568Y-104777252D01*
X130794297Y-104723394D01*
X130764789Y-104674195D01*
X130738719Y-104641334D01*
X130677765Y-104592452D01*
X130598969Y-104553545D01*
X130505157Y-104525494D01*
X130399150Y-104509179D01*
X130302000Y-104505192D01*
X130220081Y-104509599D01*
G36*
X129570114Y-104508448D02*
G01*
X129546548Y-104522273D01*
X129515735Y-104544881D01*
X129476078Y-104577338D01*
X129425980Y-104620708D01*
X129363843Y-104676058D01*
X129288072Y-104744451D01*
X129201334Y-104823084D01*
X129020711Y-104986878D01*
X129015067Y-104767029D01*
X129013029Y-104691351D01*
X129011063Y-104634994D01*
X129008734Y-104594706D01*
X129005606Y-104567235D01*
X129001245Y-104549329D01*
X128995216Y-104537737D01*
X128987084Y-104529208D01*
X128982772Y-104525623D01*
X128948241Y-104506670D01*
X128915383Y-104509441D01*
X128889318Y-104525633D01*
X128862667Y-104547199D01*
X128859352Y-104862151D01*
X128858435Y-104954779D01*
X128857968Y-105027544D01*
X128858113Y-105083161D01*
X128859032Y-105124342D01*
X128860887Y-105153803D01*
X128863839Y-105174255D01*
X128868050Y-105188413D01*
X128873682Y-105198991D01*
X128879927Y-105207474D01*
X128893439Y-105223207D01*
X128906883Y-105233636D01*
X128922124Y-105237639D01*
X128941026Y-105234094D01*
X128965455Y-105221879D01*
X128997273Y-105199871D01*
X129038348Y-105166949D01*
X129090542Y-105121991D01*
X129155722Y-105063875D01*
X129229556Y-104997099D01*
X129494845Y-104756458D01*
X129500489Y-104975589D01*
X129502531Y-105051128D01*
X129504502Y-105107354D01*
X129506839Y-105147524D01*
X129509981Y-105174896D01*
X129514364Y-105192728D01*
X129520424Y-105204279D01*
X129528600Y-105212807D01*
X129532784Y-105216282D01*
X129569765Y-105235372D01*
X129604708Y-105232493D01*
X129635136Y-105208100D01*
X129642097Y-105198286D01*
X129647523Y-105186826D01*
X129651603Y-105170968D01*
X129654529Y-105147963D01*
X129656492Y-105115062D01*
X129657683Y-105069516D01*
X129658292Y-105008573D01*
X129658511Y-104929486D01*
X129658534Y-104870956D01*
X129658460Y-104779407D01*
X129658113Y-104707687D01*
X129657301Y-104653045D01*
X129655833Y-104612732D01*
X129653519Y-104583998D01*
X129650167Y-104564093D01*
X129645588Y-104550268D01*
X129639589Y-104539772D01*
X129635136Y-104533811D01*
X129623850Y-104519691D01*
X129613301Y-104509029D01*
X129601893Y-104502892D01*
X129588030Y-104502343D01*
X129570114Y-104508448D01*
G37*
X129570114Y-104508448D02*
X129546548Y-104522273D01*
X129515735Y-104544881D01*
X129476078Y-104577338D01*
X129425980Y-104620708D01*
X129363843Y-104676058D01*
X129288072Y-104744451D01*
X129201334Y-104823084D01*
X129020711Y-104986878D01*
X129015067Y-104767029D01*
X129013029Y-104691351D01*
X129011063Y-104634994D01*
X129008734Y-104594706D01*
X129005606Y-104567235D01*
X129001245Y-104549329D01*
X128995216Y-104537737D01*
X128987084Y-104529208D01*
X128982772Y-104525623D01*
X128948241Y-104506670D01*
X128915383Y-104509441D01*
X128889318Y-104525633D01*
X128862667Y-104547199D01*
X128859352Y-104862151D01*
X128858435Y-104954779D01*
X128857968Y-105027544D01*
X128858113Y-105083161D01*
X128859032Y-105124342D01*
X128860887Y-105153803D01*
X128863839Y-105174255D01*
X128868050Y-105188413D01*
X128873682Y-105198991D01*
X128879927Y-105207474D01*
X128893439Y-105223207D01*
X128906883Y-105233636D01*
X128922124Y-105237639D01*
X128941026Y-105234094D01*
X128965455Y-105221879D01*
X128997273Y-105199871D01*
X129038348Y-105166949D01*
X129090542Y-105121991D01*
X129155722Y-105063875D01*
X129229556Y-104997099D01*
X129494845Y-104756458D01*
X129500489Y-104975589D01*
X129502531Y-105051128D01*
X129504502Y-105107354D01*
X129506839Y-105147524D01*
X129509981Y-105174896D01*
X129514364Y-105192728D01*
X129520424Y-105204279D01*
X129528600Y-105212807D01*
X129532784Y-105216282D01*
X129569765Y-105235372D01*
X129604708Y-105232493D01*
X129635136Y-105208100D01*
X129642097Y-105198286D01*
X129647523Y-105186826D01*
X129651603Y-105170968D01*
X129654529Y-105147963D01*
X129656492Y-105115062D01*
X129657683Y-105069516D01*
X129658292Y-105008573D01*
X129658511Y-104929486D01*
X129658534Y-104870956D01*
X129658460Y-104779407D01*
X129658113Y-104707687D01*
X129657301Y-104653045D01*
X129655833Y-104612732D01*
X129653519Y-104583998D01*
X129650167Y-104564093D01*
X129645588Y-104550268D01*
X129639589Y-104539772D01*
X129635136Y-104533811D01*
X129623850Y-104519691D01*
X129613301Y-104509029D01*
X129601893Y-104502892D01*
X129588030Y-104502343D01*
X129570114Y-104508448D01*
G36*
X128039657Y-104504260D02*
G01*
X127963299Y-104505174D01*
X127904783Y-104507311D01*
X127861745Y-104511175D01*
X127831817Y-104517267D01*
X127812632Y-104526090D01*
X127801824Y-104538146D01*
X127797027Y-104553939D01*
X127795873Y-104573970D01*
X127795867Y-104576335D01*
X127796869Y-104598992D01*
X127801604Y-104616503D01*
X127812667Y-104629574D01*
X127832652Y-104638913D01*
X127864154Y-104645227D01*
X127909768Y-104649222D01*
X127972087Y-104651606D01*
X128053707Y-104653086D01*
X128078723Y-104653414D01*
X128320800Y-104656467D01*
X128324186Y-104721378D01*
X128327571Y-104786289D01*
X128159424Y-104786289D01*
X128093734Y-104786531D01*
X128046828Y-104787556D01*
X128014917Y-104789811D01*
X127994209Y-104793742D01*
X127980916Y-104799798D01*
X127971245Y-104808424D01*
X127971183Y-104808493D01*
X127953644Y-104842112D01*
X127954278Y-104878448D01*
X127972686Y-104909423D01*
X127976329Y-104912607D01*
X127989259Y-104920812D01*
X128006976Y-104926521D01*
X128033430Y-104930162D01*
X128072568Y-104932167D01*
X128128338Y-104932964D01*
X128164006Y-104933045D01*
X128326445Y-104933045D01*
X128326445Y-105091089D01*
X128079839Y-105091089D01*
X127998420Y-105091231D01*
X127936590Y-105091814D01*
X127891363Y-105093068D01*
X127859752Y-105095227D01*
X127838769Y-105098523D01*
X127825427Y-105103189D01*
X127816739Y-105109457D01*
X127814550Y-105111733D01*
X127798386Y-105143280D01*
X127797203Y-105179168D01*
X127810464Y-105210285D01*
X127820957Y-105220271D01*
X127831871Y-105225769D01*
X127848783Y-105230022D01*
X127874367Y-105233180D01*
X127911299Y-105235392D01*
X127962254Y-105236806D01*
X128029906Y-105237572D01*
X128116931Y-105237838D01*
X128136606Y-105237845D01*
X128225089Y-105237787D01*
X128293773Y-105237467D01*
X128345436Y-105236667D01*
X128382855Y-105235167D01*
X128408810Y-105232749D01*
X128426078Y-105229194D01*
X128437438Y-105224282D01*
X128445668Y-105217795D01*
X128450183Y-105213138D01*
X128456979Y-105204889D01*
X128462288Y-105194669D01*
X128466294Y-105179800D01*
X128469179Y-105157602D01*
X128471126Y-105125393D01*
X128472319Y-105080496D01*
X128472939Y-105020228D01*
X128473171Y-104941911D01*
X128473200Y-104875994D01*
X128473129Y-104783628D01*
X128472792Y-104711117D01*
X128472002Y-104655737D01*
X128470574Y-104614765D01*
X128468321Y-104585478D01*
X128465057Y-104565153D01*
X128460596Y-104551066D01*
X128454752Y-104540495D01*
X128449803Y-104533811D01*
X128426406Y-104504067D01*
X128136226Y-104504067D01*
X128039657Y-104504260D01*
G37*
X128039657Y-104504260D02*
X127963299Y-104505174D01*
X127904783Y-104507311D01*
X127861745Y-104511175D01*
X127831817Y-104517267D01*
X127812632Y-104526090D01*
X127801824Y-104538146D01*
X127797027Y-104553939D01*
X127795873Y-104573970D01*
X127795867Y-104576335D01*
X127796869Y-104598992D01*
X127801604Y-104616503D01*
X127812667Y-104629574D01*
X127832652Y-104638913D01*
X127864154Y-104645227D01*
X127909768Y-104649222D01*
X127972087Y-104651606D01*
X128053707Y-104653086D01*
X128078723Y-104653414D01*
X128320800Y-104656467D01*
X128324186Y-104721378D01*
X128327571Y-104786289D01*
X128159424Y-104786289D01*
X128093734Y-104786531D01*
X128046828Y-104787556D01*
X128014917Y-104789811D01*
X127994209Y-104793742D01*
X127980916Y-104799798D01*
X127971245Y-104808424D01*
X127971183Y-104808493D01*
X127953644Y-104842112D01*
X127954278Y-104878448D01*
X127972686Y-104909423D01*
X127976329Y-104912607D01*
X127989259Y-104920812D01*
X128006976Y-104926521D01*
X128033430Y-104930162D01*
X128072568Y-104932167D01*
X128128338Y-104932964D01*
X128164006Y-104933045D01*
X128326445Y-104933045D01*
X128326445Y-105091089D01*
X128079839Y-105091089D01*
X127998420Y-105091231D01*
X127936590Y-105091814D01*
X127891363Y-105093068D01*
X127859752Y-105095227D01*
X127838769Y-105098523D01*
X127825427Y-105103189D01*
X127816739Y-105109457D01*
X127814550Y-105111733D01*
X127798386Y-105143280D01*
X127797203Y-105179168D01*
X127810464Y-105210285D01*
X127820957Y-105220271D01*
X127831871Y-105225769D01*
X127848783Y-105230022D01*
X127874367Y-105233180D01*
X127911299Y-105235392D01*
X127962254Y-105236806D01*
X128029906Y-105237572D01*
X128116931Y-105237838D01*
X128136606Y-105237845D01*
X128225089Y-105237787D01*
X128293773Y-105237467D01*
X128345436Y-105236667D01*
X128382855Y-105235167D01*
X128408810Y-105232749D01*
X128426078Y-105229194D01*
X128437438Y-105224282D01*
X128445668Y-105217795D01*
X128450183Y-105213138D01*
X128456979Y-105204889D01*
X128462288Y-105194669D01*
X128466294Y-105179800D01*
X128469179Y-105157602D01*
X128471126Y-105125393D01*
X128472319Y-105080496D01*
X128472939Y-105020228D01*
X128473171Y-104941911D01*
X128473200Y-104875994D01*
X128473129Y-104783628D01*
X128472792Y-104711117D01*
X128472002Y-104655737D01*
X128470574Y-104614765D01*
X128468321Y-104585478D01*
X128465057Y-104565153D01*
X128460596Y-104551066D01*
X128454752Y-104540495D01*
X128449803Y-104533811D01*
X128426406Y-104504067D01*
X128136226Y-104504067D01*
X128039657Y-104504260D01*
G36*
X127251691Y-104504275D02*
G01*
X127122712Y-104508636D01*
X127013009Y-104521861D01*
X126920774Y-104544741D01*
X126844198Y-104578070D01*
X126781473Y-104622638D01*
X126730788Y-104679236D01*
X126690337Y-104748658D01*
X126689541Y-104750351D01*
X126665399Y-104812483D01*
X126656797Y-104867509D01*
X126663769Y-104922887D01*
X126686346Y-104986073D01*
X126690628Y-104995689D01*
X126719828Y-105051966D01*
X126752644Y-105095451D01*
X126794998Y-105132417D01*
X126852810Y-105169135D01*
X126856169Y-105171052D01*
X126906496Y-105195227D01*
X126963379Y-105213282D01*
X127030473Y-105225839D01*
X127111435Y-105233522D01*
X127209918Y-105236953D01*
X127244714Y-105237251D01*
X127410406Y-105237845D01*
X127433803Y-105208100D01*
X127440743Y-105198319D01*
X127446158Y-105186897D01*
X127450235Y-105171095D01*
X127453163Y-105148175D01*
X127455133Y-105115396D01*
X127455775Y-105091089D01*
X127299156Y-105091089D01*
X127205274Y-105091089D01*
X127150336Y-105089483D01*
X127093940Y-105085255D01*
X127047655Y-105079292D01*
X127044861Y-105078790D01*
X126962652Y-105056736D01*
X126898886Y-105023600D01*
X126851548Y-104977847D01*
X126818618Y-104917939D01*
X126812892Y-104902061D01*
X126807279Y-104877333D01*
X126809709Y-104852902D01*
X126821533Y-104820400D01*
X126828660Y-104804434D01*
X126852000Y-104762006D01*
X126880120Y-104732240D01*
X126911060Y-104711511D01*
X126973034Y-104684537D01*
X127052349Y-104664998D01*
X127144747Y-104653746D01*
X127211667Y-104651270D01*
X127299156Y-104650822D01*
X127299156Y-105091089D01*
X127455775Y-105091089D01*
X127456332Y-105070021D01*
X127456950Y-105009311D01*
X127457175Y-104930526D01*
X127457200Y-104868920D01*
X127457200Y-104559485D01*
X127429491Y-104531776D01*
X127417194Y-104520544D01*
X127403897Y-104512853D01*
X127385328Y-104508040D01*
X127357214Y-104505446D01*
X127315283Y-104504410D01*
X127255263Y-104504270D01*
X127251691Y-104504275D01*
G37*
X127251691Y-104504275D02*
X127122712Y-104508636D01*
X127013009Y-104521861D01*
X126920774Y-104544741D01*
X126844198Y-104578070D01*
X126781473Y-104622638D01*
X126730788Y-104679236D01*
X126690337Y-104748658D01*
X126689541Y-104750351D01*
X126665399Y-104812483D01*
X126656797Y-104867509D01*
X126663769Y-104922887D01*
X126686346Y-104986073D01*
X126690628Y-104995689D01*
X126719828Y-105051966D01*
X126752644Y-105095451D01*
X126794998Y-105132417D01*
X126852810Y-105169135D01*
X126856169Y-105171052D01*
X126906496Y-105195227D01*
X126963379Y-105213282D01*
X127030473Y-105225839D01*
X127111435Y-105233522D01*
X127209918Y-105236953D01*
X127244714Y-105237251D01*
X127410406Y-105237845D01*
X127433803Y-105208100D01*
X127440743Y-105198319D01*
X127446158Y-105186897D01*
X127450235Y-105171095D01*
X127453163Y-105148175D01*
X127455133Y-105115396D01*
X127455775Y-105091089D01*
X127299156Y-105091089D01*
X127205274Y-105091089D01*
X127150336Y-105089483D01*
X127093940Y-105085255D01*
X127047655Y-105079292D01*
X127044861Y-105078790D01*
X126962652Y-105056736D01*
X126898886Y-105023600D01*
X126851548Y-104977847D01*
X126818618Y-104917939D01*
X126812892Y-104902061D01*
X126807279Y-104877333D01*
X126809709Y-104852902D01*
X126821533Y-104820400D01*
X126828660Y-104804434D01*
X126852000Y-104762006D01*
X126880120Y-104732240D01*
X126911060Y-104711511D01*
X126973034Y-104684537D01*
X127052349Y-104664998D01*
X127144747Y-104653746D01*
X127211667Y-104651270D01*
X127299156Y-104650822D01*
X127299156Y-105091089D01*
X127455775Y-105091089D01*
X127456332Y-105070021D01*
X127456950Y-105009311D01*
X127457175Y-104930526D01*
X127457200Y-104868920D01*
X127457200Y-104559485D01*
X127429491Y-104531776D01*
X127417194Y-104520544D01*
X127403897Y-104512853D01*
X127385328Y-104508040D01*
X127357214Y-104505446D01*
X127315283Y-104504410D01*
X127255263Y-104504270D01*
X127251691Y-104504275D01*
G36*
X124525335Y-104506034D02*
G01*
X124505745Y-104513035D01*
X124504990Y-104513377D01*
X124478387Y-104533678D01*
X124463730Y-104554561D01*
X124460862Y-104564352D01*
X124461004Y-104577361D01*
X124465039Y-104595895D01*
X124473854Y-104622257D01*
X124488331Y-104658752D01*
X124509355Y-104707687D01*
X124537812Y-104771365D01*
X124574585Y-104852093D01*
X124594825Y-104896216D01*
X124631375Y-104974985D01*
X124665685Y-105047423D01*
X124696448Y-105110880D01*
X124722352Y-105162708D01*
X124742090Y-105200259D01*
X124754350Y-105220884D01*
X124756776Y-105223733D01*
X124787817Y-105236302D01*
X124822879Y-105234619D01*
X124851000Y-105219332D01*
X124852146Y-105218089D01*
X124863332Y-105201154D01*
X124882096Y-105168170D01*
X124906125Y-105123380D01*
X124933103Y-105071032D01*
X124942799Y-105051742D01*
X125015986Y-104905150D01*
X125095760Y-105064393D01*
X125124233Y-105119415D01*
X125150650Y-105167132D01*
X125172852Y-105203893D01*
X125188681Y-105226044D01*
X125194046Y-105230741D01*
X125235743Y-105237102D01*
X125270151Y-105223733D01*
X125280272Y-105209446D01*
X125297786Y-105177692D01*
X125321265Y-105131597D01*
X125349280Y-105074285D01*
X125380401Y-105008880D01*
X125413201Y-104938507D01*
X125446250Y-104866291D01*
X125478119Y-104795355D01*
X125507381Y-104728825D01*
X125532605Y-104669826D01*
X125552364Y-104621481D01*
X125565228Y-104586915D01*
X125569769Y-104569253D01*
X125569723Y-104568613D01*
X125558674Y-104546388D01*
X125536590Y-104523753D01*
X125535290Y-104522768D01*
X125508147Y-104507425D01*
X125483042Y-104507574D01*
X125473632Y-104510466D01*
X125462166Y-104516718D01*
X125449990Y-104529014D01*
X125435643Y-104549908D01*
X125417664Y-104581949D01*
X125394593Y-104627688D01*
X125364970Y-104689677D01*
X125338255Y-104746898D01*
X125307520Y-104813226D01*
X125279979Y-104872874D01*
X125257062Y-104922725D01*
X125240202Y-104959664D01*
X125230827Y-104980573D01*
X125229460Y-104983845D01*
X125223311Y-104978497D01*
X125209178Y-104956109D01*
X125188943Y-104919946D01*
X125164485Y-104873277D01*
X125154752Y-104854022D01*
X125121783Y-104789004D01*
X125096357Y-104741654D01*
X125076388Y-104709219D01*
X125059790Y-104688946D01*
X125044476Y-104678082D01*
X125028360Y-104673875D01*
X125017857Y-104673400D01*
X124999330Y-104675042D01*
X124983096Y-104681831D01*
X124966965Y-104696566D01*
X124948749Y-104722044D01*
X124926261Y-104761061D01*
X124897311Y-104816414D01*
X124881338Y-104847903D01*
X124855430Y-104898087D01*
X124832833Y-104939704D01*
X124815542Y-104969242D01*
X124805550Y-104983189D01*
X124804191Y-104983770D01*
X124797739Y-104972793D01*
X124783292Y-104944290D01*
X124762297Y-104901244D01*
X124736203Y-104846638D01*
X124706454Y-104783454D01*
X124691820Y-104752071D01*
X124653750Y-104671078D01*
X124623095Y-104608756D01*
X124598263Y-104563071D01*
X124577663Y-104531989D01*
X124559702Y-104513478D01*
X124542790Y-104505504D01*
X124525335Y-104506034D01*
G37*
X124525335Y-104506034D02*
X124505745Y-104513035D01*
X124504990Y-104513377D01*
X124478387Y-104533678D01*
X124463730Y-104554561D01*
X124460862Y-104564352D01*
X124461004Y-104577361D01*
X124465039Y-104595895D01*
X124473854Y-104622257D01*
X124488331Y-104658752D01*
X124509355Y-104707687D01*
X124537812Y-104771365D01*
X124574585Y-104852093D01*
X124594825Y-104896216D01*
X124631375Y-104974985D01*
X124665685Y-105047423D01*
X124696448Y-105110880D01*
X124722352Y-105162708D01*
X124742090Y-105200259D01*
X124754350Y-105220884D01*
X124756776Y-105223733D01*
X124787817Y-105236302D01*
X124822879Y-105234619D01*
X124851000Y-105219332D01*
X124852146Y-105218089D01*
X124863332Y-105201154D01*
X124882096Y-105168170D01*
X124906125Y-105123380D01*
X124933103Y-105071032D01*
X124942799Y-105051742D01*
X125015986Y-104905150D01*
X125095760Y-105064393D01*
X125124233Y-105119415D01*
X125150650Y-105167132D01*
X125172852Y-105203893D01*
X125188681Y-105226044D01*
X125194046Y-105230741D01*
X125235743Y-105237102D01*
X125270151Y-105223733D01*
X125280272Y-105209446D01*
X125297786Y-105177692D01*
X125321265Y-105131597D01*
X125349280Y-105074285D01*
X125380401Y-105008880D01*
X125413201Y-104938507D01*
X125446250Y-104866291D01*
X125478119Y-104795355D01*
X125507381Y-104728825D01*
X125532605Y-104669826D01*
X125552364Y-104621481D01*
X125565228Y-104586915D01*
X125569769Y-104569253D01*
X125569723Y-104568613D01*
X125558674Y-104546388D01*
X125536590Y-104523753D01*
X125535290Y-104522768D01*
X125508147Y-104507425D01*
X125483042Y-104507574D01*
X125473632Y-104510466D01*
X125462166Y-104516718D01*
X125449990Y-104529014D01*
X125435643Y-104549908D01*
X125417664Y-104581949D01*
X125394593Y-104627688D01*
X125364970Y-104689677D01*
X125338255Y-104746898D01*
X125307520Y-104813226D01*
X125279979Y-104872874D01*
X125257062Y-104922725D01*
X125240202Y-104959664D01*
X125230827Y-104980573D01*
X125229460Y-104983845D01*
X125223311Y-104978497D01*
X125209178Y-104956109D01*
X125188943Y-104919946D01*
X125164485Y-104873277D01*
X125154752Y-104854022D01*
X125121783Y-104789004D01*
X125096357Y-104741654D01*
X125076388Y-104709219D01*
X125059790Y-104688946D01*
X125044476Y-104678082D01*
X125028360Y-104673875D01*
X125017857Y-104673400D01*
X124999330Y-104675042D01*
X124983096Y-104681831D01*
X124966965Y-104696566D01*
X124948749Y-104722044D01*
X124926261Y-104761061D01*
X124897311Y-104816414D01*
X124881338Y-104847903D01*
X124855430Y-104898087D01*
X124832833Y-104939704D01*
X124815542Y-104969242D01*
X124805550Y-104983189D01*
X124804191Y-104983770D01*
X124797739Y-104972793D01*
X124783292Y-104944290D01*
X124762297Y-104901244D01*
X124736203Y-104846638D01*
X124706454Y-104783454D01*
X124691820Y-104752071D01*
X124653750Y-104671078D01*
X124623095Y-104608756D01*
X124598263Y-104563071D01*
X124577663Y-104531989D01*
X124559702Y-104513478D01*
X124542790Y-104505504D01*
X124525335Y-104506034D01*
G36*
X124081386Y-104510877D02*
G01*
X124057673Y-104525647D01*
X124031022Y-104547227D01*
X124031022Y-104868773D01*
X124031107Y-104962830D01*
X124031471Y-105036932D01*
X124032276Y-105093704D01*
X124033687Y-105135768D01*
X124035867Y-105165748D01*
X124038979Y-105186267D01*
X124043186Y-105199949D01*
X124048652Y-105209416D01*
X124052528Y-105214082D01*
X124083966Y-105234575D01*
X124119767Y-105233739D01*
X124151127Y-105216264D01*
X124177778Y-105194684D01*
X124177778Y-104547227D01*
X124151127Y-104525647D01*
X124125406Y-104509949D01*
X124104400Y-104504067D01*
X124081386Y-104510877D01*
G37*
X124081386Y-104510877D02*
X124057673Y-104525647D01*
X124031022Y-104547227D01*
X124031022Y-104868773D01*
X124031107Y-104962830D01*
X124031471Y-105036932D01*
X124032276Y-105093704D01*
X124033687Y-105135768D01*
X124035867Y-105165748D01*
X124038979Y-105186267D01*
X124043186Y-105199949D01*
X124048652Y-105209416D01*
X124052528Y-105214082D01*
X124083966Y-105234575D01*
X124119767Y-105233739D01*
X124151127Y-105216264D01*
X124177778Y-105194684D01*
X124177778Y-104547227D01*
X124151127Y-104525647D01*
X124125406Y-104509949D01*
X124104400Y-104504067D01*
X124081386Y-104510877D01*
G36*
X123306935Y-104504163D02*
G01*
X123228228Y-104504542D01*
X123167137Y-104505333D01*
X123121183Y-104506670D01*
X123087886Y-104508683D01*
X123064764Y-104511506D01*
X123049338Y-104515269D01*
X123039129Y-104520105D01*
X123034187Y-104523822D01*
X123008543Y-104556358D01*
X123005441Y-104590138D01*
X123021289Y-104620826D01*
X123031652Y-104633089D01*
X123042804Y-104641450D01*
X123058965Y-104646657D01*
X123084358Y-104649457D01*
X123123202Y-104650596D01*
X123179720Y-104650821D01*
X123190820Y-104650822D01*
X123336756Y-104650822D01*
X123336756Y-104921756D01*
X123336852Y-105007154D01*
X123337289Y-105072864D01*
X123338288Y-105121774D01*
X123340072Y-105156773D01*
X123342863Y-105180749D01*
X123346883Y-105196593D01*
X123352355Y-105207191D01*
X123359334Y-105215267D01*
X123392266Y-105235112D01*
X123426646Y-105233548D01*
X123457824Y-105210906D01*
X123460114Y-105208100D01*
X123467571Y-105197492D01*
X123473253Y-105185081D01*
X123477399Y-105167850D01*
X123480250Y-105142784D01*
X123482046Y-105106867D01*
X123483028Y-105057083D01*
X123483436Y-104990417D01*
X123483511Y-104914589D01*
X123483511Y-104650822D01*
X123622873Y-104650822D01*
X123682678Y-104650418D01*
X123724082Y-104648840D01*
X123751252Y-104645547D01*
X123768354Y-104639992D01*
X123779557Y-104631631D01*
X123780917Y-104630178D01*
X123797275Y-104596939D01*
X123795828Y-104559362D01*
X123777022Y-104526645D01*
X123769750Y-104520298D01*
X123760373Y-104515266D01*
X123746391Y-104511396D01*
X123725304Y-104508537D01*
X123694611Y-104506535D01*
X123651811Y-104505239D01*
X123594405Y-104504498D01*
X123519890Y-104504158D01*
X123425767Y-104504068D01*
X123405740Y-104504067D01*
X123306935Y-104504163D01*
G37*
X123306935Y-104504163D02*
X123228228Y-104504542D01*
X123167137Y-104505333D01*
X123121183Y-104506670D01*
X123087886Y-104508683D01*
X123064764Y-104511506D01*
X123049338Y-104515269D01*
X123039129Y-104520105D01*
X123034187Y-104523822D01*
X123008543Y-104556358D01*
X123005441Y-104590138D01*
X123021289Y-104620826D01*
X123031652Y-104633089D01*
X123042804Y-104641450D01*
X123058965Y-104646657D01*
X123084358Y-104649457D01*
X123123202Y-104650596D01*
X123179720Y-104650821D01*
X123190820Y-104650822D01*
X123336756Y-104650822D01*
X123336756Y-104921756D01*
X123336852Y-105007154D01*
X123337289Y-105072864D01*
X123338288Y-105121774D01*
X123340072Y-105156773D01*
X123342863Y-105180749D01*
X123346883Y-105196593D01*
X123352355Y-105207191D01*
X123359334Y-105215267D01*
X123392266Y-105235112D01*
X123426646Y-105233548D01*
X123457824Y-105210906D01*
X123460114Y-105208100D01*
X123467571Y-105197492D01*
X123473253Y-105185081D01*
X123477399Y-105167850D01*
X123480250Y-105142784D01*
X123482046Y-105106867D01*
X123483028Y-105057083D01*
X123483436Y-104990417D01*
X123483511Y-104914589D01*
X123483511Y-104650822D01*
X123622873Y-104650822D01*
X123682678Y-104650418D01*
X123724082Y-104648840D01*
X123751252Y-104645547D01*
X123768354Y-104639992D01*
X123779557Y-104631631D01*
X123780917Y-104630178D01*
X123797275Y-104596939D01*
X123795828Y-104559362D01*
X123777022Y-104526645D01*
X123769750Y-104520298D01*
X123760373Y-104515266D01*
X123746391Y-104511396D01*
X123725304Y-104508537D01*
X123694611Y-104506535D01*
X123651811Y-104505239D01*
X123594405Y-104504498D01*
X123519890Y-104504158D01*
X123425767Y-104504068D01*
X123405740Y-104504067D01*
X123306935Y-104504163D01*
G36*
X122041177Y-104509533D02*
G01*
X122009798Y-104531776D01*
X121982089Y-104559485D01*
X121982089Y-104868920D01*
X121982162Y-104960799D01*
X121982505Y-105032840D01*
X121983308Y-105087780D01*
X121984759Y-105128360D01*
X121987048Y-105157317D01*
X121990364Y-105177391D01*
X121994895Y-105191321D01*
X122000831Y-105201845D01*
X122005486Y-105208100D01*
X122036217Y-105232673D01*
X122071504Y-105235341D01*
X122103755Y-105220271D01*
X122114412Y-105211374D01*
X122121536Y-105199557D01*
X122125833Y-105180526D01*
X122128009Y-105149992D01*
X122128772Y-105103662D01*
X122128845Y-105067871D01*
X122128845Y-104933045D01*
X122625556Y-104933045D01*
X122625556Y-105055700D01*
X122626069Y-105111787D01*
X122628124Y-105150333D01*
X122632492Y-105176361D01*
X122639944Y-105194897D01*
X122648953Y-105208100D01*
X122679856Y-105232604D01*
X122714804Y-105235506D01*
X122748262Y-105218089D01*
X122757396Y-105208959D01*
X122763848Y-105196855D01*
X122768103Y-105178001D01*
X122770648Y-105148620D01*
X122771971Y-105104937D01*
X122772557Y-105043175D01*
X122772625Y-105029000D01*
X122773109Y-104912631D01*
X122773359Y-104816727D01*
X122773277Y-104739177D01*
X122772769Y-104677869D01*
X122771738Y-104630690D01*
X122770087Y-104595530D01*
X122767721Y-104570276D01*
X122764543Y-104552817D01*
X122760456Y-104541041D01*
X122755366Y-104532835D01*
X122749734Y-104526645D01*
X122717872Y-104506844D01*
X122684643Y-104509533D01*
X122653265Y-104531776D01*
X122640567Y-104546126D01*
X122632474Y-104561978D01*
X122627958Y-104584554D01*
X122625994Y-104619078D01*
X122625556Y-104670776D01*
X122625556Y-104786289D01*
X122128845Y-104786289D01*
X122128845Y-104667756D01*
X122128338Y-104613148D01*
X122126302Y-104576275D01*
X122121965Y-104552307D01*
X122114553Y-104536415D01*
X122106267Y-104526645D01*
X122074406Y-104506844D01*
X122041177Y-104509533D01*
G37*
X122041177Y-104509533D02*
X122009798Y-104531776D01*
X121982089Y-104559485D01*
X121982089Y-104868920D01*
X121982162Y-104960799D01*
X121982505Y-105032840D01*
X121983308Y-105087780D01*
X121984759Y-105128360D01*
X121987048Y-105157317D01*
X121990364Y-105177391D01*
X121994895Y-105191321D01*
X122000831Y-105201845D01*
X122005486Y-105208100D01*
X122036217Y-105232673D01*
X122071504Y-105235341D01*
X122103755Y-105220271D01*
X122114412Y-105211374D01*
X122121536Y-105199557D01*
X122125833Y-105180526D01*
X122128009Y-105149992D01*
X122128772Y-105103662D01*
X122128845Y-105067871D01*
X122128845Y-104933045D01*
X122625556Y-104933045D01*
X122625556Y-105055700D01*
X122626069Y-105111787D01*
X122628124Y-105150333D01*
X122632492Y-105176361D01*
X122639944Y-105194897D01*
X122648953Y-105208100D01*
X122679856Y-105232604D01*
X122714804Y-105235506D01*
X122748262Y-105218089D01*
X122757396Y-105208959D01*
X122763848Y-105196855D01*
X122768103Y-105178001D01*
X122770648Y-105148620D01*
X122771971Y-105104937D01*
X122772557Y-105043175D01*
X122772625Y-105029000D01*
X122773109Y-104912631D01*
X122773359Y-104816727D01*
X122773277Y-104739177D01*
X122772769Y-104677869D01*
X122771738Y-104630690D01*
X122770087Y-104595530D01*
X122767721Y-104570276D01*
X122764543Y-104552817D01*
X122760456Y-104541041D01*
X122755366Y-104532835D01*
X122749734Y-104526645D01*
X122717872Y-104506844D01*
X122684643Y-104509533D01*
X122653265Y-104531776D01*
X122640567Y-104546126D01*
X122632474Y-104561978D01*
X122627958Y-104584554D01*
X122625994Y-104619078D01*
X122625556Y-104670776D01*
X122625556Y-104786289D01*
X122128845Y-104786289D01*
X122128845Y-104667756D01*
X122128338Y-104613148D01*
X122126302Y-104576275D01*
X122121965Y-104552307D01*
X122114553Y-104536415D01*
X122106267Y-104526645D01*
X122074406Y-104506844D01*
X122041177Y-104509533D01*
M02*
